<svg id="cp_red_center" xmlns="http://www.w3.org/2000/svg" xmlns:xlink="http://www.w3.org/1999/xlink" width="120" height="120" viewBox="0 0 120 120">
  <defs>
    <style>
      .cls-1, .cls-2, .cls-3, .cls-4, .cls-5, .cls-6 {
        fill-rule: evenodd;
      }

      .cls-1 {
        fill: url(#linear-gradient);
        filter: url(#filter);
      }

      .cls-2 {
        fill: url(#linear-gradient-2);
      }

      .cls-3 {
        fill: url(#linear-gradient-3);
      }

      .cls-4 {
        fill: url(#linear-gradient-4);
      }

      .cls-5 {
        fill: #1b1b1b;
        mix-blend-mode: overlay;
      }

      .cls-6 {
        fill: #d3130f;
        mix-blend-mode: multiply;
        filter: url(#filter-2);
      }
    </style>
    <linearGradient id="linear-gradient" x1="398" y1="225" x2="398" y2="137" gradientUnits="userSpaceOnUse">
      <stop offset="0" stop-color="#e8201b"/>
      <stop offset="1" stop-color="#ff7070"/>
    </linearGradient>
    <filter id="filter" x="341" y="118" width="115" height="127" filterUnits="userSpaceOnUse">
      <feGaussianBlur result="blur" stdDeviation="6.667" in="SourceAlpha"/>
      <feComposite result="composite"/>
      <feComposite result="composite-2"/>
      <feComposite result="composite-3"/>
      <feFlood result="flood" flood-color="#ff4646" flood-opacity="0.4"/>
      <feComposite result="composite-4" operator="in" in2="composite-3"/>
      <feBlend result="blend" mode="screen" in2="SourceGraphic"/>
      <feBlend result="blend-2" in="SourceGraphic"/>
    </filter>
    <linearGradient id="linear-gradient-2" x1="360" y1="214.02" x2="398.5" y2="169.73" gradientUnits="userSpaceOnUse">
      <stop offset="0" stop-color="#ff7070"/>
      <stop offset="1" stop-color="#d3130f"/>
    </linearGradient>
    <linearGradient id="linear-gradient-3" x1="436" y1="210.625" x2="398.5" y2="173.125" gradientUnits="userSpaceOnUse">
      <stop offset="0" stop-color="#d3130f"/>
      <stop offset="1" stop-color="#ff6363"/>
    </linearGradient>
    <linearGradient id="linear-gradient-4" x1="398" y1="182.469" x2="398" y2="137" gradientUnits="userSpaceOnUse">
      <stop offset="0" stop-color="#ea3935"/>
      <stop offset="1" stop-color="#ff5e5e"/>
    </linearGradient>
    <filter id="filter-2" x="388.969" y="151" width="19.031" height="16" filterUnits="userSpaceOnUse">
      <feGaussianBlur result="blur" stdDeviation="1" in="SourceAlpha"/>
      <feFlood result="flood" flood-opacity="0.1"/>
      <feComposite result="composite" operator="out" in2="blur"/>
      <feOffset result="offset" dy="1"/>
      <feComposite result="composite-2" operator="in" in2="SourceAlpha"/>
      <feBlend result="blend" mode="multiply" in2="SourceGraphic"/>
    </filter>
  </defs>
  <path id="b" class="cls-1" d="M397.994,224.988l-38-22V159l38-22,38,22v43.992Z" transform="translate(-338.5 -121.5)"/>
  <path id="b-2" data-name="b" class="cls-2" d="M360,158.753l38.493,22.741V225L360,202.258V158.753Z" transform="translate(-338.5 -121.5)"/>
  <path id="b-3" data-name="b" class="cls-3" d="M436,158.753l-37.507,22.741V225L436,202.258V158.753Z" transform="translate(-338.5 -121.5)"/>
  <path id="b-4" data-name="b" class="cls-4" d="M397.506,137L360,158.753l38.493,23.73L436,158.753Z" transform="translate(-338.5 -121.5)"/>
  <path id="b-5" data-name="b" class="cls-5" d="M365.922,169.618l25.662,15.82v4.944l-25.662-15.82v-4.944Zm0,7.91,25.662,15.82v4.944l-25.662-15.82v-4.944Zm0,7.91,25.662,15.82V206.2l-25.662-15.82v-4.944Zm0,7.91,25.662,15.82v4.944l-25.662-15.82v-4.944Z" transform="translate(-338.5 -121.5)"/>
  <path id="star" class="cls-6" d="M404.835,167.011l-6.693-4.661-7.157,4.426,3.457-6.991-5.458-3.769,7.255,0.116L398.75,151l1.96,5.195,7.3,0.094-5.889,3.612Z" transform="translate(-338.5 -121.5)"/>
</svg>
