<svg xmlns="http://www.w3.org/2000/svg" width="186" height="90" viewBox="0 0 186 90">
  <defs>
    <style>.cls-1 { fill: #c9f6ff; fill-rule: evenodd; opacity: 0.2; }</style>
  </defs>
  <path id="chart_bg" fill="#c9f6ff" opacity="0.2" d="M182 90a88.907 88.907 0 0 0-40.52-74.617l-3.85-2.217c-1.53-.88-3.05-1.76-4.51-2.6a88.947 88.947 0 0 0-80.36.06c-1.34.772-2.73 1.577-4.14 2.384-1.34.775-2.69 1.55-3.98 2.3A88.9 88.9 0 0 0 4 90H-.01v-.055a128.393 128.393 0 0 1 1-14.913l3-1v2.654A89.92 89.92 0 0 1 36.38 20.06c-1.09.63-1.75 1-1.75 1L34 17.968a131.62 131.62 0 0 1 12.54-8.375A129.268 129.268 0 0 1 59.98 3l2.37 2.094s-.47.267-1.26.725a90.293 90.293 0 0 1 63.78-.015l-1.23-.71L126.01 3a131.445 131.445 0 0 1 13.53 6.648 129.367 129.367 0 0 1 12.45 8.32l-.64 3.092s-.63-.366-1.7-.98A89.918 89.918 0 0 1 182 76.58v-2.55l3 1A132.163 132.163 0 0 1 186 90h-4zM93 5a85 85 0 0 1 85 85h-10a75 75 0 1 0-150 0H8A85 85 0 0 1 93 5zM30.33 83.48l-.09 1-7.97-.7.09-1zm-7.07-6.826l7.88 1.39-.18.984-7.88-1.39zm1.42-6.026l7.73 2.07-.26.966-7.72-2.07zm1.95-5.88l7.52 2.737-.34.94-7.52-2.737zm2.45-5.686l7.25 3.38-.42.907-7.25-3.382zm2.94-5.452l6.93 4-.5.866-6.93-4zm3.4-5.175l6.56 4.59-.58.818-6.55-4.59zm3.84-4.858l6.13 5.142-.64.765-6.13-5.142zm4.25-4.506l5.66 5.658-.71.707-5.66-5.657zm4.63-4.117l5.14 6.128-.77.644-5.14-6.128zm4.96-3.7l4.59 6.553-.82.573-4.59-6.554zM58.37 28l4 6.93-.86.5-4-6.93zm8.92 4.47l-.91.423-3.38-7.25.91-.423zm5.11-2.02l-.94.34-2.74-7.516.94-.342zm5.26-1.568l-.96.26-2.07-7.73.96-.257zm5.39-1.1l-.99.174-1.39-7.88.99-.172zm3.76-8.51l1-.09.7 7.97-1 .088zm1.87 20.17l1 1.56h-.96l-.76-1.19q-.33-.517-.54-.79a1.713 1.713 0 0 0-.39-.383 1.16 1.16 0 0 0-.34-.154 2.352 2.352 0 0 0-.42-.027h-.88V41h-.76v-5.727h2.54a3.327 3.327 0 0 1 1.16.155 1.265 1.265 0 0 1 .64.545 1.615 1.615 0 0 1 .24.863 1.414 1.414 0 0 1-.4 1.027 1.992 1.992 0 0 1-1.22.532 1.9 1.9 0 0 1 .46.285 4.08 4.08 0 0 1 .63.76zm-.85-1.747a.865.865 0 0 0 .44-.343.953.953 0 0 0 .16-.514.846.846 0 0 0-.3-.668 1.392 1.392 0 0 0-.93-.262h-1.81V37.8h1.63a2.46 2.46 0 0 0 .81-.107zm12.35-18.334l-.69 7.97-1-.087.7-7.97zm-.45 16.59h-1.9V41h-.76v-5.05h-1.88v-.677h4.54v.676zM93 19h1v8h-1v-8zm1.48 22l-.66-1.734h-2.4L90.79 41h-.8l2.2-5.727H93L95.35 41h-.87zm-1.5-3.937c-.18-.482-.31-.878-.4-1.188a7.3 7.3 0 0 1-.31 1.094l-.63 1.678h1.94zm13.33-16.808l-1.39 7.878-.98-.174 1.39-7.88zm-1.4 20.07V41h-4.28v-5.727h4.14v.676h-3.38v1.75h3.17v.672h-3.17v1.95h3.52zM107 46H83v-2h24v2zm5.34-24.32l-2.07 7.73-.97-.26 2.07-7.727zm5.88 1.948l-2.74 7.518-.94-.342 2.74-7.518zm5.68 2.452l-3.38 7.25-.9-.423 3.38-7.25zm5.45 2.938l-4 6.928-.86-.5 4-6.928zm5.18 3.4l-4.59 6.554-.82-.574 4.59-6.553zm4.86 3.84l-5.14 6.13-.77-.644 5.14-6.128zm4.5 4.25l-5.65 5.656-.71-.707 5.66-5.657zm4.12 4.624l-6.13 5.143-.64-.766 6.13-5.144zm3.7 4.967l-6.55 4.588-.58-.82 6.56-4.588zm3.25 5.27l-6.93 4-.5-.867 6.93-4zm2.78 5.533l-7.25 3.38-.42-.906 7.25-3.38zm2.29 5.754l-7.52 2.737-.34-.94 7.52-2.736zm1.78 5.933l-7.73 2.07-.26-.966 7.73-2.07zm1.25 6.064l-7.88 1.39-.17-.985 7.88-1.39zm.72 6.15l-7.97.7-.08-1 7.97-.7zm.18 5.195h-8 8z"/>
</svg>
