<?xml version="1.0" encoding="utf-8"?>
<!-- Generator: Adobe Illustrator 17.0.0, SVG Export Plug-In . SVG Version: 6.00 Build 0)  -->
<!DOCTYPE svg PUBLIC "-//W3C//DTD SVG 1.1//EN" "http://www.w3.org/Graphics/SVG/1.1/DTD/svg11.dtd">
<svg version="1.1" id="图层_1" xmlns="http://www.w3.org/2000/svg" xmlns:xlink="http://www.w3.org/1999/xlink" x="0px" y="0px"
	 width="24px" height="24px" viewBox="911.5 23.5 24 24" enable-background="new 911.5 23.5 24 24" xml:space="preserve">
<path id="h-icon-admin" fill="#fff" d="M923.5,47.5c-6.627,0-12-5.373-12-12s5.373-12,12-12s12,5.373,12,12S930.127,47.5,923.5,47.5z
	 M923.5,27.5c-2.209,0-4,1.791-4,4s1.791,4,4,4s4-1.791,4-4S925.709,27.5,923.5,27.5z M923.5,37.5c-2.961-0.113-5.843,0.968-8,3
	c0,1.657,3.58,5,8,5s8-3.343,8-5C929.348,38.461,926.462,37.379,923.5,37.5z"/>
</svg>
