<?xml version="1.0" encoding="utf-8"?>
<!-- Generator: Adobe Illustrator 17.0.0, SVG Export Plug-In . SVG Version: 6.00 Build 0)  -->
<!DOCTYPE svg PUBLIC "-//W3C//DTD SVG 1.1//EN" "http://www.w3.org/Graphics/SVG/1.1/DTD/svg11.dtd">
<svg version="1.1" id="图层_1" xmlns="http://www.w3.org/2000/svg" xmlns:xlink="http://www.w3.org/1999/xlink" x="0px" y="0px"
	 width="24px" height="24px" viewBox="947.5 23.5 24 24" enable-background="new 947.5 23.5 24 24" xml:space="preserve">
<path id="h-icon-head_menu" fill="#fff" d="M967.5,36.5h-16c-0.552,0-1-0.448-1-1s0.448-1,1-1h16c0.552,0,1,0.448,1,1S968.052,36.5,967.5,36.5z
	 M967.5,30.5h-16c-0.552,0-1-0.448-1-1s0.448-1,1-1h16c0.552,0,1,0.448,1,1S968.052,30.5,967.5,30.5z M951.5,40.5h16
	c0.552,0,1,0.448,1,1s-0.448,1-1,1h-16c-0.552,0-1-0.448-1-1S950.948,40.5,951.5,40.5z"/>
</svg>
