<?xml version="1.0" encoding="utf-8"?>
<!-- Generator: Adobe Illustrator 22.0.1, SVG Export Plug-In . SVG Version: 6.00 Build 0)  -->
<svg version="1.1" id="line_disconnected" xmlns="http://www.w3.org/2000/svg" xmlns:xlink="http://www.w3.org/1999/xlink" x="0px"
	 y="0px" viewBox="0 0 50 52" style="enable-background:new 0 0 50 52;" xml:space="preserve">
<style type="text/css">
	.st0{fill:#D3130F;}
</style>
<g>
	<path class="st0" d="M34.2,13c-1.7,0-3,1.3-3,3c0,0.5,0.1,1,0.3,1.4l-2.4,2.7l1.5,1.3l2.4-2.7c0.4,0.2,0.8,0.3,1.2,0.3
		c1.7,0,3-1.3,3-3S35.9,13,34.2,13z M34.2,17c-0.6,0-1-0.4-1-1s0.4-1,1-1s1,0.4,1,1S34.8,17,34.2,17z"/>
	<polygon class="st0" points="24.2,28.6 28.2,24.2 26.7,22.9 22.8,27.3 	"/>
	<path class="st0" d="M21.8,31.4l-1.5-1.3l-2.8,3.2c-0.4-0.2-0.8-0.3-1.2-0.3c-1.7,0-3,1.3-3,3s1.3,3,3,3s3-1.3,3-3
		c0-0.5-0.1-1-0.3-1.4L21.8,31.4z M16.2,37c-0.6,0-1-0.4-1-1s0.4-1,1-1s1,0.4,1,1S16.8,37,16.2,37z"/>
</g>
</svg>
