<?xml version="1.0" encoding="utf-8"?>
<!-- Generator: Adobe Illustrator 22.0.1, SVG Export Plug-In . SVG Version: 6.00 Build 0)  -->
<svg version="1.1" id="line_connected" xmlns="http://www.w3.org/2000/svg" xmlns:xlink="http://www.w3.org/1999/xlink" x="0px"
	 y="0px" viewBox="0 0 52 52" style="enable-background:new 0 0 52 52;" xml:space="preserve">
<style type="text/css">
	.st0{fill:#C9E5EA;}
</style>
<path class="st0" d="M36,12c-1.7,0-3,1.3-3,3c0,0.5,0.1,1,0.3,1.4L19.2,32.3C18.8,32.1,18.4,32,18,32c-1.7,0-3,1.3-3,3s1.3,3,3,3
	s3-1.3,3-3c0-0.5-0.1-1-0.3-1.4l14.1-15.9c0.4,0.2,0.8,0.3,1.2,0.3c1.7,0,3-1.3,3-3S37.7,12,36,12z M18,36c-0.6,0-1-0.4-1-1
	s0.4-1,1-1s1,0.4,1,1S18.6,36,18,36z M36,16c-0.6,0-1-0.4-1-1s0.4-1,1-1s1,0.4,1,1S36.6,16,36,16z"/>
</svg>
