<svg xmlns="http://www.w3.org/2000/svg" width="24" height="24" viewBox="0 0 24 24">
  <metadata><?xpacket begin="﻿" id="W5M0MpCehiHzreSzNTczkc9d"?>
<x:xmpmeta xmlns:x="adobe:ns:meta/" x:xmptk="Adobe XMP Core 5.6-c138 79.159824, 2016/09/14-01:09:01        ">
   <rdf:RDF xmlns:rdf="http://www.w3.org/1999/02/22-rdf-syntax-ns#">
      <rdf:Description rdf:about=""/>
   </rdf:RDF>
</x:xmpmeta>
                                                                                                    
                                                                                                    
                                                                                                    
                                                                                                    
                                                                                                    
                                                                                                    
                                                                                                    
                                                                                                    
                                                                                                    
                                                                                                    
                                                                                                    
                                                                                                    
                                                                                                    
                                                                                                    
                                                                                                    
                                                                                                    
                                                                                                    
                                                                                                    
                                                                                                    
                                                                                                    
                           
<?xpacket end="w"?></metadata>
<defs>
    <style>
      .cls-1 {
        fill: #c9e5ea;
        fill-rule: evenodd;
      }
    </style>
  </defs>
  <path id="add" class="cls-1" d="M483,649h-2v-1h2a1,1,0,0,0,1-1v-2h1v2A2,2,0,0,1,483,649Zm1-9h1v3h-1v-3Zm0-5h1v3h-1v-3Zm0-4a1,1,0,0,0-1-1h-2v-1h2a2,2,0,0,1,2,2v2h-1v-2Zm-5,9h-3v3a1,1,0,0,1-2,0v-3h-3a1,1,0,0,1,0-2h3v-3a1,1,0,0,1,2,0v3h3A1,1,0,0,1,479,640Zm-3-11h3v1h-3v-1Zm-5,0h3v1h-3v-1Zm-6,18v-2h1v2a1,1,0,0,0,1,1h2v1h-2A2,2,0,0,1,465,647Zm1-16v2h-1v-2a2,2,0,0,1,2-2h2v1h-2A1,1,0,0,0,466,631Zm0,7h-1v-3h1v3Zm0,5h-1v-3h1v3Zm8,6h-3v-1h3v1Zm5,0h-3v-1h3v1Z" transform="translate(-463 -627)"/>
</svg>
