<?xml version="1.0" encoding="utf-8"?>
<!-- Generator: Adobe Illustrator 17.0.0, SVG Export Plug-In . SVG Version: 6.00 Build 0)  -->
<!DOCTYPE svg PUBLIC "-//W3C//DTD SVG 1.1//EN" "http://www.w3.org/Graphics/SVG/1.1/DTD/svg11.dtd">
<svg version="1.1" id="图层_1" xmlns="http://www.w3.org/2000/svg" xmlns:xlink="http://www.w3.org/1999/xlink" x="0px" y="0px"
	 width="64px" height="64px" viewBox="0 0 64 64" enable-background="new 0 0 64 64" xml:space="preserve">
<linearGradient id="SVGID_1_" gradientUnits="userSpaceOnUse" x1="32" y1="14" x2="32" y2="51">
	<stop  offset="0" style="stop-color:#FFFFFF"/>
	<stop  offset="1" style="stop-color:#A7DBE6"/>
</linearGradient>
<path fill="url(#SVGID_1_)" d="M32,14l-16,8.75v19.5L32,51l16-8.75v-19.5L32,14z M31,46.01l-12-7v-3l12,7V46.01z M31,41.01l-12-7v-3
	l12,7V41.01z M31,36.01l-12-7v-3l12,7V36.01z M39.309,30.101c2.531-1.65,4.905-0.934,5.529,1.582c0.045,0.38-0.197,0.869-0.54,1.093
	s-0.657,0.096-0.701-0.284c-0.525-1.759-2.282-2.216-4.127-1.014c-1.377,0.898-2.51,2.531-3.024,4.193l2.025-1.32l-1.08,2.185
	l-1.241,0.809l-1.241,0.809C34.898,35.239,36.778,31.751,39.309,30.101z M40.601,41.112c-2.531,1.65-4.905,0.934-5.529-1.582
	c-0.045-0.38,0.197-0.869,0.54-1.093s0.657-0.096,0.701,0.284c0.525,1.759,2.282,2.216,4.127,1.014
	c1.377-0.898,2.51-2.531,3.024-4.193l-2.025,1.32l1.08-2.185l1.241-0.809L45,33.059C45.012,35.973,43.132,39.462,40.601,41.112z"/>
</svg>
