<?xml version="1.0" encoding="utf-8"?>
<!-- Generator: Adobe Illustrator 17.0.0, SVG Export Plug-In . SVG Version: 6.00 Build 0)  -->
<!DOCTYPE svg PUBLIC "-//W3C//DTD SVG 1.1//EN" "http://www.w3.org/Graphics/SVG/1.1/DTD/svg11.dtd">
<svg version="1.1" id="图层_1" xmlns="http://www.w3.org/2000/svg" xmlns:xlink="http://www.w3.org/1999/xlink" x="0px" y="0px"
	 width="64px" height="64px" viewBox="-17.5 -17.5 64 64" enable-background="new -17.5 -17.5 64 64" xml:space="preserve">
<linearGradient id="ic_net_1_" gradientUnits="userSpaceOnUse" x1="14.4988" y1="-1.5" x2="14.4988" y2="30.4967">
	<stop  offset="0" style="stop-color:#FFFFFF"/>
	<stop  offset="1" style="stop-color:#A7DBE6"/>
</linearGradient>
<path id="ic_net" fill="url(#ic_net_1_)" d="M-0.529,9.01c2.047-5.4,6.795-9.316,12.485-10.3c-1.141,1.745-2.11,3.597-2.892,5.53
	c-1.731-0.168-3.309,0.997-3.659,2.7C3.342,7.356,1.345,8.052-0.529,9.01L-0.529,9.01z M5.477,8.68
	c-2.382,0.528-4.651,1.477-6.7,2.8c-0.72,3.827-0.036,7.786,1.927,11.15c2.238,0.445,4.526,0.576,6.8,0.39
	c-0.005-1.208,0.487-2.365,1.361-3.2c-1.025-2.87-1.454-5.919-1.261-8.96C6.556,10.567,5.745,9.735,5.477,8.68L5.477,8.68
	L5.477,8.68z M2.067,24.63c0,0,4.327,6.7,14.365,5.78c-1.517-1.414-2.953-2.913-4.3-4.49c0,0-2.794,0.7-3.758-1.28
	c-2.092,0.295-4.215,0.292-6.306-0.01l0,0H2.067z M13.539,24.88c0,0,0.693-0.3,0.948-1.98c3.656-1.458,6.795-3.971,9.016-7.22
	c0.657,0.029,1.306-0.154,1.852-0.52c1.633,1.597,2.936,3.5,3.834,5.6c-1.845,4.471-5.634,7.853-10.285,9.18
	C16.839,28.573,15.024,26.861,13.539,24.88L13.539,24.88z M27.802,5.8c0,0,4.052,4.67,2.225,12.58c0,0-2.25-3.64-3.368-4.48
	c0,0,1-1.95-0.151-3.39C27.208,9.027,27.646,7.433,27.802,5.8L27.802,5.8L27.802,5.8z M10.719,4.77
	c0.601,0.463,1.035,1.109,1.235,1.84c3.314,0.306,6.518,1.348,9.378,3.05c0,0,1.946-1.6,3.826-0.41
	c0.773-1.712,1.199-3.562,1.251-5.44c0,0-3.889-5.13-12-5.31c0,0-3.164,4.32-3.692,6.27l0,0L10.719,4.77z M9.337,10.97
	c1.478,0.02,2.697-1.153,2.735-2.63c2.918,0.33,5.744,1.223,8.322,2.63c0,0-0.889,2.81,1.4,4.19
	c-1.983,2.593-4.584,4.648-7.564,5.98c-0.663-1.43-2.206-2.235-3.758-1.96C10.472,19.18,9.372,17.04,9.337,10.97L9.337,10.97
	L9.337,10.97z"/>
</svg>
