<svg xmlns="http://www.w3.org/2000/svg" width="24" height="24" viewBox="0 0 24 24">
  <metadata><?xpacket begin="﻿" id="W5M0MpCehiHzreSzNTczkc9d"?>
<x:xmpmeta xmlns:x="adobe:ns:meta/" x:xmptk="Adobe XMP Core 5.6-c138 79.159824, 2016/09/14-01:09:01        ">
   <rdf:RDF xmlns:rdf="http://www.w3.org/1999/02/22-rdf-syntax-ns#">
      <rdf:Description rdf:about=""/>
   </rdf:RDF>
</x:xmpmeta>
                                                                                                    
                                                                                                    
                                                                                                    
                                                                                                    
                                                                                                    
                                                                                                    
                                                                                                    
                                                                                                    
                                                                                                    
                                                                                                    
                                                                                                    
                                                                                                    
                                                                                                    
                                                                                                    
                                                                                                    
                                                                                                    
                                                                                                    
                                                                                                    
                                                                                                    
                                                                                                    
                           
<?xpacket end="w"?></metadata>
<defs>
    <style>
      .cls-1 {
        fill: #494d50;
        fill-rule: evenodd;
      }
    </style>
  </defs>
  <path id="_2" data-name="2" class="cls-1" d="M3308,1249a12,12,0,1,1,12-12A12,12,0,0,1,3308,1249Zm2.01-15.57a2.706,2.706,0,0,0-1.93-.66,4,4,0,0,0-2.5.83v1.16a3.415,3.415,0,0,1,2.32-1.03,1.734,1.734,0,0,1,1.25.42,1.541,1.541,0,0,1,.43,1.18,2.65,2.65,0,0,1-.36,1.32,10.043,10.043,0,0,1-1.46,1.72l-2.64,2.63v1h5.52v-1.02h-4.16v-0.02l2.07-2.02a10.943,10.943,0,0,0,1.72-2.07,3.37,3.37,0,0,0,.45-1.66A2.314,2.314,0,0,0,3310.01,1233.43Z" transform="translate(-3296 -1225)"/>
</svg>
