<svg xmlns="http://www.w3.org/2000/svg" width="24" height="24" viewBox="0 0 24 24">
  <metadata><?xpacket begin="﻿" id="W5M0MpCehiHzreSzNTczkc9d"?>
<x:xmpmeta xmlns:x="adobe:ns:meta/" x:xmptk="Adobe XMP Core 5.6-c138 79.159824, 2016/09/14-01:09:01        ">
   <rdf:RDF xmlns:rdf="http://www.w3.org/1999/02/22-rdf-syntax-ns#">
      <rdf:Description rdf:about=""/>
   </rdf:RDF>
</x:xmpmeta>
                                                                                                    
                                                                                                    
                                                                                                    
                                                                                                    
                                                                                                    
                                                                                                    
                                                                                                    
                                                                                                    
                                                                                                    
                                                                                                    
                                                                                                    
                                                                                                    
                                                                                                    
                                                                                                    
                                                                                                    
                                                                                                    
                                                                                                    
                                                                                                    
                                                                                                    
                                                                                                    
                           
<?xpacket end="w"?></metadata>
<defs>
    <style>
      .cls-1 {
        fill: #494d50;
        fill-rule: evenodd;
      }
    </style>
  </defs>
  <path id="_3" data-name="3" class="cls-1" d="M3308,1338a12,12,0,1,1,12-12A12,12,0,0,1,3308,1338Zm2.33-14.05a1.968,1.968,0,0,0-.7-1.57,2.726,2.726,0,0,0-1.86-.61,4.016,4.016,0,0,0-2.08.52v1.08a2.9,2.9,0,0,1,1.8-.64,1.4,1.4,0,0,1,1.67,1.49q0,1.62-2.19,1.62h-0.72v0.95h0.76c1.64,0,2.46.57,2.46,1.72a1.516,1.516,0,0,1-.54,1.23,2.232,2.232,0,0,1-1.49.46,3.342,3.342,0,0,1-2.1-.72v1.19a3.954,3.954,0,0,0,2.08.48,3.479,3.479,0,0,0,2.34-.75,2.466,2.466,0,0,0,.89-1.97,1.989,1.989,0,0,0-.58-1.47,2.455,2.455,0,0,0-1.55-.69v-0.03A2.2,2.2,0,0,0,3310.33,1323.95Z" transform="translate(-3296 -1314)"/>
</svg>
