<svg xmlns="http://www.w3.org/2000/svg" width="24" height="24" viewBox="0 0 24 24">
  <metadata><?xpacket begin="﻿" id="W5M0MpCehiHzreSzNTczkc9d"?>
<x:xmpmeta xmlns:x="adobe:ns:meta/" x:xmptk="Adobe XMP Core 5.6-c138 79.159824, 2016/09/14-01:09:01        ">
   <rdf:RDF xmlns:rdf="http://www.w3.org/1999/02/22-rdf-syntax-ns#">
      <rdf:Description rdf:about=""/>
   </rdf:RDF>
</x:xmpmeta>
                                                                                                    
                                                                                                    
                                                                                                    
                                                                                                    
                                                                                                    
                                                                                                    
                                                                                                    
                                                                                                    
                                                                                                    
                                                                                                    
                                                                                                    
                                                                                                    
                                                                                                    
                                                                                                    
                                                                                                    
                                                                                                    
                                                                                                    
                                                                                                    
                                                                                                    
                                                                                                    
                           
<?xpacket end="w"?></metadata>
<defs>
    <style>
      .cls-1 {
        fill: #494d50;
        fill-rule: evenodd;
      }
    </style>
  </defs>
  <path id="_5" data-name="5" class="cls-1" d="M3308,1531a12,12,0,1,1,12-12A12,12,0,0,1,3308,1531Zm2.28-15.06v-1.02h-4.46v4.62c0.6-.06,1.08-0.09,1.43-0.09a2.6,2.6,0,0,1,1.69.48,1.672,1.672,0,0,1,.59,1.36,1.8,1.8,0,0,1-.58,1.39,2.133,2.133,0,0,1-1.51.52,3.477,3.477,0,0,1-1.9-.59v1.17a3.865,3.865,0,0,0,1.91.37,3.333,3.333,0,0,0,2.38-.81,2.8,2.8,0,0,0,.86-2.13,2.591,2.591,0,0,0-.8-2.01,3.246,3.246,0,0,0-2.24-.73c-0.17,0-.43.01-0.77,0.03v-2.56h3.4Z" transform="translate(-3296 -1507)"/>
</svg>
