<svg xmlns="http://www.w3.org/2000/svg" width="24" height="24" viewBox="0 0 24 24">
  <metadata><?xpacket begin="﻿" id="W5M0MpCehiHzreSzNTczkc9d"?>
<x:xmpmeta xmlns:x="adobe:ns:meta/" x:xmptk="Adobe XMP Core 5.6-c138 79.159824, 2016/09/14-01:09:01        ">
   <rdf:RDF xmlns:rdf="http://www.w3.org/1999/02/22-rdf-syntax-ns#">
      <rdf:Description rdf:about=""/>
   </rdf:RDF>
</x:xmpmeta>
                                                                                                    
                                                                                                    
                                                                                                    
                                                                                                    
                                                                                                    
                                                                                                    
                                                                                                    
                                                                                                    
                                                                                                    
                                                                                                    
                                                                                                    
                                                                                                    
                                                                                                    
                                                                                                    
                                                                                                    
                                                                                                    
                                                                                                    
                                                                                                    
                                                                                                    
                                                                                                    
                           
<?xpacket end="w"?></metadata>
<defs>
    <style>
      .cls-1 {
        fill: #494d50;
        fill-rule: evenodd;
      }
    </style>
  </defs>
  <path id="_6" data-name="6" class="cls-1" d="M3308,1619a12,12,0,1,1,12-12A12,12,0,0,1,3308,1619Zm-0.91-14.25a2.213,2.213,0,0,1,1.89-1.02,3.2,3.2,0,0,1,1.48.36v-1.05a3.458,3.458,0,0,0-1.51-.27,3.214,3.214,0,0,0-2.73,1.42,6.376,6.376,0,0,0-1.03,3.81,5.1,5.1,0,0,0,.79,3.07,2.534,2.534,0,0,0,2.17,1.08,2.722,2.722,0,0,0,2.07-.85,3.055,3.055,0,0,0,.81-2.19,2.889,2.889,0,0,0-.7-2.04,2.442,2.442,0,0,0-1.88-.77,2.169,2.169,0,0,0-2.06,1.25h-0.03A4.894,4.894,0,0,1,3307.09,1604.75Zm1.08,2.5a1.539,1.539,0,0,1,1.25.53,2.468,2.468,0,0,1-.02,2.87,1.529,1.529,0,0,1-1.22.55,1.5,1.5,0,0,1-1.27-.64,2.451,2.451,0,0,1-.48-1.53,1.8,1.8,0,0,1,.48-1.25A1.63,1.63,0,0,1,3308.17,1607.25Z" transform="translate(-3296 -1595)"/>
</svg>
