<?xml version="1.0" encoding="utf-8"?>
<!-- Generator: Adobe Illustrator 21.0.0, SVG Export Plug-In . SVG Version: 6.00 Build 0)  -->
<svg version="1.1" id="图层_1" xmlns="http://www.w3.org/2000/svg" xmlns:xlink="http://www.w3.org/1999/xlink" x="0px" y="0px"
	 viewBox="0 0 16 16" style="enable-background:new 0 0 16 16;" xml:space="preserve">
<g>
	<path fill="#000000" d="M7.5,0C3.4,0,0,3.4,0,7.5S3.4,15,7.5,15S15,11.6,15,7.5S11.6,0,7.5,0z M7.5,14C3.9,14,1,11.1,1,7.5S3.9,1,7.5,1
		S14,3.9,14,7.5S11.1,14,7.5,14z"/>
	<circle cx="7.5" cy="4.5" r="0.5"/>
	<path d="M7.5,6C7.2,6,7,6.2,7,6.5v4C7,10.8,7.2,11,7.5,11S8,10.8,8,10.5v-4C8,6.2,7.8,6,7.5,6z"/>
</g>
</svg>
