<?xml version="1.0" encoding="utf-8"?>
<!-- Generator: Adobe Illustrator 21.0.0, SVG Export Plug-In . SVG Version: 6.00 Build 0)  -->
<svg version="1.1" id="图层_1" xmlns="http://www.w3.org/2000/svg" xmlns:xlink="http://www.w3.org/1999/xlink" x="0px" y="0px"
	 viewBox="0 0 16 16" style="enable-background:new 0 0 16 16;" xml:space="preserve">
<path fill="#000000" id="alarm" d="M14.5,16h-14C0.2,16,0,15.8,0,15.5S0.2,15,0.5,15h14c0.3,0,0.5,0.2,0.5,0.5S14.8,16,14.5,16z M2,8.5
	C2,5.5,4.5,3,7.5,3S13,5.5,13,8.5V14H2V8.5z M3,13h1V9h1v4h7V8.5C12,6,10,4,7.5,4S3,6,3,8.5l0,0V13z M11.2,2.4L12.6,1l0.7,0.7
	l-1.4,1.4L11.2,2.4z M7,0h1v2H7V0z M2.2,1.7L2.9,1l1.3,1.3L3.5,3L2.2,1.7z"/>
</svg>
