<svg id="图层_1" data-name="图层 1" xmlns="http://www.w3.org/2000/svg" viewBox="0 0 16 16"><title>angentsetting</title><path d="M2.76,16a1.43,1.43,0,0,1-1-.42L.42,14.25a1.44,1.44,0,0,1,0-2l5-5A3.31,3.31,0,0,1,5.72,3l2-2a3.31,3.31,0,0,1,4.68,0l.35.35L10.09,4,12,5.91l2.65-2.65.35.35A3.31,3.31,0,0,1,15,8.3l-2,2a3.38,3.38,0,0,1-4.3.33l-5,5A1.43,1.43,0,0,1,2.76,16ZM10,1a2.3,2.3,0,0,0-1.63.68l-2,2a2.31,2.31,0,0,0,0,3.27l.35.35L1.13,12.93a.44.44,0,0,0,0,.62l1.32,1.32a.44.44,0,0,0,.62,0L8.72,9.22l.35.35a2.36,2.36,0,0,0,3.27,0l2-2a2.31,2.31,0,0,0,.31-2.87L12,7.32,8.68,4l2.61-2.61A2.31,2.31,0,0,0,10,1Z"/></svg>