<?xml version="1.0" encoding="utf-8"?>
<!-- Generator: Adobe Illustrator 21.0.0, SVG Export Plug-In . SVG Version: 6.00 Build 0)  -->
<svg version="1.1" id="图层_1" xmlns="http://www.w3.org/2000/svg" xmlns:xlink="http://www.w3.org/1999/xlink" x="0px" y="0px"
	 viewBox="0 0 16 16" style="enable-background:new 0 0 16 16;" xml:space="preserve">
<path fill="#000000" d="M1.2,1.1C1.4,1,1.7,1,1.9,1.1l7,6.5c0.2,0.2,0.2,0.5,0,0.7l-7,6.5c-0.2,0.2-0.5,0.2-0.7,0s-0.2-0.5,0-0.7L7.7,8L1.2,2
	C1.1,1.9,1,1.6,1,1.6S1,1.4,1.2,1.1z"/>
<path d="M7.2,1.1C7.4,1,7.7,1,7.9,1.1l7,6.5c0.2,0.2,0.2,0.5,0,0.7l-7,6.5c-0.2,0.2-0.5,0.2-0.7,0s-0.2-0.5,0-0.7L13.7,8L7.2,2
	C7.1,1.9,7,1.6,7,1.6S7,1.4,7.2,1.1z"/>
</svg>
