<?xml version="1.0" encoding="utf-8"?>
<!-- Generator: Adobe Illustrator 21.0.0, SVG Export Plug-In . SVG Version: 6.00 Build 0)  -->
<svg version="1.1" id="图层_1" xmlns="http://www.w3.org/2000/svg" xmlns:xlink="http://www.w3.org/1999/xlink" x="0px" y="0px"
	 viewBox="0 0 16 16" style="enable-background:new 0 0 16 16;" xml:space="preserve">
<path fill="#000000" d="M15,1.5c0,0.1-0.1,0.3-0.2,0.4L8.3,8l6.5,6.1c0.2,0.2,0.2,0.5,0,0.7s-0.5,0.2-0.7,0l-7-6.5c-0.2-0.2-0.2-0.5,0-0.7l7-6.5
	c0.2-0.2,0.5-0.2,0.7,0C15,1.3,15,1.4,15,1.5z"/>
<path d="M9,1.5c0,0.1-0.1,0.3-0.2,0.4L2.3,8.1l6.5,6.1c0.2,0.2,0.2,0.5,0,0.7s-0.5,0.2-0.7,0l-7-6.5c-0.2-0.2-0.2-0.5,0-0.7l7-6.5
	C8.3,1,8.6,1,8.8,1.2C9,1.3,9,1.4,9,1.5z"/>
</svg>
