<?xml version="1.0" encoding="UTF-8"?>
<svg width="16px" height="16px" viewBox="0 0 16 16" version="1.1" xmlns="http://www.w3.org/2000/svg" xmlns:xlink="http://www.w3.org/1999/xlink">
    <!-- Generator: Sketch 47 (45396) - http://www.bohemiancoding.com/sketch -->
    <title>h-icon-app-offline</title>
    <desc>Created with Sketch.</desc>
    <defs></defs>
    <g id="icon" stroke="none" stroke-width="1" fill="none" fill-rule="evenodd">
        <g id="h-icon-app-offline" fill-rule="nonzero" fill="#000000">
            <path d="M4,7 C2.34314575,7 1,5.65685425 1,4 C1,2.34314575 2.34314575,1 4,1 C5.65685425,1 7,2.34314575 7,4 C7,5.65685425 5.65685425,7 4,7 Z M4,6 C5.1045695,6 6,5.1045695 6,4 C6,2.8954305 5.1045695,2 4,2 C2.8954305,2 2,2.8954305 2,4 C2,5.1045695 2.8954305,6 4,6 Z" id="Oval"></path>
            <path d="M10,2 L10,6 L14,6 L14,2 L10,2 Z M10,1 L14,1 C14.5522847,1 15,1.44771525 15,2 L15,6 C15,6.55228475 14.5522847,7 14,7 L10,7 C9.44771525,7 9,6.55228475 9,6 L9,2 C9,1.44771525 9.44771525,1 10,1 Z" id="Rectangle"></path>
            <path d="M2,10 L2,14 L6,14 L6,10 L2,10 Z M2,9 L6,9 C6.55228475,9 7,9.44771525 7,10 L7,14 C7,14.5522847 6.55228475,15 6,15 L2,15 C1.44771525,15 1,14.5522847 1,14 L1,10 C1,9.44771525 1.44771525,9 2,9 Z" id="Rectangle"></path>
            <path d="M9.14644661,9.85355339 L14.1464466,14.8535534 C14.3417088,15.0488155 14.6582912,15.0488155 14.8535534,14.8535534 C15.0488155,14.6582912 15.0488155,14.3417088 14.8535534,14.1464466 L9.85355339,9.14644661 C9.65829124,8.95118446 9.34170876,8.95118446 9.14644661,9.14644661 C8.95118446,9.34170876 8.95118446,9.65829124 9.14644661,9.85355339 Z" id="Line"></path>
            <path d="M14.1464466,9.14644661 L9.14644661,14.1464466 C8.95118446,14.3417088 8.95118446,14.6582912 9.14644661,14.8535534 C9.34170876,15.0488155 9.65829124,15.0488155 9.85355339,14.8535534 L14.8535534,9.85355339 C15.0488155,9.65829124 15.0488155,9.34170876 14.8535534,9.14644661 C14.6582912,8.95118446 14.3417088,8.95118446 14.1464466,9.14644661 Z" id="Line-2"></path>
        </g>
    </g>
</svg>