<?xml version="1.0" encoding="utf-8"?>
<!-- Generator: Adobe Illustrator 17.0.0, SVG Export Plug-In . SVG Version: 6.00 Build 0)  -->
<!DOCTYPE svg PUBLIC "-//W3C//DTD SVG 1.1//EN" "http://www.w3.org/Graphics/SVG/1.1/DTD/svg11.dtd">
<svg version="1.1" id="图层_1" xmlns="http://www.w3.org/2000/svg" xmlns:xlink="http://www.w3.org/1999/xlink" x="0px" y="0px"
	 width="16px" height="16px" viewBox="69.5 48.5 16 16" enable-background="new 69.5 48.5 16 16" xml:space="preserve">
<g>
	<path d="M70.5,63.438h6v-6h-6V63.438z M71.5,58.438h4v4h-4V58.438z"/>
	<path d="M73.5,49.438c-1.657,0-3,1.343-3,3s1.343,3,3,3s3-1.343,3-3S75.157,49.438,73.5,49.438z M73.5,54.438c-1.104,0-2-0.895-2-2
		s0.896-2,2-2s2,0.895,2,2S74.604,54.438,73.5,54.438z"/>
	<path d="M78.5,49.438v6h6v-6H78.5z M83.5,54.438h-4v-4h4V54.438z"/>
	<path d="M81.5,57.438c-1.657,0-3,1.343-3,3c0,1.657,1.343,3,3,3s3-1.343,3-3S83.157,57.438,81.5,57.438z M81.5,62.438
		c-1.104,0-2-0.895-2-2s0.896-2,2-2c1.104,0,2,0.895,2,2S82.604,62.438,81.5,62.438z"/>
</g>
</svg>
