<?xml version="1.0" encoding="utf-8"?>
<!-- Generator: Adobe Illustrator 17.0.0, SVG Export Plug-In . SVG Version: 6.00 Build 0)  -->
<!DOCTYPE svg PUBLIC "-//W3C//DTD SVG 1.1//EN" "http://www.w3.org/Graphics/SVG/1.1/DTD/svg11.dtd">
<svg version="1.1" id="图层_1" xmlns="http://www.w3.org/2000/svg" xmlns:xlink="http://www.w3.org/1999/xlink" x="0px" y="0px"
	 width="16px" height="16px" viewBox="519.5 27.5 16 16" enable-background="new 519.5 27.5 16 16" xml:space="preserve">
<g>
	<path d="M519.5,41.5h6v-6h-6V41.5z M520.5,36.5h4v4h-4V36.5z"/>
	<path d="M522.5,27.5c-1.657,0-3,1.343-3,3c0,1.657,1.343,3,3,3s3-1.343,3-3C525.5,28.843,524.157,27.5,522.5,27.5z M522.5,32.5
		c-1.104,0-2-0.895-2-2s0.896-2,2-2s2,0.895,2,2S523.604,32.5,522.5,32.5z"/>
	<path d="M530.5,35.5c-1.657,0-3,1.343-3,3s1.343,3,3,3s3-1.343,3-3S532.157,35.5,530.5,35.5z M530.5,40.5c-1.104,0-2-0.895-2-2
		s0.896-2,2-2s2,0.895,2,2S531.604,40.5,530.5,40.5z"/>
	<polygon points="533.5,31.379 532.793,30.672 531.5,31.964 531.5,27.5 530.5,27.5 530.5,31.964 529.207,30.672 528.5,31.379 
		530.5,33.5 531.5,33.5 	"/>
</g>
</svg>
