<?xml version="1.0" encoding="utf-8"?>
<!-- Generator: Adobe Illustrator 17.0.0, SVG Export Plug-In . SVG Version: 6.00 Build 0)  -->
<!DOCTYPE svg PUBLIC "-//W3C//DTD SVG 1.1//EN" "http://www.w3.org/Graphics/SVG/1.1/DTD/svg11.dtd">
<svg version="1.1" id="图层_1" xmlns="http://www.w3.org/2000/svg" xmlns:xlink="http://www.w3.org/1999/xlink" x="0px" y="0px"
	 width="16px" height="16px" viewBox="483.5 27.5 16 16" enable-background="new 483.5 27.5 16 16" xml:space="preserve">
<g>
	<path d="M483.5,41.5h6v-6h-6V41.5z M484.5,36.5h4v4h-4V36.5z"/>
	<path d="M486.5,27.5c-1.657,0-3,1.343-3,3c0,1.657,1.343,3,3,3s3-1.343,3-3C489.5,28.843,488.157,27.5,486.5,27.5z M486.5,32.5
		c-1.104,0-2-0.895-2-2s0.896-2,2-2s2,0.895,2,2S487.604,32.5,486.5,32.5z"/>
	<path d="M491.5,27.5v6h6v-6H491.5z M496.5,32.5h-4v-4h4V32.5z"/>
	<rect x="491.5" y="38.5" width="7" height="1"/>
	<rect x="494.5" y="35.5" width="1" height="7"/>
</g>
</svg>
