<?xml version="1.0" encoding="utf-8"?>
<!-- Generator: Adobe Illustrator 21.0.0, SVG Export Plug-In . SVG Version: 6.00 Build 0)  -->
<svg version="1.1" id="图层_1" xmlns="http://www.w3.org/2000/svg" xmlns:xlink="http://www.w3.org/1999/xlink" x="0px" y="0px"
	 viewBox="0 0 16 16" style="enable-background:new 0 0 16 16;" xml:space="preserve">
<path fill="#000000" id="ic" d="M15,6V5H3v9h3v1H3c-0.6,0-1-0.4-1-1v-2H1c-0.6,0-1-0.4-1-1V2c0-0.6,0.4-1,1-1h13c0.6,0,1,0.4,1,1v2c0.6,0,1,0.4,1,1
	v1H15z M14,2H1v9h1V5c0-0.6,0.4-1,1-1h11V2z M8.7,9.4L8,8.7L8.7,8l0.7,0.7c0.5-0.4,1-0.6,1.6-0.7V7h1v1.1c0.6,0.1,1.1,0.3,1.6,0.7
	L14.3,8L15,8.7l-0.7,0.7c0.4,0.5,0.6,1,0.7,1.6H16v1h-1.1c-0.1,0.6-0.3,1.1-0.7,1.6l0.7,0.7L14.3,15l-0.7-0.7
	c-0.5,0.4-1,0.6-1.6,0.7V16h-1v-1.1c-0.6-0.1-1.1-0.3-1.6-0.7L8.7,15L8,14.3l0.7-0.7c-0.4-0.5-0.6-1-0.7-1.6H7v-1h1.1
	C8.1,10.4,8.4,9.9,8.7,9.4z M11.5,14c1.4,0,2.5-1.1,2.5-2.5S12.9,9,11.5,9S9,10.1,9,11.5S10.1,14,11.5,14z"/>
</svg>
