<?xml version="1.0" encoding="utf-8"?>
<!-- Generator: Adobe Illustrator 21.0.0, SVG Export Plug-In . SVG Version: 6.00 Build 0)  -->
<svg version="1.1" id="图层_1" xmlns="http://www.w3.org/2000/svg" xmlns:xlink="http://www.w3.org/1999/xlink" x="0px" y="0px"
	 viewBox="0 0 16 16" style="enable-background:new 0 0 16 16;" xml:space="preserve">
<path fill="#000000" id="ic" d="M15,15H3c-0.6,0-1-0.4-1-1v-2H1c-0.6,0-1-0.4-1-1V2c0-0.6,0.4-1,1-1h13c0.6,0,1,0.4,1,1v2c0.6,0,1,0.4,1,1v9
	C16,14.6,15.6,15,15,15z M14,2H1v9h1V5c0-0.6,0.4-1,1-1h11V2z M15,5H3v2h12V5z M15,8H3v6h12V8z M10,12H5v-1h5V12z"/>
</svg>
