<?xml version="1.0" encoding="utf-8"?>
<!-- Generator: Adobe Illustrator 21.0.0, SVG Export Plug-In . SVG Version: 6.00 Build 0)  -->
<svg version="1.1" id="图层_1" xmlns="http://www.w3.org/2000/svg" xmlns:xlink="http://www.w3.org/1999/xlink" x="0px" y="0px"
	 viewBox="0 0 16 16" style="enable-background:new 0 0 16 16;" xml:space="preserve">
<path fill="#000000" d="M14,10V6.5c0-2.3-1.7-4.2-4-4.9C10,0.6,9.1,0,8,0C7,0,6.1,0.5,6,1.6l0,0C4.4,1.8,2,4.2,2,6.5V10c-1,0-2,0.9-2,2s0.9,2,2,2
	h3.1c0.4,1,1.4,2,2.8,2c1.5,0,2.4-1,2.8-2H14c1.1,0,2-0.9,2-2S15,10,14,10z M8,15.2c-0.6,0-1.4-0.3-1.7-1.1h3.4
	C9.4,14.9,8.6,15.2,8,15.2z M14,13.1h-3h-1H6H5H2c-0.6,0-1-0.4-1-1s0.4-1,1-1h1V10V6.5c0-1.7,1.4-3.4,3.3-4L7,2.3V1.6
	c0-0.4,0.5-0.7,1-0.7s1,0.3,1,0.7v0.7l0.7,0.2c2,0.6,3.3,2.2,3.3,3.9v3.4v1.2h1c0.6,0,1,0.4,1,1C15,12.6,14.5,13.1,14,13.1z"/>
</svg>
