<?xml version="1.0" encoding="utf-8"?>
<!-- Generator: Adobe Illustrator 21.0.0, SVG Export Plug-In . SVG Version: 6.00 Build 0)  -->
<svg version="1.1" id="图层_1" xmlns="http://www.w3.org/2000/svg" xmlns:xlink="http://www.w3.org/1999/xlink" x="0px" y="0px"
	 viewBox="0 0 16 16" style="enable-background:new 0 0 16 16;" xml:space="preserve">
<path fill="#000000" d="M14,2h-2V1.5C12,1.2,11.8,1,11.5,1S11,1.2,11,1.5V2H5V1.5C5,1.2,4.8,1,4.5,1S4,1.2,4,1.5V2H2C1.4,2,1,2.4,1,3v3v1v7
	c0,0.6,0.4,1,1,1h12c0.6,0,1-0.4,1-1V7V6V3C15,2.4,14.6,2,14,2z M14,14H2V7h12V14z M2,6V3h2v0.5C4,3.8,4.2,4,4.5,4S5,3.8,5,3.5V3h6
	v0.5C11,3.8,11.2,4,11.5,4S12,3.8,12,3.5V3h2v3H2z"/>
</svg>
