<?xml version="1.0" encoding="UTF-8"?>
<svg width="24px" height="24px" viewBox="0 0 24 24" version="1.1" xmlns="http://www.w3.org/2000/svg" xmlns:xlink="http://www.w3.org/1999/xlink">
    <!-- Generator: Sketch 50.2 (55047) - http://www.bohemiancoding.com/sketch -->
    <title>path-1_1_</title>
    <desc>Created with Sketch.</desc>
    <defs></defs>
    <g id="Page-1" stroke="none" stroke-width="1" fill="none" fill-rule="evenodd">
        <g id="center-icon-card_close" fill="#000000" fill-rule="nonzero">
            <path d="M0,0 L24,0 L24,24 L0,0 Z M15.6641791,7.5 L13.1567164,10.1119403 C12.9477612,10.3208955 12.9477612,10.6343284 13.1567164,10.8432836 C13.3656716,11.0522388 13.6791045,11.0522388 13.8880597,10.8432836 L16.5,8.23134328 L19.1119403,10.8432836 C19.3208955,11.0522388 19.6343284,11.0522388 19.8432836,10.8432836 C20.0522388,10.6343284 20.0522388,10.3208955 19.8432836,10.1119403 L17.2313433,7.5 L19.8432836,4.8880597 C20.0522388,4.67910448 20.0522388,4.36567164 19.8432836,4.15671642 C19.6343284,3.94776119 19.3208955,3.94776119 19.1119403,4.15671642 L16.5,6.76865672 L13.8880597,4.15671642 C13.6791045,3.94776119 13.3656716,3.94776119 13.1567164,4.15671642 C12.9477612,4.36567164 12.9477612,4.67910448 13.1567164,4.8880597 L15.6641791,7.5 Z" id="path-1_1_"></path>
        </g>
    </g>
</svg>