<?xml version="1.0" encoding="utf-8"?>
<!-- Generator: Adobe Illustrator 21.0.0, SVG Export Plug-In . SVG Version: 6.00 Build 0)  -->
<svg version="1.1" xmlns="http://www.w3.org/2000/svg" xmlns:xlink="http://www.w3.org/1999/xlink" x="0px" y="0px"
	 viewBox="0 0 16 16" enable-background="new 0 0 16 16" xml:space="preserve">
<g id="背景">
</g>
<g id="名称">
</g>
<g id="图标">
	<path fill="#040000" d="M14.936,12.338c0.009-0.055,0.029-0.103,0.035-0.16C14.954,12.271,14.935,12.364,14.936,12.338z M10,4H4v1
		h6V4z M14.993,12.065C14.982,12.154,14.986,12.12,14.993,12.065C14.997,12.044,15,12.026,15,12.027V12
		c-0.003,0.063-0.022,0.117-0.029,0.178C14.98,12.132,14.987,12.093,14.993,12.065z M10,6H4v1h6V6z M15,11.483V12
		c-0.282,1.764-2.177,3-3.094,3H4c-1.47,0-3-1.159-3-2.507V12V0.5C1,0.224,1.224,0,1.5,0h11C12.776,0,13,0.224,13,0.5V11h1h0.516
		C15.003,11,15,11.483,15,11.483z M5.759,11H6h0.922H7h5V1H2v11v0.493c0,0.792,0.989,1.486,1.9,1.486
		c0.836,0,1.353-0.721,1.353-1.573l0.006-0.911C5.262,11.221,5.484,11,5.759,11z M14.063,12H14H7H6.922H6.256l-0.003,0.406
		c0,0.605-0.216,1.154-0.562,1.594H12C13,14,14.063,13,14.063,12z M8,8H4v1h4V8z"/>
</g>
</svg>
