<?xml version="1.0" encoding="utf-8"?>
<!-- Generator: Adobe Illustrator 17.0.0, SVG Export Plug-In . SVG Version: 6.00 Build 0)  -->
<!DOCTYPE svg PUBLIC "-//W3C//DTD SVG 1.1//EN" "http://www.w3.org/Graphics/SVG/1.1/DTD/svg11.dtd">
<svg version="1.1" id="图层_1" xmlns="http://www.w3.org/2000/svg" xmlns:xlink="http://www.w3.org/1999/xlink" x="0px" y="0px"
	 width="16px" height="16px" viewBox="167.5 -112.5 16 16" enable-background="new 167.5 -112.5 16 16" xml:space="preserve">
<g id="图标_1_">
	<path d="M172.525-101.5H170.5v-1h2.19C172.603-102.177,172.55-101.844,172.525-101.5z M174.784-105.5H170.5v1h3.226
		C174.036-104.876,174.383-105.22,174.784-105.5z M168.5-111.5v14h5.428c0.37,0.398,0.8,0.729,1.275,1H168.5c-0.552,0-1-0.448-1-1
		v-14c0-0.552,0.448-1,1-1h11c0.552,0,1,0.448,1,1v5.78c-0.315-0.184-0.649-0.332-1-0.449v-5.331H168.5z M171.5-111.5h-1
		 M181.815-97.182l-2.002-1.536c-0.672,0.575-1.532,0.936-2.484,0.936c-2.118,0-3.842-1.724-3.842-3.842
		c0-2.117,1.724-3.84,3.842-3.84c2.118,0,3.841,1.723,3.841,3.84c0,0.804-0.25,1.55-0.675,2.168l1.93,1.48L181.815-97.182z
		 M180.17-101.623c0-1.566-1.274-2.84-2.841-2.84s-2.842,1.274-2.842,2.84c0,1.567,1.274,2.842,2.842,2.842
		C178.896-98.781,180.17-100.056,180.17-101.623z"/>
</g>
<rect x="170.5" y="-108.5" width="7" height="1"/>
</svg>
