<?xml version="1.0" encoding="utf-8"?>
<!-- Generator: Adobe Illustrator 21.0.0, SVG Export Plug-In . SVG Version: 6.00 Build 0)  -->
<svg version="1.1" id="图层_1" xmlns="http://www.w3.org/2000/svg" xmlns:xlink="http://www.w3.org/1999/xlink" x="0px" y="0px"
	 viewBox="0 0 16 16" style="enable-background:new 0 0 16 16;" xml:space="preserve">
<path fill="#000000" d="M13.8,13.1c0.2,0.2,0.2,0.5,0,0.7s-0.5,0.2-0.7,0L8,8.7l-5.1,5.1c-0.2,0.2-0.5,0.2-0.7,0s-0.2-0.5,0-0.7L7.3,8L2.2,2.9
	C2,2.7,2,2.4,2.2,2.2s0.5-0.2,0.7,0L8,7.3l5.1-5.1c0.2-0.2,0.5-0.2,0.7,0s0.2,0.5,0,0.7L8.7,8L13.8,13.1z"/>
</svg>
