<?xml version="1.0" encoding="utf-8"?>
<!-- Generator: Adobe Illustrator 21.0.0, SVG Export Plug-In . SVG Version: 6.00 Build 0)  -->
<svg version="1.1" id="图层_1" xmlns="http://www.w3.org/2000/svg" xmlns:xlink="http://www.w3.org/1999/xlink" x="0px" y="0px"
	 viewBox="0 0 16 16" style="enable-background:new 0 0 16 16;" xml:space="preserve">
<path fill="#000000" d="M7.5,0C3.4,0,0,3.4,0,7.5S3.4,15,7.5,15S15,11.6,15,7.5S11.6,0,7.5,0z M10.9,10.1c0.2,0.2,0.2,0.5,0,0.7
	C10.8,11,10.6,11,10.5,11s-0.3,0-0.4-0.1L7.5,8.3l-2.6,2.6C4.8,11,4.6,11,4.5,11s-0.3,0-0.4-0.1c-0.2-0.2-0.2-0.5,0-0.7l2.6-2.6
	L4.1,4.9C4,4.7,4,4.3,4.1,4.1C4.3,4,4.7,4,4.9,4.1l2.6,2.6l2.6-2.6c0.2-0.2,0.5-0.2,0.7,0s0.2,0.5,0,0.7L8.2,7.4L10.9,10.1z"/>
</svg>
