<?xml version="1.0" encoding="utf-8"?>
<!-- Generator: Adobe Illustrator 21.0.0, SVG Export Plug-In . SVG Version: 6.00 Build 0)  -->
<svg version="1.1" id="图层_1" xmlns="http://www.w3.org/2000/svg" xmlns:xlink="http://www.w3.org/1999/xlink" x="0px" y="0px"
	 viewBox="0 0 16 16" style="enable-background:new 0 0 16 16;" xml:space="preserve">
<g>
	<path fill="#000000" d="M12.8,2.2C11.3,0.7,9.4,0,7.5,0S3.7,0.7,2.2,2.2c-2.9,2.9-2.9,7.7,0,10.6C3.7,14.3,5.6,15,7.5,15s3.8-0.7,5.3-2.2
		C15.7,9.9,15.7,5.1,12.8,2.2z M12.1,12.1C10.9,13.3,9.2,14,7.5,14s-3.4-0.7-4.6-1.9C1.7,10.9,1,9.2,1,7.5s0.7-3.4,1.9-4.6
		S5.8,1,7.5,1s3.4,0.7,4.6,1.9C14.6,5.4,14.6,9.6,12.1,12.1z"/>
	<path d="M10.3,4.7c-0.2-0.2-0.5-0.2-0.7,0L7.5,6.8L5.4,4.7c-0.2-0.2-0.5-0.2-0.7,0s-0.2,0.5,0,0.7l2.1,2.1L4.7,9.6
		c-0.2,0.2-0.2,0.5,0,0.7c0.1,0.1,0.2,0.1,0.4,0.1s0.3,0,0.4-0.1l2.1-2.1l2.1,2.1c0.1,0.1,0.2,0.1,0.4,0.1s0.3,0,0.4-0.1
		c0.2-0.2,0.2-0.5,0-0.7L8.4,7.5l2.1-2.1C10.5,5.2,10.5,4.9,10.3,4.7z"/>
</g>
</svg>
