<?xml version="1.0" encoding="iso-8859-1"?>
<!-- Generator: Adobe Illustrator 21.0.0, SVG Export Plug-In . SVG Version: 6.00 Build 0)  -->
<svg version="1.1" id="&#x56FE;&#x5C42;_1" xmlns="http://www.w3.org/2000/svg" xmlns:xlink="http://www.w3.org/1999/xlink" x="0px"
	 y="0px" viewBox="0 0 40 40" style="enable-background:new 0 0 40 40;" xml:space="preserve">
<g>
	<circle style="fill:#0CE084;" cx="20" cy="20" r="20"/>
</g>
<g>
	<path style="fill:#0D7246;" d="M31.607,13.879L18.879,26.607c-0.389,0.389-1.025,0.389-1.414,0l0,0
		c-0.389-0.389-0.389-1.025,0-1.414l12.728-12.728c0.389-0.389,1.025-0.389,1.414,0v0C31.996,12.853,31.996,13.49,31.607,13.879z"/>
	<path style="fill:#0D7246;" d="M18.879,26.607L18.879,26.607c-0.389,0.389-1.025,0.389-1.414,0l-7.071-7.071
		c-0.389-0.389-0.389-1.025,0-1.414l0,0c0.389-0.389,1.025-0.389,1.414,0l7.071,7.071C19.268,25.581,19.268,26.218,18.879,26.607z"
		/>
</g>
</svg>
