<?xml version="1.0" encoding="iso-8859-1"?>
<!-- Generator: Adobe Illustrator 21.0.0, SVG Export Plug-In . SVG Version: 6.00 Build 0)  -->
<svg version="1.1" id="&#x56FE;&#x5C42;_1" xmlns="http://www.w3.org/2000/svg" xmlns:xlink="http://www.w3.org/1999/xlink" x="0px"
	 y="0px" viewBox="0 0 40 40" style="enable-background:new 0 0 40 40;" xml:space="preserve">
<path style="fill:#E94E4C;" d="M20,0c11.046,0,20,8.954,20,20s-8.954,20-20,20S0,31.046,0,20S8.954,0,20,0z"/>
<g>
	<path style="fill:#872F2F;" d="M27.778,27.778L27.778,27.778c-0.389,0.389-1.025,0.389-1.414,0L12.222,13.636
		c-0.389-0.389-0.389-1.025,0-1.414l0,0c0.389-0.389,1.025-0.389,1.414,0l14.142,14.142C28.167,26.753,28.167,27.389,27.778,27.778z
		"/>
	<path style="fill:#872F2F;" d="M27.778,12.222L27.778,12.222c0.389,0.389,0.389,1.025,0,1.414L13.636,27.778
		c-0.389,0.389-1.025,0.389-1.414,0l0,0c-0.389-0.389-0.389-1.025,0-1.414l14.142-14.142C26.753,11.833,27.389,11.833,27.778,12.222
		z"/>
</g>
</svg>
