<?xml version="1.0" encoding="utf-8"?>
<!-- Generator: Adobe Illustrator 17.0.0, SVG Export Plug-In . SVG Version: 6.00 Build 0)  -->
<!DOCTYPE svg PUBLIC "-//W3C//DTD SVG 1.1//EN" "http://www.w3.org/Graphics/SVG/1.1/DTD/svg11.dtd">
<svg version="1.1" id="图层_1" xmlns="http://www.w3.org/2000/svg" xmlns:xlink="http://www.w3.org/1999/xlink" x="0px" y="0px"
	 width="24px" height="24px" viewBox="-7.5 0.5 24 24" enable-background="new -7.5 0.5 24 24" xml:space="preserve">
<path id="computer" d="M12.5,15.5v1h-1.051c-0.083,0.586-0.315,1.14-0.674,1.61l0.723,0.72l-0.666,0.67l-0.722-0.72
	c-0.472,0.355-1.026,0.586-1.61,0.67v1.05h-1v-1.05c-0.585-0.084-1.139-0.315-1.611-0.67L5.167,19.5l-0.666-0.67l0.723-0.72
	c-0.359-0.47-0.591-1.025-0.674-1.61H3.5v-1h1.05c0.083-0.585,0.315-1.14,0.674-1.61l-0.723-0.72l0.666-0.67l0.722,0.72
	c0.472-0.355,1.026-0.586,1.611-0.67V11.5h1v1.05c0.584,0.084,1.138,0.315,1.61,0.67l0.722-0.72l0.666,0.67l-0.723,0.72
	c0.359,0.47,0.591,1.024,0.674,1.61H12.5L12.5,15.5z M8,13.5c-1.381,0-2.5,1.119-2.5,2.5s1.119,2.5,2.5,2.5s2.5-1.119,2.5-2.5
	S9.381,13.5,8,13.5z M-1.5,10.5v7h4v1h-4v1h4v1h-4c-0.552,0-1-0.448-1-1v-14c0-0.552,0.448-1,1-1h10c0.552,0,1,0.448,1,1v5H-1.5z
	 M8.5,5.5h-10v2h10V5.5z M8.5,8.5h-10v1h10V8.5z"/>
</svg>
