<?xml version="1.0" encoding="utf-8"?>
<!-- Generator: Adobe Illustrator 21.0.0, SVG Export Plug-In . SVG Version: 6.00 Build 0)  -->
<svg version="1.1" id="图层_1" xmlns="http://www.w3.org/2000/svg" xmlns:xlink="http://www.w3.org/1999/xlink" x="0px" y="0px"
	 viewBox="0 0 16 16" style="enable-background:new 0 0 16 16;" xml:space="preserve">
<g>
	<rect x="5" y="10" width="8" height="1"/>
	<rect x="5" y="8" width="8" height="1"/>
	<rect x="5" y="6" width="4" height="1"/>
	<path fill="#000000" d="M14.7,3.4l-3.4-3.1C11.1,0.1,10.9,0,10.6,0H4C3.4,0,3,0.4,3,1v2H2C1.4,3,1,3.4,1,4v11c0,0.6,0.4,1,1,1h10c0.6,0,1-0.4,1-1
		v-1h1c0.6,0,1-0.4,1-1V4.1C15,3.9,14.9,3.6,14.7,3.4z M11,1.3L13.8,4H11V1.3z M12,15H2V4h1v9c0,0.6,0.4,1,1,1h8V15z M14,13H4V1h6
		v3.5C10,4.8,10.2,5,10.5,5H14V13z"/>
</g>
</svg>
