<?xml version="1.0" encoding="utf-8"?>
<!-- Generator: Adobe Illustrator 21.0.0, SVG Export Plug-In . SVG Version: 6.00 Build 0)  -->
<svg version="1.1" id="图层_1" xmlns="http://www.w3.org/2000/svg" xmlns:xlink="http://www.w3.org/1999/xlink" x="0px" y="0px"
	 viewBox="0 0 16 16" style="enable-background:new 0 0 16 16;" xml:space="preserve">
<path fill="#000000" d="M15.5,12H13V4c0-0.6-0.4-1-1-1H4V0.5C4,0.2,3.8,0,3.5,0S3,0.2,3,0.5V3H0.5C0.2,3,0,3.2,0,3.5S0.2,4,0.5,4H3v8
	c0,0.6,0.4,1,1,1h8v2.5c0,0.3,0.2,0.5,0.5,0.5s0.5-0.2,0.5-0.5V13h2.5c0.3,0,0.5-0.2,0.5-0.5S15.8,12,15.5,12z M4,4h8v8H4V4z"/>
</svg>
