<?xml version="1.0" encoding="utf-8"?>
<!-- Generator: Adobe Illustrator 17.0.0, SVG Export Plug-In . SVG Version: 6.00 Build 0)  -->
<!DOCTYPE svg PUBLIC "-//W3C//DTD SVG 1.1//EN" "http://www.w3.org/Graphics/SVG/1.1/DTD/svg11.dtd">
<svg version="1.1" id="图层_1" xmlns="http://www.w3.org/2000/svg" xmlns:xlink="http://www.w3.org/1999/xlink" x="0px" y="0px"
	 width="24px" height="24px" viewBox="-4 -3.5 24 24" enable-background="new -4 -3.5 24 24" xml:space="preserve">
<path id="data_anylize" d="M15,12.5v-1h2v1H15z M14,9.833L15.332,8.5L16,9.167L14.666,10.5L14,9.833z M13,1.5H3v14h4v1H3
	c-0.552,0-1-0.448-1-1v-14c0-0.552,0.448-1,1-1h10c0.552,0,1,0.448,1,1v5h-1V1.5z M4,12.5h3v1H4V12.5z M10,12.5H8v-1h2V12.5z
	 M11,14.167L9.667,15.5L9,14.832l1.332-1.332L11,14.167z M10.332,10.5L9,9.167l0.666-0.666L11,9.832L10.332,10.5z M4,10.5v-1h3v1H4z
	 M4,6.5h7v1H4V6.5z M4,3.5h8v1H4V3.5z M13,9.5h-1v-2h1V9.5z M13,16.5h-1v-2h1V16.5z M16,14.832l-0.665,0.666L14,14.166l0.665-0.665
	L16,14.832z"/>
</svg>
