<?xml version="1.0" encoding="utf-8"?>
<!-- Generator: Adobe Illustrator 21.0.0, SVG Export Plug-In . SVG Version: 6.00 Build 0)  -->
<svg version="1.1" id="图层_1" xmlns="http://www.w3.org/2000/svg" xmlns:xlink="http://www.w3.org/1999/xlink" x="0px" y="0px"
	 viewBox="0 0 16 16" style="enable-background:new 0 0 16 16;" xml:space="preserve">
<path fill="#000000" d="M15,11l-5,5c0,0-0.4,0-0.5,0H2c-0.6,0-1-0.4-1-1V1c0-0.6,0.4-1,1-1h12c0.6,0,1,0.4,1,1v9.5C15,10.8,15,11,15,11z M10,14.6
	l3.6-3.6H10V14.6z M14,1H2v14h7v-4.5C9,10.2,9.2,10,9.5,10H14V1z M3,6.5C3,6.2,3.2,6,3.5,6h9C12.8,6,13,6.2,13,6.5S12.8,7,12.5,7h-9
	C3.2,7,3,6.8,3,6.5z M12.5,4h-9C3.2,4,3,3.8,3,3.5S3.2,3,3.5,3h9C12.8,3,13,3.2,13,3.5S12.8,4,12.5,4z M3.5,9h3C6.8,9,7,9.2,7,9.5
	S6.8,10,6.5,10h-3C3.2,10,3,9.8,3,9.5S3.2,9,3.5,9z M3.5,12h3C6.8,12,7,12.2,7,12.5S6.8,13,6.5,13h-3C3.2,13,3,12.8,3,12.5
	S3.2,12,3.5,12z"/>
</svg>
