<?xml version="1.0" encoding="utf-8"?>
<!-- Generator: Adobe Illustrator 17.0.0, SVG Export Plug-In . SVG Version: 6.00 Build 0)  -->
<!DOCTYPE svg PUBLIC "-//W3C//DTD SVG 1.1//EN" "http://www.w3.org/Graphics/SVG/1.1/DTD/svg11.dtd">
<svg version="1.1" id="图层_1" xmlns="http://www.w3.org/2000/svg" xmlns:xlink="http://www.w3.org/1999/xlink" x="0px" y="0px"
	 width="16px" height="16px" viewBox="27.5 48.5 16 16" enable-background="new 27.5 48.5 16 16" xml:space="preserve">
<g>
	<path d="M39.48,53.646L34,58.71l-2.646-2.646c-0.195-0.195-0.512-0.195-0.707,0s-0.195,0.512,0,0.707l3,3
		c0.098,0.098,0.226,0.146,0.354,0.146s0.256-0.049,0.354-0.146l5.833-5.417c0.195-0.195,0.195-0.512,0-0.707
		S39.675,53.451,39.48,53.646z"/>
	<path d="M35.5,48.5c-4.418,0-8,3.582-8,8s3.582,8,8,8s8-3.582,8-8S39.918,48.5,35.5,48.5z M35.5,63.5c-3.866,0-7-3.134-7-7
		s3.134-7,7-7s7,3.134,7,7S39.366,63.5,35.5,63.5z"/>
</g>
</svg>
