<?xml version="1.0" encoding="utf-8"?>
<!-- Generator: Adobe Illustrator 21.0.0, SVG Export Plug-In . SVG Version: 6.00 Build 0)  -->
<svg version="1.1" id="图层_1" xmlns="http://www.w3.org/2000/svg" xmlns:xlink="http://www.w3.org/1999/xlink" x="0px" y="0px"
	 viewBox="0 0 16 16" style="enable-background:new 0 0 16 16;" xml:space="preserve">
<style type="text/css">
	.st0{fill:#040000;}
</style>
<g>
	<path class="st0" d="M14.5,9C14.2,9,14,9.2,14,9.5V14H1V9.5C1,9.2,0.8,9,0.5,9S0,9.2,0,9.5v5C0,14.8,0.2,15,0.5,15h14
		c0.3,0,0.5-0.2,0.5-0.5v-5C15,9.2,14.8,9,14.5,9z"/>
	<path class="st0" d="M7.1,11.9C7.1,11.9,7.1,11.9,7.1,11.9c0,0,0.1,0.1,0.1,0.1c0,0,0,0,0,0c0.1,0,0.1,0,0.2,0l0,0l0,0
		c0.1,0,0.1,0,0.2,0c0,0,0,0,0,0c0,0,0.1,0,0.1-0.1c0,0,0,0,0,0l3.5-3.5c0.2-0.2,0.2-0.5,0-0.7s-0.5-0.2-0.7,0L8,10.3V1.5
		C8,1.2,7.8,1,7.5,1S7,1.2,7,1.5v8.8L4.3,7.6c-0.2-0.2-0.5-0.2-0.7,0s-0.2,0.5,0,0.7L7.1,11.9z"/>
</g>
</svg>
