<?xml version="1.0" encoding="UTF-8"?>
<svg width="16px" height="16px" viewBox="0 0 16 16" version="1.1" xmlns="http://www.w3.org/2000/svg" xmlns:xlink="http://www.w3.org/1999/xlink">
    <!-- Generator: Sketch 49.2 (51160) - http://www.bohemiancoding.com/sketch -->
    <title>h-icon-drag</title>
    <desc>Created with Sketch.</desc>
    <defs></defs>
    <g id="h-icon-drag" stroke="none" stroke-width="1" fill="none" fill-rule="evenodd">
        <path d="M7,1.70710678 L5.85355339,2.85355339 C5.65829124,3.04881554 5.34170876,3.04881554 5.14644661,2.85355339 C4.95118446,2.65829124 4.95118446,2.34170876 5.14644661,2.14644661 L7.14644661,0.146446609 C7.34170876,-0.0488155365 7.65829124,-0.0488155365 7.85355339,0.146446609 L9.85355339,2.14644661 C10.0488155,2.34170876 10.0488155,2.65829124 9.85355339,2.85355339 C9.65829124,3.04881554 9.34170876,3.04881554 9.14644661,2.85355339 L8,1.70710678 L8,5.5 C8,5.77614237 7.77614237,6 7.5,6 C7.22385763,6 7,5.77614237 7,5.5 L7,1.70710678 Z M8,13.2928932 L9.14644661,12.1464466 C9.34170876,11.9511845 9.65829124,11.9511845 9.85355339,12.1464466 C10.0488155,12.3417088 10.0488155,12.6582912 9.85355339,12.8535534 L7.85355339,14.8535534 C7.65829124,15.0488155 7.34170876,15.0488155 7.14644661,14.8535534 L5.14644661,12.8535534 C4.95118446,12.6582912 4.95118446,12.3417088 5.14644661,12.1464466 C5.34170876,11.9511845 5.65829124,11.9511845 5.85355339,12.1464466 L7,13.2928932 L7,9.5 C7,9.22385763 7.22385763,9 7.5,9 C7.77614237,9 8,9.22385763 8,9.5 L8,13.2928932 Z M1.70710678,8 L2.85355339,9.14644661 C3.04881554,9.34170876 3.04881554,9.65829124 2.85355339,9.85355339 C2.65829124,10.0488155 2.34170876,10.0488155 2.14644661,9.85355339 L0.146446609,7.85355339 C-0.0488155365,7.65829124 -0.0488155365,7.34170876 0.146446609,7.14644661 L2.14644661,5.14644661 C2.34170876,4.95118446 2.65829124,4.95118446 2.85355339,5.14644661 C3.04881554,5.34170876 3.04881554,5.65829124 2.85355339,5.85355339 L1.70710678,7 L5.5,7 C5.77614237,7 6,7.22385763 6,7.5 C6,7.77614237 5.77614237,8 5.5,8 L1.70710678,8 Z M13.2928932,7 L12.1464466,5.85355339 C11.9511845,5.65829124 11.9511845,5.34170876 12.1464466,5.14644661 C12.3417088,4.95118446 12.6582912,4.95118446 12.8535534,5.14644661 L14.8535534,7.14644661 C15.0488155,7.34170876 15.0488155,7.65829124 14.8535534,7.85355339 L12.8535534,9.85355339 C12.6582912,10.0488155 12.3417088,10.0488155 12.1464466,9.85355339 C11.9511845,9.65829124 11.9511845,9.34170876 12.1464466,9.14644661 L13.2928932,8 L9.5,8 C9.22385763,8 9,7.77614237 9,7.5 C9,7.22385763 9.22385763,7 9.5,7 L13.2928932,7 Z" fill="#000000" fill-rule="nonzero"></path>
    </g>
</svg>