<?xml version="1.0" encoding="utf-8"?>
<!-- Generator: Adobe Illustrator 17.0.0, SVG Export Plug-In . SVG Version: 6.00 Build 0)  -->
<!DOCTYPE svg PUBLIC "-//W3C//DTD SVG 1.1//EN" "http://www.w3.org/Graphics/SVG/1.1/DTD/svg11.dtd">
<svg version="1.1" id="图层_1" xmlns="http://www.w3.org/2000/svg" xmlns:xlink="http://www.w3.org/1999/xlink" x="0px" y="0px"
	 width="16px" height="16px" viewBox="26.5 68.5 16 16" enable-background="new 26.5 68.5 16 16" xml:space="preserve">
<path d="M32.473,79.783L29.5,80.5l0.715-2.977l7.622-7.633c0.551-0.553,1.611-0.508,2.187,0.07c0.274,0.273,0.446,0.661,0.473,1.06
	c0.028,0.435-0.118,0.846-0.403,1.13L32.473,79.783z M31.933,78.818l7.408-7.421c0.068-0.068,0.102-0.179,0.094-0.307
	c-0.01-0.144-0.071-0.284-0.163-0.377c-0.1-0.102-0.26-0.164-0.414-0.164c-0.066,0-0.187,0.012-0.269,0.094l-7.41,7.42l-0.238,0.992
	C30.941,79.055,31.933,78.818,31.933,78.818z"/>
<path d="M41.5,82c0-0.276-0.238-0.5-0.531-0.5H27.031c-0.293,0-0.531,0.224-0.531,0.5l0,0c0,0.276,0.238,0.5,0.531,0.5h13.938
	C41.262,82.5,41.5,82.276,41.5,82L41.5,82z"/>
</svg>
