<?xml version="1.0" encoding="utf-8"?>
<!-- Generator: Adobe Illustrator 21.0.0, SVG Export Plug-In . SVG Version: 6.00 Build 0)  -->
<svg version="1.1" id="图层_1" xmlns="http://www.w3.org/2000/svg" xmlns:xlink="http://www.w3.org/1999/xlink" x="0px" y="0px"
	 viewBox="0 0 16 16" style="enable-background:new 0 0 16 16;" xml:space="preserve">
<style type="text/css">
	.st0{fill:#221714;}
</style>
<g>
	<path class="st0" d="M14.5,0.5c-0.6-0.6-1.6-0.6-2.2-0.1L4.6,8.1l-0.7,3l3-0.7l7.7-7.7C14.9,2.4,15,2,15,1.5
		C15,1.1,14.8,0.7,14.5,0.5z M13.8,1.9L6.3,9.4l-1,0.2l0.2-1L13,1.1C13.1,1,13.2,1,13.3,1c0.2,0,0.3,0.1,0.4,0.2s0.2,0.2,0.2,0.4
		C13.9,1.7,13.9,1.8,13.8,1.9z"/>
	<path class="st0" d="M13,14H1V2h7.9L10,1H1C0.4,1,0,1.4,0,2v12c0,0.6,0.4,1,1,1h12c0.6,0,1-0.4,1-1V5l-1,1.1V14z"/>
</g>
</svg>
