<?xml version="1.0" encoding="utf-8"?>
<!-- Generator: Adobe Illustrator 21.0.0, SVG Export Plug-In . SVG Version: 6.00 Build 0)  -->
<svg version="1.1" id="图层_1" xmlns="http://www.w3.org/2000/svg" xmlns:xlink="http://www.w3.org/1999/xlink" x="0px" y="0px"
	 viewBox="0 0 16 16" style="enable-background:new 0 0 16 16;" xml:space="preserve">
<g>
	<path fill="#000000" d="M14.8,10.1L12.7,8c-0.2-0.2-0.5-0.2-0.7,0s-0.2,0.5,0,0.7l1.3,1.3H7c-0.3,0-0.5,0.2-0.5,0.5S6.7,11,7,11h6.3L12,12.3
		c-0.2,0.2-0.2,0.5,0,0.7c0.1,0.1,0.2,0.1,0.4,0.1s0.3,0,0.4-0.1l2.1-2.1c0.1-0.1,0.1-0.2,0.1-0.4S14.9,10.2,14.8,10.1z"/>
	<path d="M13,15H1V1h7v4.5C8,5.8,8.2,6,8.5,6H13v1h1V5.3L8.7,0l0,0l0,0H1C0.4,0,0,0.4,0,1v14c0,0.6,0.4,1,1,1h12c0.6,0,1-0.4,1-1v-1
		h-1V15z M9,1.7L12.3,5H9V1.7z"/>
</g>
</svg>
