<?xml version="1.0" encoding="utf-8"?>
<!-- Generator: Adobe Illustrator 21.0.0, SVG Export Plug-In . SVG Version: 6.00 Build 0)  -->
<svg version="1.1" id="图层_1" xmlns="http://www.w3.org/2000/svg" xmlns:xlink="http://www.w3.org/1999/xlink" x="0px" y="0px"
	 viewBox="0 0 16 16" style="enable-background:new 0 0 16 16;" xml:space="preserve">
<style type="text/css">
	.st0{fill:#040000;}
</style>
<path class="st0" d="M15.9,7.8c-0.2,0.2-0.5,0.3-0.8,0.1C12.9,6,10.8,5,8,5C4.1,5,2.4,6.6,0.9,7.9C0.7,8.1,0.3,8,0.1,7.8
	C-0.1,7.6,0,7.2,0.2,7C1.8,5.7,3.7,4,8,4c3.1,0,5.3,1,7.8,3C16,7.2,16.1,7.6,15.9,7.8z M8,7c1.7,0,3,1.3,3,3s-1.3,3-3,3s-3-1.3-3-3
	S6.4,7,8,7z M8,12c1.1,0,2-0.9,2-2S9.1,8,8,8s-2,0.9-2,2S6.9,12,8,12z M8,9c0.6,0,1,0.4,1,1s-0.5,1-1,1c-0.6,0-1-0.4-1-1S7.5,9,8,9z
	"/>
</svg>
