<?xml version="1.0" encoding="utf-8"?>
<!-- Generator: Adobe Illustrator 21.0.0, SVG Export Plug-In . SVG Version: 6.00 Build 0)  -->
<svg version="1.1" id="图层_1" xmlns="http://www.w3.org/2000/svg" xmlns:xlink="http://www.w3.org/1999/xlink" x="0px" y="0px"
	 viewBox="0 0 16 16" style="enable-background:new 0 0 16 16;" xml:space="preserve">
<style type="text/css">
	.st0{fill:#040000;}
</style>
<path class="st0" d="M15.8,6c-0.9,0.7-1.7,1.3-2.6,1.8l0.9,1.4c0.1,0.3,0.1,0.6-0.2,0.7c-0.3,0.1-0.5,0-0.6-0.2l-1-1.5
	c-0.7,0.3-1.3,0.5-2,0.6l0.7,1.3c0.2,0.3,0.1,0.6-0.2,0.8c-0.1,0.1-0.5,0.2-0.7-0.2l-1-1.8C8.7,9,8.4,9,8,9S7.1,9,6.8,9l-0.9,1.7
	C5.7,11,5.4,11,5.1,10.9c-0.2-0.1-0.3-0.4-0.1-0.8l0.7-1.3C4.9,8.7,4.2,8.5,3.6,8.2l-1,1.4C2.5,9.8,2.2,9.9,1.9,9.7
	C1.6,9.6,1.7,9.3,1.8,9l0.9-1.2C1.7,7.2,0.9,6.6,0.1,6C0,5.8-0.1,5.4,0.1,5.2C0.3,5,0.6,4.9,0.9,5.1C1.7,5.7,2.5,6.4,3.5,7
	c0.1,0.1,0.2,0.1,0.3,0.2C4.8,7.7,6.2,8,8,8c2.8,0,4.9-1,7.1-2.9c0.2-0.2,0.6-0.1,0.8,0.1C16.1,5.4,16,5.8,15.8,6z"/>
</svg>
