<?xml version="1.0" encoding="utf-8"?>
<!-- Generator: Adobe Illustrator 21.0.0, SVG Export Plug-In . SVG Version: 6.00 Build 0)  -->
<svg version="1.1" id="图层_1" xmlns="http://www.w3.org/2000/svg" xmlns:xlink="http://www.w3.org/1999/xlink" x="0px" y="0px"
	 viewBox="0 0 16 16" style="enable-background:new 0 0 16 16;" xml:space="preserve">
<path fill="#000000" d="M14.1,0.3C14,0.1,13.8,0,13.6,0H1.8C1.6,0,1.5,0.1,1.4,0.3s-0.1,0.4,0,0.5L6,6.5V13c0,0.2,0.1,0.3,0.2,0.4l2,1.5
	C8.3,15,8.4,15,8.5,15s0.2,0,0.2-0.1C8.9,14.8,9,14.6,9,14.5v-8l5-5.7C14.1,0.7,14.2,0.5,14.1,0.3z M8.1,6C8,6.1,8,6.2,8,6.3v7.2
	l-1-0.8V6.3C7,6.2,7,6.1,6.9,6l-4-5h9.7L8.1,6z"/>
</svg>
