<?xml version="1.0" encoding="utf-8"?>
<!-- Generator: Adobe Illustrator 17.0.0, SVG Export Plug-In . SVG Version: 6.00 Build 0)  -->
<!DOCTYPE svg PUBLIC "-//W3C//DTD SVG 1.1//EN" "http://www.w3.org/Graphics/SVG/1.1/DTD/svg11.dtd">
<svg version="1.1" id="图层_1" xmlns="http://www.w3.org/2000/svg" xmlns:xlink="http://www.w3.org/1999/xlink" x="0px" y="0px"
	 width="16px" height="16px" viewBox="3.5 2.5 16 16" enable-background="new 3.5 2.5 16 16" xml:space="preserve">
<path fill="#040000" d="M16.5,8.5l0.2-3.3c1.1,1.3,1.8,3,1.8,4.8c0,4.1-3.4,7.5-7.5,7.5c-1.8,0-3.5-0.7-4.8-1.8L6.9,15
	c1.1,0.9,2.5,1.5,4.1,1.5c3.6,0,6.5-2.9,6.5-6.5c0-0.7-0.1-1.5-0.4-2.1L16.5,8.5 M5.4,10.9l-0.6,3.4C4,13,3.5,11.6,3.5,10
	c0-4.1,3.4-7.5,7.5-7.5c1.6,0,3,0.5,4.3,1.3l-0.8,0.8c-1-0.7-2.2-1.1-3.5-1.1c-3.6,0-6.5,2.9-6.5,6.5c0,0.7,0.1,1.5,0.4,2.1
	l-0.3-0.7L5.4,10.9"/>
</svg>
