<?xml version="1.0" encoding="utf-8"?>
<!-- Generator: Adobe Illustrator 21.0.0, SVG Export Plug-In . SVG Version: 6.00 Build 0)  -->
<svg version="1.1" id="图层_1" xmlns="http://www.w3.org/2000/svg" xmlns:xlink="http://www.w3.org/1999/xlink" x="0px" y="0px"
	 viewBox="0 0 16 16" style="enable-background:new 0 0 16 16;" xml:space="preserve">
<path fill="#000000" id="ic_foldadd" d="M11.5,15C9,15,7,13,7,10.5S9,6,11.5,6S16,8,16,10.5S14,15,11.5,15z M11.5,7C9.6,7,8,8.6,8,10.5
	S9.6,14,11.5,14s3.5-1.6,3.5-3.5S13.4,7,11.5,7z M12,11v2h-1v-2H9v-1h2V8h1v2h2v1H12z M15,4H1v9h5v1H1c-0.6,0-1-0.4-1-1V1.5
	C0,1.2,0.2,1,0.5,1h5.2L6,1.3L7.7,3H15c0.6,0,1,0.4,1,1v2h-1V4z M5.3,2H1v1h5.3L5.3,2z"/>
</svg>
