<?xml version="1.0" encoding="utf-8"?>
<!-- Generator: Adobe Illustrator 21.0.0, SVG Export Plug-In . SVG Version: 6.00 Build 0)  -->
<svg version="1.1" id="图层_1" xmlns="http://www.w3.org/2000/svg" xmlns:xlink="http://www.w3.org/1999/xlink" x="0px" y="0px"
	 viewBox="0 0 16 16" style="enable-background:new 0 0 16 16;" xml:space="preserve">
<g>
	<polygon points="13,9 12,9 12,10 11,10 11,11 12,11 12,12 13,12 13,11 14,11 14,10 13,10 	"/>
	<path fill="#000000" d="M15,5h-4.6L8.7,3.3L8.4,3H4.5C4.2,3,4,3.2,4,3.5V8H2V3h0c0.6-0.2,1-0.8,1-1.4c0-0.8-0.7-1.5-1.5-1.5S0,0.8,0,1.6
		C0,2.2,0.4,2.8,1,3h0v5v1h1h2v4c0,0.6,0.4,1,1,1h4v-1H5V6h10v1h1V6C16,5.4,15.6,5,15,5z M1.5,1.1C1.8,1.1,2,1.3,2,1.6
		S1.8,2.1,1.5,2.1S1,1.9,1,1.6S1.2,1.1,1.5,1.1z M5,5V4h3l1,1H5z"/>
	<path d="M12.5,7C10.6,7,9,8.6,9,10.5s1.6,3.5,3.5,3.5s3.5-1.6,3.5-3.5S14.4,7,12.5,7z M12.5,13c-1.4,0-2.5-1.1-2.5-2.5
		S11.1,8,12.5,8S15,9.1,15,10.5S13.9,13,12.5,13z"/>
</g>
</svg>
