<?xml version="1.0" encoding="utf-8"?>
<!-- Generator: Adobe Illustrator 21.0.0, SVG Export Plug-In . SVG Version: 6.00 Build 0)  -->
<svg version="1.1" id="图层_1" xmlns="http://www.w3.org/2000/svg" xmlns:xlink="http://www.w3.org/1999/xlink" x="0px" y="0px"
	 viewBox="0 0 16 16" style="enable-background:new 0 0 16 16;" xml:space="preserve">
<style type="text/css">
	.st0{fill:#221714;}
</style>
<g>
	<path class="st0" d="M4.5,10.6L4.5,10.6c0.3,0,0.5-0.2,0.5-0.5C5.1,8,6.2,6.2,8,5.2c1.5-0.8,3.1-1,4.7-0.5l-2.4,2.8
		c-0.2,0.2-0.2,0.5,0.1,0.7c0.1,0.1,0.2,0.1,0.3,0.1s0.3-0.1,0.4-0.2l3.2-3.8c0.2-0.2,0.2-0.5-0.1-0.7l-3.8-3.2
		c-0.2-0.2-0.5-0.2-0.7,0.1C9.5,0.7,9.5,1,9.8,1.2l2.9,2.5C11,3.3,9.1,3.5,7.5,4.4C5.4,5.5,4.1,7.7,4,10.1C4,10.3,4.2,10.6,4.5,10.6
		z"/>
	<path class="st0" d="M15.5,9C15.2,9,15,9.2,15,9.5V10v4H1v-4V9.5C1,9.2,0.8,9,0.5,9S0,9.2,0,9.5V10v4c0,0.6,0.4,1,1,1h14
		c0.6,0,1-0.4,1-1v-4V9.5C16,9.2,15.8,9,15.5,9z"/>
</g>
</svg>
