<?xml version="1.0" encoding="utf-8"?>
<!-- Generator: Adobe Illustrator 17.0.0, SVG Export Plug-In . SVG Version: 6.00 Build 0)  -->
<!DOCTYPE svg PUBLIC "-//W3C//DTD SVG 1.1//EN" "http://www.w3.org/Graphics/SVG/1.1/DTD/svg11.dtd">
<svg version="1.1" id="图层_1" xmlns="http://www.w3.org/2000/svg" xmlns:xlink="http://www.w3.org/1999/xlink" x="0px" y="0px"
	 width="16px" height="16px" viewBox="267.5 27.5 16 16" enable-background="new 267.5 27.5 16 16" xml:space="preserve">
<path fill="#040000" d="M283.4,36.3l-0.1,0.4h-0.4c-1.3,0.2-2.3,1.3-2.3,2.5c0,0.4,0.1,0.7,0.2,1l0.1,0.3l-0.3,0.2
	c-0.8,0.7-1.7,1.2-2.7,1.5l-0.3,0.1l-0.1-0.1c-0.5-0.6-1.2-1-2-1s-1.5,0.4-2,1l-0.2,0.3l-0.3-0.1c-1.1-0.4-2-0.9-2.8-1.6l-0.3-0.2
	l0.1-0.3c0.1-0.3,0.2-0.6,0.2-0.9c0-1.2-0.9-2.3-2.1-2.5l-0.3-0.1l-0.1-0.3c-0.2-0.7-0.2-1.1-0.2-1.6s0.1-1.1,0.2-1.6l0.1-0.3
	l0.3-0.1c1.2-0.3,2.1-1.3,2.1-2.5c0-0.3,0-0.5-0.1-0.8l-0.2-0.3l0.2-0.2c0.8-0.7,1.8-1.3,2.8-1.6l0.3-0.1l0.3,0.2c1,1.1,3,1.1,4,0
	l0.2-0.2l0.3,0.1c1,0.3,1.9,0.8,2.7,1.5l0.3,0.2l-0.1,0.3c-0.1,0.3-0.2,0.6-0.2,0.9c0,1.3,1,2.3,2.2,2.5l0.3,0.1l0.1,0.3
	c0.1,0.5,0.2,1.1,0.2,1.6S283.5,35.8,283.4,36.3z M282.4,33.8c-1.6-0.4-2.7-1.8-2.7-3.4c0-0.3,0-0.6,0.1-0.9c-0.5-0.4-1.1-0.8-1.8-1
	c-1.3,1.3-3.7,1.3-5,0c-0.7,0.3-1.4,0.6-2,1.1c0.1,0.3,0.1,0.5,0.1,0.8c0,1.6-1,2.9-2.5,3.4c-0.1,0.3-0.1,0.7-0.1,1.1
	c0,0.3,0,0.6,0.1,0.9c1.5,0.4,2.6,1.8,2.6,3.4c0,0.3,0,0.6-0.1,1c0.6,0.5,1.2,0.9,1.9,1.1c0.7-0.7,1.6-1.1,2.6-1.1s1.9,0.4,2.6,1.1
	c0.6-0.2,1.2-0.6,1.8-1c-0.1-0.3-0.2-0.7-0.2-1.1c0-1.6,1.2-3.1,2.8-3.4c0-0.3,0.1-0.6,0.1-0.8C282.5,34.5,282.5,34.2,282.4,33.8z
	 M275.5,37.7c-1.6,0-2.8-1.2-2.8-2.8s1.3-2.8,2.8-2.8c1.6,0,2.8,1.2,2.8,2.8C278.3,36.4,277.1,37.7,275.5,37.7z M275.5,33.1
	c-1,0-1.9,0.8-1.9,1.8s0.8,1.8,1.9,1.8s1.9-0.8,1.9-1.8S276.5,33.1,275.5,33.1z"/>
</svg>
