<?xml version="1.0" encoding="utf-8"?>
<!-- Generator: Adobe Illustrator 17.0.0, SVG Export Plug-In . SVG Version: 6.00 Build 0)  -->
<!DOCTYPE svg PUBLIC "-//W3C//DTD SVG 1.1//EN" "http://www.w3.org/Graphics/SVG/1.1/DTD/svg11.dtd">
<svg version="1.1" id="图层_1" xmlns="http://www.w3.org/2000/svg" xmlns:xlink="http://www.w3.org/1999/xlink" x="0px" y="0px"
	 width="16px" height="16px" viewBox="627.5 27.5 16 16" enable-background="new 627.5 27.5 16 16" xml:space="preserve">
<path id="group" d="M641.5,40.5v3h-12v-3h-2v-13h7v13h-4v2h10v-2h-4v-13h7v13H641.5z M633.5,39.5v-11h-5v11H633.5z M642.5,28.5h-5
	v11h5V28.5z M641.5,33.5h-3v-1h3V33.5z M641.5,38.5h-3v-3h3V38.5z M640.5,36.5h-1v1h1V36.5z M632.5,33.5h-3v-1h3V33.5z M632.5,38.5
	h-3v-3h3V38.5z M631.5,36.5h-1v1h1V36.5z"/>
</svg>
