<?xml version="1.0" encoding="utf-8"?>
<!-- Generator: Adobe Illustrator 21.0.0, SVG Export Plug-In . SVG Version: 6.00 Build 0)  -->
<svg version="1.1" id="图层_1" xmlns="http://www.w3.org/2000/svg" xmlns:xlink="http://www.w3.org/1999/xlink" x="0px" y="0px"
	 viewBox="0 0 16 16" style="enable-background:new 0 0 16 16;" xml:space="preserve">
<path fill="#000000" id="icon_e" d="M1,14V1c0-0.5,0.4-1,1-1h12c0.6,0,1,0.4,1,1v13c0,0.6-0.4,1-1,1H2C1.4,15,1,14.6,1,14z M14,1H2v11h12V1z M14,13
	H2v1h12V13z M8,3c1.8,0,3.4,1.2,3.9,3h-1C10.3,4.4,8.6,3.6,7,4.2C6.5,4.3,6.1,4.6,5.8,5c0,0,0,0,0,0C5.5,5.3,5.3,5.6,5.2,6
	C5.2,6,5,6,5,6H4.1C4.6,4.2,6.2,3,8,3z M8,9c1.3,0,2.4-0.8,2.8-2h1C11.3,9.1,9.1,10.4,7,9.9C5.6,9.5,4.5,8.4,4.1,7h1
	C5.6,8.2,6.7,9,8,9z"/>
</svg>
