<?xml version="1.0" encoding="utf-8"?>
<!-- Generator: Adobe Illustrator 17.0.0, SVG Export Plug-In . SVG Version: 6.00 Build 0)  -->
<!DOCTYPE svg PUBLIC "-//W3C//DTD SVG 1.1//EN" "http://www.w3.org/Graphics/SVG/1.1/DTD/svg11.dtd">
<svg version="1.1" id="图层_1" xmlns="http://www.w3.org/2000/svg" xmlns:xlink="http://www.w3.org/1999/xlink" x="0px" y="0px"
	 width="16px" height="16px" viewBox="375.5 27.5 16 16" enable-background="new 375.5 27.5 16 16" xml:space="preserve">
<path fill="#040000" d="M383,27.5c-4.1,0-7.5,3.4-7.5,7.5s3.4,7.5,7.5,7.5s7.5-3.4,7.5-7.5S387.1,27.5,383,27.5z M387.6,39.6
	c-0.6,0.6-1.3,1.1-2.1,1.4s-1.7,0.5-2.5,0.5s-1.7-0.2-2.5-0.5s-1.5-0.8-2.1-1.4c-0.6-0.6-1.1-1.3-1.4-2.1s-0.5-1.6-0.5-2.5
	c0-3.6,2.9-6.5,6.5-6.5s6.5,2.9,6.5,6.5c0,0.9-0.2,1.7-0.5,2.5S388.2,39,387.6,39.6z"/>
<path fill="#040000" d="M383.1,30.8c-0.4,0-0.706,0.075-1.003,0.182c-0.244,0.088-0.521,0.253-0.809,0.482
	C381.006,31.689,380.8,32,380.7,32.3c-0.1,0.2-0.2,0.7-0.2,1.2h1c0-1.2,0.58-1.757,1.5-1.8c0.4-0.019,0.794,0.138,1.018,0.382
	c0.3,0.3,0.382,0.618,0.382,0.918s-0.173,0.703-0.304,0.884c-0.316,0.435-0.941,1.059-1.169,1.38
	c-0.549,0.777-0.427,1.836-0.427,2.236h1c0-0.4-0.088-1.341,0.486-2c0.447-0.424,1.214-1.4,1.314-1.6c0.1-0.2,0.2-0.5,0.2-0.8
	c0-0.7-0.2-1.2-0.7-1.7C384.4,31,383.8,30.8,383.1,30.8z"/>
<rect x="382.5" y="38.5" fill="#040000" width="1" height="1"/>
</svg>
