<?xml version="1.0" encoding="utf-8"?>
<!-- Generator: Adobe Illustrator 17.0.0, SVG Export Plug-In . SVG Version: 6.00 Build 0)  -->
<!DOCTYPE svg PUBLIC "-//W3C//DTD SVG 1.1//EN" "http://www.w3.org/Graphics/SVG/1.1/DTD/svg11.dtd">
<svg version="1.1" id="图层_1" xmlns="http://www.w3.org/2000/svg" xmlns:xlink="http://www.w3.org/1999/xlink" x="0px" y="0px"
	 width="16px" height="16px" viewBox="49.5 48.5 16 16" enable-background="new 49.5 48.5 16 16" xml:space="preserve">
<path id="hui-icon-ignore" d="M57.5,64.5c-4.418,0-8-3.582-8-8s3.582-8,8-8s8,3.582,8,8S61.918,64.5,57.5,64.5z M57.5,49.5
	c-3.866,0-7,3.134-7,7s3.134,7,7,7s7-3.134,7-7l0,0C64.5,52.634,61.366,49.5,57.5,49.5z M60.5,57.5c-0.552,0-1-0.448-1-1
	s0.448-1,1-1s1,0.448,1,1S61.052,57.5,60.5,57.5z M57.5,57.5c-0.552,0-1-0.448-1-1s0.448-1,1-1s1,0.448,1,1S58.052,57.5,57.5,57.5z
	 M54.5,57.5c-0.552,0-1-0.448-1-1s0.448-1,1-1s1,0.448,1,1S55.052,57.5,54.5,57.5z"/>
</svg>
