<?xml version="1.0" encoding="utf-8"?>
<!-- Generator: Adobe Illustrator 21.0.0, SVG Export Plug-In . SVG Version: 6.00 Build 0)  -->
<svg version="1.1" id="图层_1" xmlns="http://www.w3.org/2000/svg" xmlns:xlink="http://www.w3.org/1999/xlink" x="0px" y="0px"
	 viewBox="0 0 16 16" style="enable-background:new 0 0 16 16;" xml:space="preserve">
<g>
	<rect x="3" y="4" width="1" height="1"/>
	<path fill="#000000" d="M15,1H1C0.4,1,0,1.4,0,2v11c0,0.6,0.4,1,1,1h14c0.6,0,1-0.4,1-1V2C16,1.4,15.6,1,15,1z M15,2v6.9l-3.8-2.1
		c-0.2-0.1-0.4-0.1-0.6,0l-4.9,3.9l-2-1.3c-0.2-0.1-0.4-0.1-0.6,0L1,11.2V2H15z M1,12.4l2.5-2l4,2.6H1V12.4z M9.3,13l-2.7-1.8
		L11,7.8l4,2.3V13H9.3z"/>
</g>
</svg>
