<?xml version="1.0" encoding="utf-8"?>
<!-- Generator: Adobe Illustrator 21.0.0, SVG Export Plug-In . SVG Version: 6.00 Build 0)  -->
<svg version="1.1" id="图层_1" xmlns="http://www.w3.org/2000/svg" xmlns:xlink="http://www.w3.org/1999/xlink" x="0px" y="0px"
	 viewBox="0 0 16 16" style="enable-background:new 0 0 16 16;" xml:space="preserve">
<style type="text/css">
	.st0{fill:#231815;}
</style>
<g>
	<path class="st0" d="M14,15H2V1h7v4.5C9,5.8,9.2,6,9.5,6H14v3h1V5.3L9.7,0l0,0l0,0H2C1.4,0,1,0.4,1,1v14c0,0.6,0.4,1,1,1h12
		c0.6,0,1-0.4,1-1v-3.2h-1V15z M10,1.7L13.3,5H10V1.7z"/>
	<path class="st0" d="M15.1,10H8.7L10,8.7c0.2-0.2,0.2-0.5,0-0.7S9.5,7.8,9.3,8l-2.1,2.1C7,10.2,7,10.4,7,10.5s0.1,0.3,0.1,0.4
		L9.2,13c0.1,0.1,0.2,0.1,0.4,0.1s0.3,0,0.4-0.1c0.2-0.2,0.2-0.5,0-0.7L8.7,11h6.4c0.3,0,0.5-0.2,0.5-0.5S15.4,10,15.1,10z"/>
</g>
</svg>
