<?xml version="1.0" encoding="utf-8"?>
<!-- Generator: Adobe Illustrator 21.0.0, SVG Export Plug-In . SVG Version: 6.00 Build 0)  -->
<svg version="1.1" id="图层_1" xmlns="http://www.w3.org/2000/svg" xmlns:xlink="http://www.w3.org/1999/xlink" x="0px" y="0px"
	 viewBox="0 0 16 16" style="enable-background:new 0 0 16 16;" xml:space="preserve">
<path fill="#000000" d="M15,7.5C15,3.4,11.6,0,7.5,0l0,0l0,0l0,0C3.5,0,0.3,3.1,0,7l0,0v1l0,0c0.3,3.9,3.5,7,7.5,7l0,0l0,0l0,0
	C11.6,15,15,11.6,15,7.5z M12,12.2c-0.6-0.3-1.2-0.6-1.9-0.8c0.2-1,0.4-2.2,0.4-3.4H14C13.8,9.7,13.1,11.1,12,12.2z M7.5,14
	c-0.4,0-0.9-0.7-1.3-1.9C7.1,12,8,12,8.9,12.1C8.4,13.3,7.9,14,7.5,14L7.5,14z M5.8,13.8c-0.7-0.2-1.4-0.5-2-0.9
	c0.4-0.2,0.9-0.4,1.3-0.5C5.4,12.9,5.6,13.4,5.8,13.8z M7.5,1L7.5,1c0.4,0,0.9,0.7,1.3,1.8C8,3,7,3,6.2,2.9C6.6,1.7,7.1,1,7.5,1z
	 M5.2,2.7C4.7,2.5,4.3,2.3,3.8,2.1c0.6-0.4,1.3-0.7,2-0.9C5.6,1.6,5.4,2.1,5.2,2.7z M9.2,1.2c0.7,0.2,1.3,0.5,1.9,0.9
	c-0.4,0.2-0.8,0.4-1.3,0.5C9.6,2.1,9.4,1.6,9.2,1.2z M7.4,4C8,4,8.5,3.9,9.1,3.8c0.2,0.9,0.3,2,0.4,3.2h-4c0-1.2,0.2-2.3,0.4-3.1
	C6.4,3.9,6.9,4,7.4,4z M9.5,8c0,1.2-0.2,2.3-0.4,3.2C8,11,7,11,5.9,11.1C5.7,10.2,5.6,9.2,5.5,8H9.5z M9.8,12.3
	c0.5,0.1,0.9,0.3,1.3,0.5c-0.6,0.4-1.2,0.7-1.9,0.9C9.4,13.4,9.6,12.9,9.8,12.3z M14,7.5L14,7.5L14,7.5L14,7.5z M14,7h-3.5
	c0-1.2-0.2-2.3-0.4-3.4c0.7-0.2,1.3-0.5,1.9-0.8C13.1,3.9,13.8,5.3,14,7z M3,2.8c0.6,0.3,1.2,0.6,1.9,0.8C4.7,4.6,4.5,5.8,4.5,7H1
	C1.2,5.4,1.9,3.9,3,2.8z M1,8h3.5c0,1.2,0.2,2.3,0.4,3.3c-0.7,0.2-1.3,0.5-1.9,0.8C1.9,11.1,1.2,9.6,1,8z"/>
</svg>
