<?xml version="1.0" encoding="utf-8"?>
<!-- Generator: Adobe Illustrator 21.0.0, SVG Export Plug-In . SVG Version: 6.00 Build 0)  -->
<svg version="1.1" id="图层_1" xmlns="http://www.w3.org/2000/svg" xmlns:xlink="http://www.w3.org/1999/xlink" x="0px" y="0px"
	 viewBox="0 0 16 16" style="enable-background:new 0 0 16 16;" xml:space="preserve">
<g>
	<path fill="#000000" d="M2.9,1.2C2.7,1,2.3,1,2.1,1.2S2,1.7,2.1,1.9L8.7,8l-6.6,6.2c-0.2,0.2-0.2,0.5,0,0.7s0.5,0.2,0.7,0l7-6.5l0,0
		C9.9,8.3,9.9,8.2,9.9,8s0-0.3-0.1-0.4l0,0L2.9,1.2z"/>
	<path d="M13.5,15c0.3,0,0.5-0.2,0.5-0.5v-13C14,1.2,13.8,1,13.5,1S13,1.2,13,1.5v13C13,14.8,13.2,15,13.5,15z"/>
</g>
</svg>
