<?xml version="1.0" encoding="utf-8"?>
<!-- Generator: Adobe Illustrator 21.0.0, SVG Export Plug-In . SVG Version: 6.00 Build 0)  -->
<svg version="1.1" id="图层_1" xmlns="http://www.w3.org/2000/svg" xmlns:xlink="http://www.w3.org/1999/xlink" x="0px" y="0px"
	 viewBox="0 0 16 16" style="enable-background:new 0 0 16 16;" xml:space="preserve">
<g>
	<path fill="#000000" d="M8.4,6.1C8.4,6.1,8.4,6.1,8.4,6.1C8.3,6,8.1,6,8,6S7.7,6,7.6,6.1c0,0,0,0,0,0l-6.5,7c-0.2,0.2-0.2,0.5,0,0.7s0.5,0.2,0.7,0
		L8,7.2l6.1,6.6c0.2,0.2,0.5,0.2,0.7,0s0.2-0.5,0-0.7L8.4,6.1z"/>
	<path d="M1.5,3h13C14.8,3,15,2.8,15,2.5S14.8,2,14.5,2h-13C1.2,2,1,2.2,1,2.5S1.2,3,1.5,3z"/>
</g>
</svg>
