<?xml version="1.0" encoding="utf-8"?>
<!-- Generator: Adobe Illustrator 21.0.0, SVG Export Plug-In . SVG Version: 6.00 Build 0)  -->
<svg version="1.1" id="图层_1" xmlns="http://www.w3.org/2000/svg" xmlns:xlink="http://www.w3.org/1999/xlink" x="0px" y="0px"
	 viewBox="0 0 16 16" style="enable-background:new 0 0 16 16;" xml:space="preserve">
<g>
	<path fill="#000000" d="M14.8,2.9c0.2-0.2,0.2-0.5,0-0.7s-0.5-0.2-0.7,0L8,8.8L1.8,2.1C1.7,2,1.3,2,1.1,2.1s-0.2,0.5,0,0.7l6.5,7c0,0,0,0,0,0
		C7.7,9.9,7.9,10,8,10s0.3,0,0.4-0.1c0,0,0,0,0,0L14.8,2.9z"/>
	<path d="M1,13.5C1,13.8,1.2,14,1.5,14h13c0.3,0,0.5-0.2,0.5-0.5S14.8,13,14.5,13h-13C1.2,13,1,13.2,1,13.5z"/>
</g>
</svg>
