<?xml version="1.0" encoding="utf-8"?>
<!-- Generator: Adobe Illustrator 17.0.0, SVG Export Plug-In . SVG Version: 6.00 Build 0)  -->
<!DOCTYPE svg PUBLIC "-//W3C//DTD SVG 1.1//EN" "http://www.w3.org/Graphics/SVG/1.1/DTD/svg11.dtd">
<svg version="1.1" id="图层_1" xmlns="http://www.w3.org/2000/svg" xmlns:xlink="http://www.w3.org/1999/xlink" x="0px" y="0px"
	 width="16px" height="16px" viewBox="2.5 2.5 16 16" enable-background="new 2.5 2.5 16 16" xml:space="preserve">
<path id="lisence" d="M11.213,12.524L4.469,17.49l-0.963-0.993v-2.98l4.818-3.974c0,0-0.124-6.872,5.78-5.96
	C18.874,4.321,19.227,13.473,11.213,12.524z M16.006,7.991c-0.5-3.416-2.867-3.415-2.867-3.415
	c-4.082,0.027-3.853,5.961-3.853,5.961L4.469,14.51v0.994h0.963l4.817-3.974C14.223,11.564,16.5,11.343,16.006,7.991L16.006,7.991z
	 M14.103,8.55c-0.549,0.017-1.007-0.414-1.025-0.963s0.414-1.007,0.963-1.025c0.549-0.017,1.007,0.414,1.025,0.963
	c0,0.01,0,0.021,0,0.031c0.008,0.539-0.421,0.983-0.96,0.993h-0.003V8.55z"/>
</svg>
