<?xml version="1.0" encoding="utf-8"?>
<!-- Generator: Adobe Illustrator 17.0.0, SVG Export Plug-In . SVG Version: 6.00 Build 0)  -->
<!DOCTYPE svg PUBLIC "-//W3C//DTD SVG 1.1//EN" "http://www.w3.org/Graphics/SVG/1.1/DTD/svg11.dtd">
<svg version="1.1" id="图层_1" xmlns="http://www.w3.org/2000/svg" xmlns:xlink="http://www.w3.org/1999/xlink" x="0px" y="0px"
	 width="16px" height="16px" viewBox="67.5 85.5 16 16" enable-background="new 67.5 85.5 16 16" xml:space="preserve">
<g>
	<path d="M77.982,86.847c-2.495,0-4.518,2.023-4.518,4.518c0,0.408,0.072,0.797,0.173,1.173L67.5,97.884v3.074l0.75,0.542
		l7.755-6.089c0.599,0.293,1.264,0.473,1.976,0.473c2.495,0,4.518-2.023,4.518-4.518C82.499,88.871,80.477,86.847,77.982,86.847z
		 M77.982,94.883c-0.517,0-1.033-0.125-1.536-0.371l-0.549-0.269l-0.49,0.367l-6.906,5.454v-1.779l5.86-5.056l0.388-0.407
		l-0.146-0.545c-0.095-0.35-0.139-0.64-0.139-0.912c0-1.94,1.578-3.518,3.518-3.518c1.94,0,3.518,1.578,3.518,3.518
		C81.5,93.305,79.922,94.883,77.982,94.883z"/>
	<path d="M78.475,89.859c-0.549,0.018-0.981,0.476-0.963,1.025c0.018,0.549,0.476,0.98,1.025,0.963v-0.001h0.003
		c0.539-0.01,0.968-0.454,0.96-0.993c0-0.01,0-0.021,0-0.031C79.482,90.273,79.024,89.842,78.475,89.859z"/>
</g>
</svg>
