<?xml version="1.0" encoding="utf-8"?>
<!-- Generator: Adobe Illustrator 21.0.0, SVG Export Plug-In . SVG Version: 6.00 Build 0)  -->
<svg version="1.1" id="图层_1" xmlns="http://www.w3.org/2000/svg" xmlns:xlink="http://www.w3.org/1999/xlink" x="0px" y="0px"
	 viewBox="0 0 16 16" style="enable-background:new 0 0 16 16;" xml:space="preserve">
<path fill="#000000" d="M13,6h-1V4c0-2.2-1.8-4-4-4S4,1.8,4,4v2H3C2.4,6,2,6.4,2,7v7c0,0.5,0.4,1,1,1h10c0.5,0,1-0.5,1-1V7C14,6.4,13.5,6,13,6z
	 M5,4c0-1.7,1.4-3,3-3s3,1.3,3,3v2H5V4z M13,14H3V7h1h8h1V14z"/>
</svg>
