<?xml version="1.0" encoding="utf-8"?>
<!-- Generator: Adobe Illustrator 22.0.1, SVG Export Plug-In . SVG Version: 6.00 Build 0)  -->
<svg version="1.1" id="图层_1" xmlns="http://www.w3.org/2000/svg" xmlns:xlink="http://www.w3.org/1999/xlink" x="0px" y="0px"
	 viewBox="0 0 16 16" style="enable-background:new 0 0 16 16;" xml:space="preserve">
<g id="icon">
	<g id="log_x2F_app">
		<g id="h-icon-log-app">
			<path id="path-1_1_" d="M13,0H6H3H2C1.4,0,1,0.4,1,1v14c0,0.6,0.4,1,1,1h11c0.6,0,1-0.4,1-1V1C14,0.4,13.6,0,13,0z M13,15H2V1h1
				h3h7V15z M11,9H4V8h7V9z M9,12H4v-1h5V12z M4,3H3V2h1V3z M6,3H5V2h1V3z M13,5H2V4h11V5z"/>
		</g>
	</g>
</g>
</svg>
