<?xml version="1.0" encoding="utf-8"?>
<!-- Generator: Adobe Illustrator 22.0.1, SVG Export Plug-In . SVG Version: 6.00 Build 0)  -->
<svg version="1.1" id="图层_1" xmlns="http://www.w3.org/2000/svg" xmlns:xlink="http://www.w3.org/1999/xlink" x="0px" y="0px"
	 viewBox="0 0 16 16" style="enable-background:new 0 0 16 16;" xml:space="preserve">
<title>log/system</title>
<desc>Created with Sketch.</desc>
<g id="icon">
	<g id="log_x2F_system">
		<g id="h-icon-log-system">
			<path id="path-1_1_" d="M1,2v11h14V2H1z M1,1h14c0.6,0,1,0.4,1,1v11c0,0.6-0.4,1-1,1H1c-0.6,0-1-0.4-1-1V2C0,1.4,0.4,1,1,1z M1,5
				v1h14V5H1z M4,8v1h8V8H4z M4,10v1h5v-1H4z M2,3v1h1V3H2z M4,3v1h1V3H4z"/>
		</g>
	</g>
</g>
</svg>
