<?xml version="1.0" encoding="utf-8"?>
<!-- Generator: Adobe Illustrator 21.0.0, SVG Export Plug-In . SVG Version: 6.00 Build 0)  -->
<svg version="1.1" id="图层_1" xmlns="http://www.w3.org/2000/svg" xmlns:xlink="http://www.w3.org/1999/xlink" x="0px" y="0px"
	 viewBox="0 0 16 16" style="enable-background:new 0 0 16 16;" xml:space="preserve">
<style type="text/css">
	.st0{fill:#040000;}
</style>
<path class="st0" d="M14.5,6h-14C0.2,6,0,5.8,0,5.5S0.2,5,0.5,5h14C14.8,5,15,5.2,15,5.5S14.8,6,14.5,6z M14.5,2h-14
	C0.2,2,0,1.8,0,1.5S0.2,1,0.5,1h14C14.8,1,15,1.2,15,1.5S14.8,2,14.5,2z M0.5,9h14C14.8,9,15,9.2,15,9.5S14.8,10,14.5,10h-14
	C0.2,10,0,9.8,0,9.5S0.2,9,0.5,9z M0.5,13h8C8.8,13,9,13.2,9,13.5S8.8,14,8.5,14h-8C0.2,14,0,13.8,0,13.5S0.2,13,0.5,13z"/>
</svg>
