<?xml version="1.0" encoding="utf-8"?>
<!-- Generator: Adobe Illustrator 21.0.0, SVG Export Plug-In . SVG Version: 6.00 Build 0)  -->
<svg version="1.1" id="图层_1" xmlns="http://www.w3.org/2000/svg" xmlns:xlink="http://www.w3.org/1999/xlink" x="0px" y="0px"
	 viewBox="0 0 16 16" style="enable-background:new 0 0 16 16;" xml:space="preserve">
<style type="text/css">
	.st0{fill:#040000;}
</style>
<path class="st0" d="M14,15h-4c-0.6,0-1-0.4-1-1v-4c0-0.6,0.4-1,1-1h4c0.6,0,1,0.4,1,1v4C15,14.6,14.6,15,14,15z M14,10h-4v4h4V10z
	 M14,7h-4C9.4,7,9,6.6,9,6V2c0-0.6,0.4-1,1-1h4c0.6,0,1,0.4,1,1v4C15,6.6,14.6,7,14,7z M14,2h-4v4h4V2z M6,15H2c-0.6,0-1-0.4-1-1v-4
	c0-0.6,0.4-1,1-1h4c0.6,0,1,0.4,1,1v4C7,14.6,6.6,15,6,15z M6,10H2v4h4V10z M6,7H2C1.4,7,1,6.6,1,6V2c0-0.6,0.4-1,1-1h4
	c0.6,0,1,0.4,1,1v4C7,6.6,6.6,7,6,7z M6,2H2v4h4V2z"/>
</svg>
