<?xml version="1.0" encoding="utf-8"?>
<!-- Generator: Adobe Illustrator 17.0.0, SVG Export Plug-In . SVG Version: 6.00 Build 0)  -->
<!DOCTYPE svg PUBLIC "-//W3C//DTD SVG 1.1//EN" "http://www.w3.org/Graphics/SVG/1.1/DTD/svg11.dtd">
<svg version="1.1" id="图层_1" xmlns="http://www.w3.org/2000/svg" xmlns:xlink="http://www.w3.org/1999/xlink" x="0px" y="0px"
	 width="24px" height="24px" viewBox="-5 -6 24 24" enable-background="new -5 -6 24 24" xml:space="preserve">
<path id="menu" d="M13.5,5h-14C-0.776,5-1,4.776-1,4.5S-0.776,4-0.5,4h14C13.776,4,14,4.224,14,4.5S13.776,5,13.5,5z M13.5,1h-14
	C-0.776,1-1,0.776-1,0.5S-0.776,0-0.5,0h14C13.776,0,14,0.224,14,0.5S13.776,1,13.5,1z M-0.5,8h14C13.776,8,14,8.224,14,8.5
	S13.776,9,13.5,9h-14C-0.776,9-1,8.776-1,8.5S-0.776,8-0.5,8z M-0.5,12h8C7.776,12,8,12.224,8,12.5S7.776,13,7.5,13h-8
	C-0.776,13-1,12.776-1,12.5S-0.776,12-0.5,12z"/>
</svg>
