<?xml version="1.0" encoding="utf-8"?>
<!-- Generator: Adobe Illustrator 21.0.0, SVG Export Plug-In . SVG Version: 6.00 Build 0)  -->
<svg version="1.1" id="图层_1" xmlns="http://www.w3.org/2000/svg" xmlns:xlink="http://www.w3.org/1999/xlink" x="0px" y="0px"
	 viewBox="0 0 16 16" style="enable-background:new 0 0 16 16;" xml:space="preserve">
<path fill="#000000" d="M14,10v4h-4v-4H14 M14,9h-4c-0.6,0-1,0.4-1,1v4c0,0.6,0.5,1,1,1h4c0.6,0,1-0.4,1-1v-4C15,9.4,14.6,9,14,9L14,9z M15,2
	c0-0.6-0.4-1-1-1h-4C9.4,1,9,1.4,9,2v4c0,0.6,0.4,1,1,1h4c0.6,0,1-0.4,1-1V2z M7,2c0-0.6-0.4-1-1-1H2C1.4,1,1,1.4,1,2v4
	c0,0.6,0.4,1,1,1h4c0.6,0,1-0.4,1-1V2z M7,10c0-0.6-0.4-1-1-1H2c-0.6,0-1,0.4-1,1v4c0,0.6,0.4,1,1,1h4c0.6,0,1-0.4,1-1V10z"/>
</svg>
