<?xml version="1.0" encoding="utf-8"?>
<!-- Generator: Adobe Illustrator 21.0.0, SVG Export Plug-In . SVG Version: 6.00 Build 0)  -->
<svg version="1.1" id="图层_1" xmlns="http://www.w3.org/2000/svg" xmlns:xlink="http://www.w3.org/1999/xlink" x="0px" y="0px"
	 viewBox="0 0 16 16" style="enable-background:new 0 0 16 16;" xml:space="preserve">
<g>
	<path fill="#000000" d="M7.5,0C3.4,0,0,3.4,0,7.5S3.4,15,7.5,15S15,11.6,15,7.5S11.6,0,7.5,0z M7.5,14C3.9,14,1,11.1,1,7.5S3.9,1,7.5,1
		S14,3.9,14,7.5S11.1,14,7.5,14z"/>
	<path d="M11,7H4C3.7,7,3.5,7.2,3.5,7.5S3.7,8,4,8h7c0.3,0,0.5-0.2,0.5-0.5S11.3,7,11,7z"/>
</g>
</svg>
