<?xml version="1.0" encoding="utf-8"?>
<!-- Generator: Adobe Illustrator 21.0.0, SVG Export Plug-In . SVG Version: 6.00 Build 0)  -->
<svg version="1.1" id="图层_1" xmlns="http://www.w3.org/2000/svg" xmlns:xlink="http://www.w3.org/1999/xlink" x="0px" y="0px"
	 viewBox="0 0 16 16" style="enable-background:new 0 0 16 16;" xml:space="preserve">
<path fill="#000000" id="ic_monitor" d="M15,14H9v1h2.5c0.3,0,0.5,0.2,0.5,0.5S11.8,16,11.5,16h-7C4.2,16,4,15.8,4,15.5S4.2,15,4.5,15H8v-1H1
	c-0.6,0-1-0.4-1-1V2c0-0.6,0.4-1,1-1h14c0.6,0,1,0.4,1,1v11C16,13.6,15.6,14,15,14z M15,2H1v9h14V2z M15,12H1v1h14V12z"/>
</svg>
