<?xml version="1.0" encoding="utf-8"?>
<!-- Generator: Adobe Illustrator 21.0.0, SVG Export Plug-In . SVG Version: 6.00 Build 0)  -->
<svg version="1.1" id="图层_1" xmlns="http://www.w3.org/2000/svg" xmlns:xlink="http://www.w3.org/1999/xlink" x="0px" y="0px"
	 viewBox="0 0 16 16" style="enable-background:new 0 0 16 16;" xml:space="preserve">
<path fill="#000000" d="M13.1,9c-0.6,0-1-0.4-1-1s0.4-1,1-1s1,0.4,1,1S13.6,9,13.1,9 M13.1,10c1.1,0,2-0.9,2-2s-0.9-2-2-2s-2,0.9-2,2S12,10,13.1,10
	L13.1,10z M8.1,9c-0.6,0-1-0.4-1-1s0.4-1,1-1s1,0.4,1,1S8.6,9,8.1,9 M8.1,10c1.1,0,2-0.9,2-2s-0.9-2-2-2s-2,0.9-2,2S7,10,8.1,10
	L8.1,10z M3.1,9c-0.6,0-1-0.4-1-1s0.4-1,1-1s1,0.4,1,1S3.6,9,3.1,9 M3.1,10c1.1,0,2-0.9,2-2s-0.9-2-2-2s-2,0.9-2,2S2,10,3.1,10
	L3.1,10z"/>
</svg>
