<?xml version="1.0" encoding="utf-8"?>
<!-- Generator: Adobe Illustrator 21.0.0, SVG Export Plug-In . SVG Version: 6.00 Build 0)  -->
<svg version="1.1" id="图层_1" xmlns="http://www.w3.org/2000/svg" xmlns:xlink="http://www.w3.org/1999/xlink" x="0px" y="0px"
	 viewBox="0 0 16 16" style="enable-background:new 0 0 16 16;" xml:space="preserve">
<g>
	<path fill="#000000" d="M8,7C7.4,7,7,7.4,7,8s0.4,1,1,1s1-0.4,1-1S8.6,7,8,7L8,7z"/>
	<path d="M8,2C7.4,2,7,2.4,7,3s0.4,1,1,1s1-0.4,1-1S8.6,2,8,2L8,2z"/>
	<path d="M8,12c-0.6,0-1,0.4-1,1s0.4,1,1,1s1-0.4,1-1S8.6,12,8,12L8,12z"/>
</g>
</svg>
