<?xml version="1.0" encoding="utf-8"?>
<!-- Generator: Adobe Illustrator 21.0.0, SVG Export Plug-In . SVG Version: 6.00 Build 0)  -->
<svg version="1.1" id="图层_1" xmlns="http://www.w3.org/2000/svg" xmlns:xlink="http://www.w3.org/1999/xlink" x="0px" y="0px"
	 viewBox="0 0 16 16" style="enable-background:new 0 0 16 16;" xml:space="preserve">
<path fill="#000000" d="M9.1,3c0,0.6-0.4,1-1,1s-1-0.4-1-1s0.4-1,1-1S9.1,2.5,9.1,3 M10.1,3c0-1.1-0.9-2-2-2s-2,0.9-2,2s0.9,2,2,2S10.1,4.1,10.1,3
	L10.1,3z M9.1,8c0,0.6-0.4,1-1,1s-1-0.4-1-1s0.4-1,1-1S9.1,7.5,9.1,8 M10.1,8c0-1.1-0.9-2-2-2s-2,0.9-2,2s0.9,2,2,2S10.1,9.1,10.1,8
	L10.1,8z M9.1,13c0,0.6-0.4,1-1,1c-0.6,0-1-0.4-1-1c0-0.6,0.4-1,1-1S9.1,12.5,9.1,13 M10.1,13c0-1.1-0.9-2-2-2s-2,0.9-2,2s0.9,2,2,2
	S10.1,14.1,10.1,13L10.1,13z"/>
</svg>
