<?xml version="1.0" encoding="utf-8"?>
<!-- Generator: Adobe Illustrator 21.0.0, SVG Export Plug-In . SVG Version: 6.00 Build 0)  -->
<svg version="1.1" id="图层_1" xmlns="http://www.w3.org/2000/svg" xmlns:xlink="http://www.w3.org/1999/xlink" x="0px" y="0px"
	 viewBox="0 0 16 16" style="enable-background:new 0 0 16 16;" xml:space="preserve">
<g>
	<path fill="#000000" d="M7,8c0,0.6,0.4,1,1,1s1-0.4,1-1S8.6,7,8,7S7,7.4,7,8L7,8z"/>
	<path d="M2,8c0,0.6,0.4,1,1,1s1-0.4,1-1S3.6,7,3,7S2,7.4,2,8L2,8z"/>
	<path d="M12,8c0,0.6,0.4,1,1,1s1-0.4,1-1s-0.4-1-1-1S12,7.4,12,8L12,8z"/>
</g>
</svg>
