<?xml version="1.0" encoding="utf-8"?>
<!-- Generator: Adobe Illustrator 17.0.0, SVG Export Plug-In . SVG Version: 6.00 Build 0)  -->
<!DOCTYPE svg PUBLIC "-//W3C//DTD SVG 1.1//EN" "http://www.w3.org/Graphics/SVG/1.1/DTD/svg11.dtd">
<svg version="1.1" id="图层_1" xmlns="http://www.w3.org/2000/svg" xmlns:xlink="http://www.w3.org/1999/xlink" x="0px" y="0px"
	 width="16px" height="16px" viewBox="132.5 48.5 16 16" enable-background="new 132.5 48.5 16 16" xml:space="preserve">
<path id="mstsc" d="M143.5,63.5c-2.76,0-5-1.34-5-3s2.24-3,5-3s5,1.34,5,3S146.26,63.5,143.5,63.5z M143.5,58.5c-2.21,0-4,0.9-4,2
	s1.79,2,4,2s4-0.9,4-2S145.71,58.5,143.5,58.5z M143.5,61.5c-0.552,0-1-0.448-1-1s0.448-1,1-1s1,0.448,1,1S144.052,61.5,143.5,61.5z
	 M146.5,50.5h-13v10h4c0.009,0.343,0.08,0.682,0.21,1h-5.21v-12h15v8.04c-0.318-0.193-0.653-0.357-1-0.49V50.5z M139.57,63.5h-3.07
	v-1h1.83C138.687,62.898,139.106,63.235,139.57,63.5z"/>
</svg>
