<?xml version="1.0" encoding="utf-8"?>
<!-- Generator: Adobe Illustrator 21.0.0, SVG Export Plug-In . SVG Version: 6.00 Build 0)  -->
<svg version="1.1" id="图层_1" xmlns="http://www.w3.org/2000/svg" xmlns:xlink="http://www.w3.org/1999/xlink" x="0px" y="0px"
	 viewBox="0 0 16 16" style="enable-background:new 0 0 16 16;" xml:space="preserve">
<path fill="#000000" d="M14,1H1C0.5,1,0,1.4,0,2v12c0,0.6,0.5,1,1.1,1h13c0.6,0,0.9-0.4,0.9-1V9V8V2C15,1.4,14.6,1,14,1z M14,14H1V9h1.5
	c0.2,0,0.3,0,0.4-0.2l1-1.6l1.9,4.3C5.9,11.7,6.1,12,6.3,12l0,0c0.2,0,0.4-0.3,0.5-0.5L8,8.4l0.9,1.5C9,10,9.1,10.1,9.3,10.1
	S9.6,10,9.7,9.9l1.1-1.5L12,9c0.1,0,0.1,0.1,0.2,0.1H14V14z M12.4,8l-1.5-0.8c-0.2-0.1-0.5,0-0.6,0.2L9.4,8.7L8.4,7
	C8.3,6.8,8.1,6.8,7.9,6.8S7.6,6.9,7.5,7.1L6.4,9.8l-1.9-4C4.4,5.6,4.2,5.5,4,5.5S3.6,5.6,3.5,5.7L2.2,8H1V2h13v6H12.4z"/>
</svg>
