<?xml version="1.0" encoding="utf-8"?>
<!-- Generator: Adobe Illustrator 17.0.0, SVG Export Plug-In . SVG Version: 6.00 Build 0)  -->
<!DOCTYPE svg PUBLIC "-//W3C//DTD SVG 1.1//EN" "http://www.w3.org/Graphics/SVG/1.1/DTD/svg11.dtd">
<svg version="1.1" id="图层_1" xmlns="http://www.w3.org/2000/svg" xmlns:xlink="http://www.w3.org/1999/xlink" x="0px" y="0px"
	 width="16px" height="16px" viewBox="231.5 27.5 16 16" enable-background="new 231.5 27.5 16 16" xml:space="preserve">
<g>
	<g>
		<g>
			<path d="M231.499,40.965c0-1.817,0.358-3.58,1.064-5.241c0.682-1.604,1.656-3.043,2.897-4.279
				c1.241-1.235,2.688-2.206,4.298-2.885c1.668-0.702,3.439-1.058,5.264-1.058l0.228-0.002c0.331-0.005,0.644,0.12,0.88,0.352
				c0.238,0.235,0.369,0.546,0.369,0.877v2.73c0,0.717-0.483,1.353-1.175,1.548l-2.257,0.635c-0.683,0.192-1.423,0.005-1.932-0.488
				l-1.157-1.123c-1.649,0.926-3.037,2.313-3.96,3.958l1.136,1.158c0.497,0.507,0.685,1.265,0.491,1.931l-0.636,2.245
				c-0.196,0.688-0.834,1.17-1.552,1.17l-2.72,0.006c-0.673,0.003-1.216-0.524-1.234-1.2L231.499,40.965z M245.5,28.73
				c0-0.063-0.024-0.119-0.069-0.164c-0.044-0.043-0.102-0.066-0.165-0.065l-0.242,0.002c-1.69,0-3.331,0.33-4.876,0.98
				c-1.492,0.628-2.831,1.527-3.981,2.672c-1.149,1.145-2.052,2.477-2.683,3.961c-0.653,1.537-0.984,3.169-0.984,4.851l0.005,0.307
				c0.003,0.131,0.104,0.229,0.232,0.228l2.721-0.006c0.273,0,0.517-0.183,0.59-0.443l0.637-2.247
				c0.098-0.334,0.001-0.705-0.244-0.956l-1.645-1.677l0.165-0.321c1.065-2.073,2.797-3.804,4.875-4.875l0.319-0.165l1.677,1.628
				c0.254,0.247,0.624,0.34,0.965,0.243l2.258-0.635c0.262-0.074,0.445-0.314,0.445-0.585V28.73z"/>
		</g>
	</g>
</g>
</svg>
