<?xml version="1.0" encoding="utf-8"?>
<!-- Generator: Adobe Illustrator 21.0.0, SVG Export Plug-In . SVG Version: 6.00 Build 0)  -->
<svg version="1.1" id="图层_1" xmlns="http://www.w3.org/2000/svg" xmlns:xlink="http://www.w3.org/1999/xlink" x="0px" y="0px"
	 viewBox="0 0 16 16" style="enable-background:new 0 0 16 16;" xml:space="preserve">
<g>
	<path fill="#000000" d="M14.8,14.1l-3.4-3.4c1-1.1,1.6-2.6,1.6-4.2C13,2.9,10.1,0,6.5,0S0,2.9,0,6.5S2.9,13,6.5,13c1.6,0,3.1-0.6,4.2-1.6l3.4,3.4
		c0.1,0.1,0.2,0.1,0.4,0.1s0.3,0,0.4-0.1C15,14.7,15,14.3,14.8,14.1z M1,6.5C1,3.5,3.5,1,6.5,1S12,3.5,12,6.5S9.5,12,6.5,12
		S1,9.5,1,6.5z"/>
	<path d="M10,6H7V3c0-0.3-0.2-0.5-0.5-0.5S6,2.7,6,3v3H3C2.7,6,2.5,6.2,2.5,6.5S2.7,7,3,7h3v3c0,0.3,0.2,0.5,0.5,0.5S7,10.3,7,10V7
		h3c0.3,0,0.5-0.2,0.5-0.5S10.3,6,10,6z"/>
</g>
</svg>
