<?xml version="1.0" encoding="utf-8"?>
<!-- Generator: Adobe Illustrator 21.0.0, SVG Export Plug-In . SVG Version: 6.00 Build 0)  -->
<svg version="1.1" id="图层_1" xmlns="http://www.w3.org/2000/svg" xmlns:xlink="http://www.w3.org/1999/xlink" x="0px" y="0px"
	 viewBox="0 0 16 16" style="enable-background:new 0 0 16 16;" xml:space="preserve">
<g>
	<rect x="13" y="5" width="1" height="1"/>
	<path fill="#000000" d="M15,3h-2V1c0-0.6-0.4-1-1-1H4C3.4,0,3,0.4,3,1v2H1C0.4,3,0,3.4,0,4v7c0,0.6,0.4,1,1,1h2v2c0,0.6,0.4,1,1,1h8l0,0
		c0.3,0,0.5-0.1,0.7-0.3c0.2-0.2,0.3-0.4,0.3-0.7v-2h2c0.6,0,1-0.4,1-1V4C16,3.4,15.6,3,15,3z M4,1h8v2H4V1z M12,14H4V9h8V14z
		 M15,11h-2V9c0-0.6-0.4-1-1-1H4C3.4,8,3,8.4,3,9v2H1V4h3h8h3V11z"/>
</g>
</svg>
