<?xml version="1.0" encoding="UTF-8"?>
<svg width="16px" height="16px" viewBox="0 0 16 16" version="1.1" xmlns="http://www.w3.org/2000/svg" xmlns:xlink="http://www.w3.org/1999/xlink">
    <!-- Generator: Sketch 47 (45396) - http://www.bohemiancoding.com/sketch -->
    <title>report/app</title>
    <desc>Created with Sketch.</desc>
    <defs></defs>
    <g id="icon" stroke="none" stroke-width="1" fill="none" fill-rule="evenodd">
        <g id="report/app" fill-rule="nonzero" fill="#231815">
            <path d="M12,5 L5,5 L5,4 L12,4 L12,5 Z M4,4 L3,4 L3,5 L4,5 L4,4 Z M8,7 L5,7 L5,8 L8,8 L8,7 Z M4,7 L4,8 L3,8 L3,7 L4,7 Z M8,10 L8,11 L5,11 L5,10 L8,10 Z M4,10 L3,10 L3,11 L4,11 L4,10 Z M10.5,14 L11,14 L9,14 L9,14 L10.5,14 L15,14 L15,8 L10,8 L10,14 L10.5,14 Z M9,14 L9,7 L16,7 L16,15 L9,15 L9,14 L8,14 L8,13 L1,13 L1,2 L14,2 L14,6 L15,6 L15,2 C15,1.448 14.552,1 14,1 L1,1 C0.448,1 0,1.448 0,2 L0,13 C0,13.552 0.448,14 1,14 L9,14 Z M10,9 L15,9 L15,10 L10,10 L10,9 Z" id="h-icon-report-app"></path>
        </g>
    </g>
</svg>