<?xml version="1.0" encoding="UTF-8"?>
<svg width="16px" height="16px" viewBox="0 0 16 16" version="1.1" xmlns="http://www.w3.org/2000/svg" xmlns:xlink="http://www.w3.org/1999/xlink">
    <!-- Generator: Sketch 47 (45396) - http://www.bohemiancoding.com/sketch -->
    <title>report/api</title>
    <desc>Created with Sketch.</desc>
    <defs></defs>
    <g id="icon" stroke="none" stroke-width="1" fill="none" fill-rule="evenodd">
        <g id="report/api" fill-rule="nonzero" fill="#231815">
            <path d="M12,5 L5,5 L5,4 L12,4 L12,5 Z M4,4 L3,4 L3,5 L4,5 L4,4 Z M12,7 L5,7 L5,8 L12,8 L12,7 Z M4,7 L4,8 L3,8 L3,7 L4,7 Z M8,10 L8,11 L5,11 L5,10 L8,10 Z M4,10 L3,10 L3,11 L4,11 L4,10 Z M15,9 L14,9 L14,2 L1,2 L1,13 L8,13 L8,14 L1,14 C0.448,14 0,13.552 0,13 L0,2 C0,1.448 0.448,1 1,1 L14,1 C14.552,1 15,1.448 15,2 L15,9 Z M9,10 L16,10 L16,15 L9,15 L9,10 Z M10,14 L15,14 L15,11 L10,11 L10,14 Z M11,12 L12,12 L12,13 L11,13 L11,12 Z M13,12 L14,12 L14,13 L13,13 L13,12 Z" id="h-icon-report-api"></path>
        </g>
    </g>
</svg>