<?xml version="1.0" encoding="utf-8"?>
<!-- Generator: Adobe Illustrator 17.0.0, SVG Export Plug-In . SVG Version: 6.00 Build 0)  -->
<!DOCTYPE svg PUBLIC "-//W3C//DTD SVG 1.1//EN" "http://www.w3.org/Graphics/SVG/1.1/DTD/svg11.dtd">
<svg version="1.1" id="图层_1" xmlns="http://www.w3.org/2000/svg" xmlns:xlink="http://www.w3.org/1999/xlink" x="0px" y="0px"
	 width="16px" height="16px" viewBox="67.5 66.5 16 16" enable-background="new 67.5 66.5 16 16" xml:space="preserve">
<path id="icon_restart" d="M75,66.5c0.3,0,0.5,0.2,0.5,0.5v2c0,0.3-0.2,0.5-0.5,0.5s-0.5-0.2-0.5-0.5v-2
	C74.5,66.7,74.7,66.5,75,66.5z M75,78.5c0.3,0,0.5,0.2,0.5,0.5v2c0,0.3-0.2,0.5-0.5,0.5s-0.5-0.2-0.5-0.5v-2
	C74.5,78.7,74.7,78.5,75,78.5z M80,73.5h2c0.3,0,0.5,0.2,0.5,0.5s-0.2,0.5-0.5,0.5h-2c-0.3,0-0.5-0.2-0.5-0.5S79.7,73.5,80,73.5z
	 M68,73.5h2c0.3,0,0.5,0.2,0.5,0.5s-0.2,0.5-0.5,0.5h-2c-0.3,0-0.5-0.2-0.5-0.5S67.7,73.5,68,73.5z M78.2,70.1l1.4-1.4
	c0.2-0.2,0.5-0.2,0.7,0c0.2,0.2,0.2,0.5,0,0.7l-1.4,1.4c-0.2,0.2-0.5,0.2-0.7,0C78,70.6,78,70.3,78.2,70.1L78.2,70.1z M69.7,78.6
	l1.4-1.4c0.2-0.2,0.5-0.2,0.7,0c0.2,0.2,0.2,0.5,0,0.7l-1.4,1.4c-0.2,0.2-0.5,0.1-0.7-0.1C69.6,79,69.6,78.8,69.7,78.6z M78.9,77.2
	l1.4,1.4c0.2,0.2,0.2,0.5,0,0.7c-0.2,0.2-0.5,0.2-0.7,0l0,0l-1.4-1.4c-0.2-0.2-0.2-0.5,0-0.7C78.4,77,78.7,77,78.9,77.2L78.9,77.2
	L78.9,77.2z M70.4,68.6l1.4,1.4c0.2,0.2,0.2,0.5,0,0.7c-0.2,0.2-0.5,0.2-0.7,0l-1.4-1.3c-0.2-0.2-0.2-0.6,0-0.8
	C69.9,68.4,70.2,68.4,70.4,68.6L70.4,68.6L70.4,68.6z"/>
</svg>
