<?xml version="1.0" encoding="utf-8"?>
<!-- Generator: Adobe Illustrator 21.0.0, SVG Export Plug-In . SVG Version: 6.00 Build 0)  -->
<svg version="1.1" id="图层_1" xmlns="http://www.w3.org/2000/svg" xmlns:xlink="http://www.w3.org/1999/xlink" x="0px" y="0px"
	 viewBox="0 0 16 16" style="enable-background:new 0 0 16 16;" xml:space="preserve">
<g>
	<path fill="#000000" d="M10,5H2C1.4,5,1,5.4,1,6v8c0,0.6,0.4,1,1,1h8c0.6,0,1-0.4,1-1V6C11,5.4,10.6,5,10,5z M10,14H2V6h8V14z"/>
	<path d="M13,2H5C4.5,2,4,2.5,4,3v1h1V3h8v8h-1v1h1c0.6,0,1-0.4,1-1V3C14,2.4,13.6,2,13,2z"/>
</g>
</svg>
