<?xml version="1.0" encoding="utf-8"?>
<!-- Generator: Adobe Illustrator 21.0.0, SVG Export Plug-In . SVG Version: 6.00 Build 0)  -->
<svg version="1.1" id="图层_1" xmlns="http://www.w3.org/2000/svg" xmlns:xlink="http://www.w3.org/1999/xlink" x="0px" y="0px"
	 viewBox="0 0 16 16" style="enable-background:new 0 0 16 16;" xml:space="preserve">
<style type="text/css">
	.st0{fill:#231815;}
</style>
<g>
	<path class="st0" d="M14.7,3.8l-3.8-3.5C10.7,0.1,10.5,0,10.2,0H10H3H2C1.4,0,1,0.4,1,1v13c0,0.6,0.4,1,1,1h1h10h1c0.6,0,1-0.4,1-1
		V4.5C15,4.3,14.9,4,14.7,3.8z M9,1v3H4V1H9z M4,14V8h8v6H4z M14,14h-1V7H3v7H2V1h1v4h7V1h0.2L14,4.5V14z"/>
	<rect x="7" y="2" class="st0" width="1" height="1"/>
</g>
</svg>
