<?xml version="1.0" encoding="utf-8"?>
<!-- Generator: Adobe Illustrator 17.0.0, SVG Export Plug-In . SVG Version: 6.00 Build 0)  -->
<!DOCTYPE svg PUBLIC "-//W3C//DTD SVG 1.1//EN" "http://www.w3.org/Graphics/SVG/1.1/DTD/svg11.dtd">
<svg version="1.1" id="图层_1" xmlns="http://www.w3.org/2000/svg" xmlns:xlink="http://www.w3.org/1999/xlink" x="0px" y="0px"
	 width="16px" height="16px" viewBox="27.5 27.5 16 16" enable-background="new 27.5 27.5 16 16" xml:space="preserve">
<path d="M42.425,41.757l-4.208-4.129c0.801-1.007,1.302-2.216,1.302-3.525c0-3.022-2.504-5.54-5.51-5.54s-5.51,2.518-5.51,5.54
	c0,3.022,2.504,5.54,5.51,5.54c1.302,0,2.605-0.504,3.506-1.309l4.107,4.129c0.1,0.101,0.2,0.101,0.401,0.101
	c0.2,0,0.301,0,0.401-0.101S42.525,41.958,42.425,41.757z M34.01,38.634c-2.504,0-4.508-2.014-4.508-4.532
	c0-2.518,2.004-4.532,4.508-4.532c2.504,0,4.508,2.014,4.508,4.532C38.518,36.62,36.514,38.634,34.01,38.634z"/>
</svg>
