<?xml version="1.0" encoding="utf-8"?>
<!-- Generator: Adobe Illustrator 17.0.0, SVG Export Plug-In . SVG Version: 6.00 Build 0)  -->
<!DOCTYPE svg PUBLIC "-//W3C//DTD SVG 1.1//EN" "http://www.w3.org/Graphics/SVG/1.1/DTD/svg11.dtd">
<svg version="1.1" id="图层_1" xmlns="http://www.w3.org/2000/svg" xmlns:xlink="http://www.w3.org/1999/xlink" x="0px" y="0px"
	 width="16px" height="16px" viewBox="194.5 48.5 16 16" enable-background="new 194.5 48.5 16 16" xml:space="preserve">
<path id="h-icon-server-group-add" d="M207.5,60.5v3h-1v-3h-3v-1h3v-3h1v3h3v1H207.5z M198.5,54.5v-4l3.5-2l3.5,2v4l-3.5,2
	L198.5,54.5z M204.5,53.966l-0.037-3l-2.5-1.466l-2.463,1.534l0.037,3l2.5,1.466L204.5,53.966z M201.5,61.5l-3.5,2l-3.5-2v-4l3.5-2
	l3.5,2V61.5z M200.468,57.967l-2.5-1.466l-2.468,1.533l0.037,3l2.5,1.466l2.463-1.534L200.468,57.967z"/>
</svg>
