<?xml version="1.0" encoding="UTF-8"?>
<svg width="16px" height="16px" viewBox="0 0 16 16" version="1.1" xmlns="http://www.w3.org/2000/svg" xmlns:xlink="http://www.w3.org/1999/xlink">
    <!-- Generator: Sketch 47 (45396) - http://www.bohemiancoding.com/sketch -->
    <title>h-icon-server-offline</title>
    <desc>Created with Sketch.</desc>
    <defs></defs>
    <g id="icon" stroke="none" stroke-width="1" fill="none" fill-rule="evenodd">
        <g id="h-icon-server-offline" fill="#000000" fill-rule="nonzero">
            <path d="M13,12.1877235 L15.1464466,10.0412769 C15.3417088,9.84601476 15.6582912,9.84601476 15.8535534,10.0412769 C16.0488155,10.2365391 16.0488155,10.5531215 15.8535534,10.7483837 L13.7071068,12.8948303 L15.8535534,15.0412769 C16.0488155,15.2365391 16.0488155,15.5531215 15.8535534,15.7483837 C15.6582912,15.9436458 15.3417088,15.9436458 15.1464466,15.7483837 L13,13.6019371 L10.8535534,15.7483837 C10.6582912,15.9436458 10.3417088,15.9436458 10.1464466,15.7483837 C9.95118446,15.5531215 9.95118446,15.2365391 10.1464466,15.0412769 L12.2928932,12.8948303 L10.1464466,10.7483837 C9.95118446,10.5531215 9.95118446,10.2365391 10.1464466,10.0412769 C10.3417088,9.84601476 10.6582912,9.84601476 10.8535534,10.0412769 L13,12.1877235 Z M9,13.7043959 L9,15.6763832 L8.9051543,15.7382783 L8.9051543,15.7382783 C8.60948189,15.9312306 8.23397415,15.9539695 7.91717912,15.7981053 L1.55853583,12.6696318 L1.55853583,12.6696318 C1.21659629,12.5013964 1,12.1534379 1,11.7723529 L1,3.83439885 L1,3.83439885 C1,3.43869007 1.23333905,3.08019965 1.59517241,2.92000582 L7.99729139,0.0856071317 L7.99729139,0.0856071317 C8.27017442,-0.035205886 8.58275534,-0.0278283417 8.84963483,0.105724167 L14.4475159,2.90702992 L14.4475159,2.90702992 C14.7861337,3.07648194 15,3.42265561 15,3.80130592 L15,3.80130592 L15,8.84933517 L14,9.84933517 L14,4.36942263 L9,7.26824452 L9,13.7043959 Z M2.93950829,3.36458445 L8.73837323,6.26401692 L13.4867285,3.51108966 L8.42820323,1.04953084 L2.93950829,3.36458445 Z M2,3.827843 L2,11.7608557 L8,14.6860662 L8,6.8948303 L2,3.8948303 L2,3.827843 Z M3,5.8948303 L7,7.8948303 L7,8.8948303 L3,6.8948303 L3,5.8948303 Z M3,7.8948303 L7,9.8948303 L7,10.8948303 L3,8.8948303 L3,7.8948303 Z M3,9.8948303 L7,11.8948303 L7,12.8948303 L3,10.8948303 L3,9.8948303 Z"></path>
        </g>
    </g>
</svg>