<?xml version="1.0" encoding="utf-8"?>
<!-- Generator: Adobe Illustrator 17.0.0, SVG Export Plug-In . SVG Version: 6.00 Build 0)  -->
<!DOCTYPE svg PUBLIC "-//W3C//DTD SVG 1.1//EN" "http://www.w3.org/Graphics/SVG/1.1/DTD/svg11.dtd">
<svg version="1.1" id="图层_1" xmlns="http://www.w3.org/2000/svg" xmlns:xlink="http://www.w3.org/1999/xlink" x="0px" y="0px"
	 width="24px" height="24px" viewBox="-4 -2 24 24" enable-background="new -4 -2 24 24" xml:space="preserve">
<path id="h-icon-server-group" d="M11.5,18L8,16v-4l3.5-2l3.5,2v4L11.5,18z M13.963,12.467l-2.5-1.466L9,12.534l0.037,3l2.5,1.466
	L14,15.466L13.963,12.467z M4.005,9V5l3.5-2l3.5,2v4l-3.5,2L4.005,9z M10.005,8.466l-0.037-3L7.468,4L5,5.534l0.037,3L7.537,10
	L10.005,8.466z M7,16l-3.5,2L0,16v-4l3.5-2L7,12V16z M5.968,12.467l-2.5-1.466L1,12.534l0.037,3L3.537,17L6,15.466L5.968,12.467z"/>
</svg>
