<?xml version="1.0" encoding="utf-8"?>
<!-- Generator: Adobe Illustrator 17.0.0, SVG Export Plug-In . SVG Version: 6.00 Build 0)  -->
<!DOCTYPE svg PUBLIC "-//W3C//DTD SVG 1.1//EN" "http://www.w3.org/Graphics/SVG/1.1/DTD/svg11.dtd">
<svg version="1.1" id="图层_1" xmlns="http://www.w3.org/2000/svg" xmlns:xlink="http://www.w3.org/1999/xlink" x="0px" y="0px"
	 width="24px" height="24px" viewBox="-1 -5.5 24 24" enable-background="new -1 -5.5 24 24" xml:space="preserve">
<path id="h-icon-server-add" d="M15.5,15.5c-2.485,0-4.5-2.015-4.5-4.5s2.015-4.5,4.5-4.5S20,8.515,20,11S17.985,15.5,15.5,15.5z
	 M15.5,7.5C13.567,7.5,12,9.067,12,11s1.567,3.5,3.5,3.5S19,12.933,19,11S17.433,7.5,15.5,7.5z M16,11.5v2h-1v-2h-2v-1h2v-2h1v2h2v1
	H16z M16.5,5.5c-0.171,0-0.333,0.035-0.5,0.05V3.125L10,6.5v8l-1,1l-8-5v-9l8-4l8,4v4.05C16.833,5.535,16.671,5.5,16.5,5.5z M2,10.5
	l7,4v-8l-7-4V10.5z M9-1.5l-7,3l7,4l7.111-3.444L9-1.5z M3,8.5l5,3v1l-5-3V8.5z M3,6.5l5,3v1l-5-3V6.5z M3,4.5l5,3v1l-5-3V4.5z"/>
</svg>
