<?xml version="1.0" encoding="utf-8"?>
<!-- Generator: Adobe Illustrator 17.0.0, SVG Export Plug-In . SVG Version: 6.00 Build 0)  -->
<!DOCTYPE svg PUBLIC "-//W3C//DTD SVG 1.1//EN" "http://www.w3.org/Graphics/SVG/1.1/DTD/svg11.dtd">
<svg version="1.1" id="图层_1" xmlns="http://www.w3.org/2000/svg" xmlns:xlink="http://www.w3.org/1999/xlink" x="0px" y="0px"
	 width="16px" height="16px" viewBox="771.5 27.5 16 16" enable-background="new 771.5 27.5 16 16" xml:space="preserve">
<g>
	<path d="M779.5,27.5l-7,3.109v8.91l7,3.982l7-3.982v-8.95L779.5,27.5z M785.007,30.933l-5.066,3.328l-6.179-3.208l5.737-2.415
		L785.007,30.933z M773.501,38.948l-0.001-7.046l6,3.114v0.519v6.826l0,0L773.501,38.948z M780.5,41.793v-6.257v-0.657l4.999-3.284
		v7.354L780.5,41.793z"/>
	<polygon points="774.5,36.521 778.5,38.738 778.5,37.753 774.5,35.536 	"/>
	<polygon points="774.5,38.492 778.5,40.709 778.5,39.724 774.5,37.507 	"/>
	<polygon points="774.5,34.55 778.5,36.768 778.5,35.782 774.5,33.565 	"/>
</g>
</svg>
