<?xml version="1.0" encoding="utf-8"?>
<!-- Generator: Adobe Illustrator 17.0.0, SVG Export Plug-In . SVG Version: 6.00 Build 0)  -->
<!DOCTYPE svg PUBLIC "-//W3C//DTD SVG 1.1//EN" "http://www.w3.org/Graphics/SVG/1.1/DTD/svg11.dtd">
<svg version="1.1" id="图层_1" xmlns="http://www.w3.org/2000/svg" xmlns:xlink="http://www.w3.org/1999/xlink" x="0px" y="0px"
	 width="24px" height="24px" viewBox="-3.5 -4 24 24" enable-background="new -3.5 -4 24 24" xml:space="preserve">
<path id="h-icon-server-group-add" d="M13,17c-2.485,0-4.5-2.015-4.5-4.5S10.515,8,13,8s4.5,2.015,4.5,4.5S15.485,17,13,17z M13,9
	c-1.933,0-3.5,1.567-3.5,3.5S11.067,16,13,16s3.5-1.567,3.5-3.5S14.933,9,13,9z M13.5,13v2h-1v-2h-2v-1h2v-2h1v2h2v1H13.5z M3.5,6V2
	L7,0l3.5,2v4L7,8L3.5,6z M9.5,5.466l-0.037-3L6.963,1L4.5,2.534l0.037,3L7.037,7L9.5,5.466z M6.5,13L3,15l-3.5-2V9L3,7l3.5,2V13z
	 M5.468,9.467l-2.5-1.466L0.5,9.534l0.037,3L3.037,14L5.5,12.466L5.468,9.467z"/>
</svg>
