<?xml version="1.0" encoding="utf-8"?>
<!-- Generator: Adobe Illustrator 17.0.0, SVG Export Plug-In . SVG Version: 6.00 Build 0)  -->
<!DOCTYPE svg PUBLIC "-//W3C//DTD SVG 1.1//EN" "http://www.w3.org/Graphics/SVG/1.1/DTD/svg11.dtd">
<svg version="1.1" id="图层_1" xmlns="http://www.w3.org/2000/svg" xmlns:xlink="http://www.w3.org/1999/xlink" x="0px" y="0px"
	 width="16px" height="16px" viewBox="175.5 48.5 16 16" enable-background="new 175.5 48.5 16 16" xml:space="preserve">
<path id="h-icon-server-group_1_" d="M179.505,54.5v-4l3.5-2l3.5,2v4l-3.5,2L179.505,54.5z M185.505,53.966l-0.037-3l-2.5-1.466
	l-2.468,1.534l0.037,3l2.5,1.466L185.505,53.966z M182.5,61.5l-3.5,2l-3.5-2v-4l3.5-2l3.5,2V61.5z M181.468,57.967l-2.5-1.466
	l-2.468,1.533l0.037,3l2.5,1.466l2.463-1.534L181.468,57.967z M189.379,57.5l-0.707,0.707l1.292,1.293H184.5v1h5.464l-1.292,1.293
	l0.707,0.707l2.121-2v-1L189.379,57.5z"/>
</svg>
