<?xml version="1.0" encoding="utf-8"?>
<!-- Generator: Adobe Illustrator 17.0.0, SVG Export Plug-In . SVG Version: 6.00 Build 0)  -->
<!DOCTYPE svg PUBLIC "-//W3C//DTD SVG 1.1//EN" "http://www.w3.org/Graphics/SVG/1.1/DTD/svg11.dtd">
<svg version="1.1" id="图层_1" xmlns="http://www.w3.org/2000/svg" xmlns:xlink="http://www.w3.org/1999/xlink" x="0px" y="0px"
	 width="16px" height="16px" viewBox="1063.5 23.5 16 16" enable-background="new 1063.5 23.5 16 16" xml:space="preserve">
<path id="ic" d="M1078.5,32.5v-4h-12v9h6v1h-6c-0.6,0-1-0.4-1-1v-1h-1c-0.6,0-1-0.4-1-1v-10c0-0.6,0.4-1,1-1h13c0.6,0,1,0.4,1,1v2
	c0.6,0,1,0.4,1,1v4H1078.5z M1077.5,25.5h-13v10h1v-7c0-0.6,0.4-1,1-1h11V25.5z"/>
<path d="M1079.5,36c0,0.276-0.313,0.5-0.7,0.5h-5.6c-0.387,0-0.7-0.224-0.7-0.5l0,0c0-0.276,0.313-0.5,0.7-0.5h5.6
	C1079.187,35.5,1079.5,35.724,1079.5,36L1079.5,36z"/>
<path d="M1076.5,38.864c0,0.351-0.224,0.636-0.5,0.636l0,0c-0.276,0-0.5-0.285-0.5-0.636v-5.727c0-0.351,0.224-0.636,0.5-0.636l0,0
	c0.276,0,0.5,0.285,0.5,0.636V38.864z"/>
</svg>
