<?xml version="1.0" encoding="utf-8"?>
<!-- Generator: Adobe Illustrator 17.0.0, SVG Export Plug-In . SVG Version: 6.00 Build 0)  -->
<!DOCTYPE svg PUBLIC "-//W3C//DTD SVG 1.1//EN" "http://www.w3.org/Graphics/SVG/1.1/DTD/svg11.dtd">
<svg version="1.1" id="图层_1" xmlns="http://www.w3.org/2000/svg" xmlns:xlink="http://www.w3.org/1999/xlink" x="0px" y="0px"
	 width="16px" height="16px" viewBox="807.5 27.5 16 16" enable-background="new 807.5 27.5 16 16" xml:space="preserve">
<g>
	<polygon points="810.5,36.521 814.5,38.738 814.5,37.753 810.5,35.536 	"/>
	<polygon points="810.5,38.492 814.5,40.709 814.5,39.724 810.5,37.507 	"/>
	<polygon points="810.5,34.55 814.5,36.768 814.5,35.782 810.5,33.565 	"/>
	<path d="M816.5,41.793V36.5v-0.964v-0.657l4.999-3.284V36.5h1.001v-5.932l-7-3.068l-7,3.109v8.909l7,3.982l1-0.569V41.793z
		 M815.5,28.638l5.508,2.294l-5.066,3.328l-6.179-3.208L815.5,28.638z M815.5,35.536v6.826l0,0l-5.999-3.413l-0.001-7.046l6,3.114
		V35.536z"/>
	<path d="M823,39.5c0,0.276-0.269,0.5-0.6,0.5h-4.8c-0.331,0-0.6-0.224-0.6-0.5l0,0c0-0.276,0.269-0.5,0.6-0.5h4.8
		C822.731,39,823,39.224,823,39.5L823,39.5z"/>
	<path d="M820.5,41.955c0,0.301-0.224,0.545-0.5,0.545l0,0c-0.276,0-0.5-0.244-0.5-0.545v-4.909c0-0.301,0.224-0.545,0.5-0.545l0,0
		c0.276,0,0.5,0.244,0.5,0.545V41.955z"/>
</g>
</svg>
