<?xml version="1.0" encoding="UTF-8"?>
<svg width="16px" height="16px" viewBox="0 0 16 16" version="1.1" xmlns="http://www.w3.org/2000/svg" xmlns:xlink="http://www.w3.org/1999/xlink">
    <!-- Generator: Sketch 47 (45396) - http://www.bohemiancoding.com/sketch -->
    <title>h-icon-service</title>
    <desc>Created with Sketch.</desc>
    <defs></defs>
    <g id="icon" stroke="none" stroke-width="1" fill="none" fill-rule="evenodd">
        <g id="h-icon-service" fill-rule="nonzero" fill="#000000">
            <g transform="translate(0.000000, 1.000000)" id="Combined-Shape">
                <path d="M13,3 L14,3 C14.5522847,3 15,3.44771525 15,4 L15,12 C15,12.5522847 14.5522847,13 14,13 L4,13 C3.44771525,13 3,12.5522847 3,12 L3,10 L1,10 C0.44771525,10 0,9.55228475 0,9 L0,1 C0,0.44771525 0.44771525,0 1,0 L12,0 C12.5522847,0 13,0.44771525 13,1 L13,3 Z M12,3 L12,1 L1,1 L1,9 L3,9 L3,4 C3,3.44771525 3.44771525,3 4,3 L12,3 Z M4,4 L4,12 L14,12 L14,4 L4,4 Z"></path>
            </g>
        </g>
    </g>
</svg>