<?xml version="1.0" encoding="utf-8"?>
<!-- Generator: Adobe Illustrator 17.0.0, SVG Export Plug-In . SVG Version: 6.00 Build 0)  -->
<!DOCTYPE svg PUBLIC "-//W3C//DTD SVG 1.1//EN" "http://www.w3.org/Graphics/SVG/1.1/DTD/svg11.dtd">
<svg version="1.1" id="图层_1" xmlns="http://www.w3.org/2000/svg" xmlns:xlink="http://www.w3.org/1999/xlink" x="0px" y="0px"
	 width="16px" height="16px" viewBox="699.5 27.5 16 16" enable-background="new 699.5 27.5 16 16" xml:space="preserve">
<g id="图标">
	<path d="M715.5,38.5v-1h-1.562c-0.059-0.464-0.213-0.898-0.459-1.272l1.057-1.057l-0.707-0.707l-1.038,1.038
		c-0.373-0.286-1.291-0.489-1.291-0.574V33.5h-1v1.423c0,0.079-0.933,0.273-1.312,0.557l-1.016-1.015l-0.707,0.707l1.025,1.025
		c-0.257,0.38-0.416,0.826-0.476,1.303H706.5v1h1.544c0.094,0.443,0.294,0.843,0.56,1.19l-1.138,1.138l0.707,0.707l1.157-1.157
		c0.346,0.229,1.17,0.38,1.17,0.449V42.5h1v-1.678c0-0.075,0.813-0.231,1.154-0.461l1.175,1.175l0.707-0.707l-1.165-1.165
		c0.255-0.341,0.446-0.732,0.538-1.163L715.5,38.5L715.5,38.5L715.5,38.5z M710.976,39.875c-1.103,0-2-0.897-2-2s0.897-2,2-2
		c1.103,0,2,0.897,2,2S712.078,39.875,710.976,39.875z M706.106,40.5c0.183,0.357,0.399,0.694,0.652,1H703.5v-1H706.106z
		 M705.713,39.5H699.5v-2v-1v-9h15v6.257c-0.306-0.253-0.643-0.469-1-0.652V28.5h-13v8h5.213c-0.091,0.323-0.156,0.656-0.187,1
		H700.5v1h5.026C705.557,38.844,705.621,39.177,705.713,39.5z"/>
</g>
</svg>
