<?xml version="1.0" encoding="utf-8"?>
<!-- Generator: Adobe Illustrator 21.0.0, SVG Export Plug-In . SVG Version: 6.00 Build 0)  -->
<svg version="1.1" id="图层_1" xmlns="http://www.w3.org/2000/svg" xmlns:xlink="http://www.w3.org/1999/xlink" x="0px" y="0px"
	 viewBox="0 0 16 16" style="enable-background:new 0 0 16 16;" xml:space="preserve">
<path id="ic_sever_o" d="M13,16H3c-0.6,0-1-0.4-1-1V1c0-0.6,0.4-1,1-1h10c0.6,0,1,0.4,1,1v14C14,15.6,13.6,16,13,16z M13,3H3v1h10V3
	z M13,5H3v1h10V5z M12,8c-0.6,0-1,0.4-1,1s0.4,1,1,1s1-0.4,1-1S12.6,8,12,8z M13,13H3v1h10V13z"/>
</svg>
