<?xml version="1.0" encoding="utf-8"?>
<!-- Generator: Adobe Illustrator 21.0.0, SVG Export Plug-In . SVG Version: 6.00 Build 0)  -->
<svg version="1.1" id="图层_1" xmlns="http://www.w3.org/2000/svg" xmlns:xlink="http://www.w3.org/1999/xlink" x="0px" y="0px"
	 viewBox="0 0 16 16" style="enable-background:new 0 0 16 16;" xml:space="preserve">
<path fill="#000000" id="icon_shutdown" d="M7.5,16C3.4,16,0,12.6,0,8.5c0-3.6,2.5-6.6,6-7.4v1C2.5,3,0.3,6.5,1.2,10C2,13.5,5.5,15.7,9,14.8
	s5.7-4.3,4.8-7.8C13.2,4.6,11.4,2.7,9,2.2v-1C13.1,2,15.7,6,14.9,10C14.1,13.5,11.1,16,7.5,16z M7.5,9C7.2,9,7,8.8,7,8.5v-8
	C7,0.2,7.2,0,7.5,0S8,0.2,8,0.5v8C8,8.8,7.8,9,7.5,9z"/>
</svg>
