<?xml version="1.0" encoding="utf-8"?>
<!-- Generator: Adobe Illustrator 21.0.0, SVG Export Plug-In . SVG Version: 6.00 Build 0)  -->
<svg version="1.1" id="图层_1" xmlns="http://www.w3.org/2000/svg" xmlns:xlink="http://www.w3.org/1999/xlink" x="0px" y="0px"
	 viewBox="0 0 16 16" style="enable-background:new 0 0 16 16;" xml:space="preserve">
<style type="text/css">
	.st0{fill:#040000;}
</style>
<path class="st0" d="M14,15H7c-0.6,0-1-0.4-1-1v-4h1v4h7V7h-4V6h4c0.6,0,1,0.4,1,1v7C15,14.6,14.6,15,14,15z M10,2H2v8h3v1H2
	c-0.6,0-1-0.4-1-1V2c0-0.6,0.4-1,1-1h8c0.6,0,1,0.4,1,1v3h-1V2z M9,5v1H6.7l4.6,4.6l-0.7,0.7L6,6.7V9H5V6V5h1H9z"/>
</svg>
