<?xml version="1.0" encoding="UTF-8"?>
<svg width="16px" height="16px" viewBox="0 0 16 16" version="1.1" xmlns="http://www.w3.org/2000/svg" xmlns:xlink="http://www.w3.org/1999/xlink">
    <!-- Generator: Sketch 49.2 (51160) - http://www.bohemiancoding.com/sketch -->
    <title>h-icon-system-linux</title>
    <desc>Created with Sketch.</desc>
    <defs></defs>
    <g id="h-icon-system-linux" stroke="none" stroke-width="1" fill="none" fill-rule="evenodd">
        <path d="M8.06032015,1 C7.96990997,1 7.87658332,1.00466634 7.78092353,1.01224912 C5.31535034,1.20648519 5.96922012,3.81613137 5.93188946,4.68581902 C5.88697601,5.32335663 5.756902,5.82557062 5.31885009,6.44794264 C4.80263711,7.06098201 4.07818906,8.05199427 3.73463036,9.08500353 C3.57247533,9.57030206 3.49548085,10.0672664 3.5672257,10.5368161 C3.54040963,10.5582831 3.51835947,10.5851008 3.50248035,10.6155604 C3.35082456,10.7718826 3.24058247,10.9661186 3.11634137,11.104942 C3.00026636,11.221017 2.83344499,11.2606808 2.65145805,11.3382586 C2.46888781,11.4175863 2.26765224,11.495164 2.14749419,11.7354801 C2.09499795,11.8451389 2.06816654,11.9647137 2.07049971,12.0860383 C2.07049971,12.2021133 2.08624858,12.3199382 2.10258074,12.3986826 C2.13641165,12.6314159 2.17024256,12.8239021 2.1253291,12.9644753 C1.98067282,13.3611135 1.96259077,13.6329274 2.0640835,13.8306632 C2.16557623,14.0254825 2.37614446,14.1042269 2.61179422,14.1812214 C3.08484362,14.2978797 3.72588099,14.2599657 4.23042814,14.530613 C4.77055607,14.8030101 5.31885009,14.9220016 5.75631872,14.80476 C6.06313006,14.7376815 6.32211149,14.534696 6.46093486,14.2535495 C6.80332698,14.2517997 7.1783834,14.0966441 7.77917365,14.0587302 C8.18689442,14.0248993 8.69727448,14.214469 9.28289915,14.1748052 C9.29748144,14.2535495 9.31964651,14.2908802 9.34939438,14.3696245 L9.35114426,14.3713744 C9.57921123,14.8251752 10.0003477,15.0316604 10.4500654,14.9960796 C10.8997832,14.9610821 11.3786655,14.6834354 11.7665544,14.2343009 C12.1346113,13.7880829 12.748234,13.6020129 13.1536216,13.3576138 C13.356607,13.2415388 13.5205119,13.0840501 13.5321777,12.8600661 C13.5455934,12.6267495 13.4161027,12.3864334 13.1157076,12.0568737 L13.1157076,12.0002945 L13.1139577,11.9985446 C13.0147982,11.8818863 12.9681349,11.6864836 12.9168052,11.4584167 C12.8672254,11.2245168 12.8106462,10.9999495 12.6298258,10.8482937 L12.6280759,10.8482937 C12.5936617,10.816796 12.5563311,10.8092132 12.5184171,10.7695494 C12.4857996,10.7467752 12.447341,10.7338207 12.4075917,10.7322187 C12.6589904,9.98677219 12.5615807,9.2448254 12.3066823,8.57753992 C11.9957879,7.7550989 11.4521603,7.03881694 11.0380233,6.54593562 C10.5737232,5.95972766 10.1187559,5.40443415 10.1275052,4.58082653 C10.1432541,3.32558322 10.2657453,1.00349975 8.06032015,1 Z M8.36888137,2.98610757 L8.37646415,2.98610757 C8.50070524,2.98610757 8.60744758,3.02227164 8.71710638,3.10159929 C8.82851506,3.18034364 8.90959257,3.29525207 8.97317136,3.41249366 C9.03441697,3.56356616 9.06533142,3.68022446 9.06999774,3.8347967 C9.06999774,3.82313087 9.07349749,3.81146504 9.0734975,3.80038251 L9.0734975,3.86104482 C9.07221336,3.85707471 9.07142958,3.85295989 9.07116433,3.8487957 L9.06883116,3.8347967 C9.06765633,3.97655169 9.03789825,4.11661307 8.98133744,4.2466005 C8.95409944,4.31973385 8.91176744,4.38631234 8.85709635,4.44200316 C8.84056809,4.43267044 8.82341778,4.42448506 8.8057667,4.41750492 C8.74452108,4.3912568 8.68969169,4.38017426 8.63952861,4.33992715 C8.59815024,4.32340049 8.55540757,4.31051914 8.51178777,4.30142991 C8.54036906,4.26701571 8.59636504,4.22385214 8.61794683,4.18593819 C8.64886128,4.11127688 8.66577673,4.03194923 8.66927648,3.95145501 L8.66927648,3.94037247 C8.67059599,3.86115446 8.65856759,3.78227969 8.6336957,3.70705587 C8.60744758,3.62831152 8.57478325,3.58981428 8.52695336,3.5122365 C8.47795688,3.47373926 8.42954368,3.43524202 8.37121452,3.43524203 L8.36188186,3.43524203 C8.30763575,3.43524203 8.25922256,3.45274078 8.20905949,3.5122365 C8.15366572,3.56625833 8.1125746,3.6332068 8.08948473,3.70705587 C8.05850526,3.78116889 8.04073838,3.86013279 8.03698849,3.94037247 L8.03698849,3.95145501 C8.03815507,4.00336795 8.04165483,4.05586419 8.04865432,4.10719384 C7.93607906,4.06811331 7.79317264,4.02844949 7.69459639,3.98936895 C7.68873345,3.95092752 7.68522716,3.91216348 7.68409713,3.87329394 L7.68409713,3.86162811 C7.6794277,3.70745565 7.70932295,3.5541927 7.77159087,3.41307695 C7.81942077,3.2853361 7.90691449,3.1762606 8.02240621,3.10218258 C8.12218909,3.02681763 8.24383539,2.98606407 8.36888137,2.98610757 Z M6.64117193,3.02052177 L6.66217042,3.02052177 C6.74499782,3.02052177 6.81965913,3.04851976 6.89490373,3.09926612 C6.9800643,3.17451072 7.0488927,3.26725407 7.09555601,3.37049667 C7.14805225,3.48657168 7.17780012,3.60439656 7.18479961,3.7595521 L7.18479961,3.76188527 C7.18888264,3.84004633 7.18829936,3.87912686 7.18363303,3.91704081 L7.18363303,3.96370413 C7.16613428,3.96778717 7.15096871,3.97420339 7.13521983,3.97770312 C7.04655951,4.00978416 6.97539795,4.05644747 6.90598628,4.09436142 C6.91298577,4.04244848 6.91356907,3.98995224 6.90773614,3.93862259 L6.90773614,3.92987322 C6.90073665,3.85229545 6.88498777,3.81379821 6.85990624,3.73563715 C6.84171856,3.67618947 6.80834545,3.62251104 6.76307986,3.57989832 C6.73403816,3.55348689 6.69550962,3.54001243 6.65633751,3.54256767 L6.64408839,3.54256767 C6.60267469,3.54606741 6.5682605,3.56648262 6.53559617,3.61956214 C6.49838728,3.66472278 6.47418869,3.71916959 6.46560118,3.77705084 C6.44976561,3.84011055 6.44522357,3.90547652 6.45218549,3.97012034 L6.45218549,3.97828642 C6.45918498,4.05703077 6.47376727,4.09552801 6.49943209,4.17310578 C6.52568021,4.25126684 6.55601136,4.28976408 6.59567519,4.3294279 C6.6020914,4.33467752 6.60792432,4.33992715 6.6155071,4.3434269 C6.57467669,4.37667451 6.54726199,4.38425731 6.5128478,4.42275454 C6.49100883,4.44203226 6.46477018,4.45565232 6.43643661,4.46241837 C6.37580603,4.38940553 6.32210584,4.31090561 6.27603145,4.22793518 C6.22088522,4.10536201 6.19017517,3.97320975 6.18562126,3.83887975 C6.17596165,3.70720758 6.19180584,3.57490859 6.23228458,3.44924102 C6.26441306,3.33463452 6.32069737,3.22823132 6.39735608,3.13718007 C6.47201739,3.0596023 6.54901187,3.02052177 6.64117193,3.02052177 Z M7.44086458,4.01561707 C7.63393407,4.01561707 7.86783396,4.05353102 8.14956375,4.24835038 C8.32046816,4.36500868 8.45462521,4.4052558 8.76376971,4.5213308 L8.76551958,4.5213308 C8.91425891,4.60065845 9.00175263,4.67648634 9.04433292,4.75406411 L9.04433292,4.67765293 C9.08667727,4.76345263 9.09007698,4.86331919 9.05366559,4.95179994 C8.98192073,5.1332036 8.75268717,5.32743967 8.43304342,5.44351467 L8.43304342,5.44468126 C8.27672131,5.52342561 8.14081438,5.63891733 7.98099252,5.71591181 C7.82000406,5.79465616 7.63801711,5.88623293 7.39070151,5.87165064 C7.30185864,5.87625076 7.21299673,5.86296114 7.12938691,5.83257011 C7.06478248,5.79742051 7.00208781,5.75886912 6.94156706,5.71707839 C6.82782522,5.63833404 6.72983224,5.52342561 6.58459265,5.44584784 L6.58459265,5.44293138 L6.58167619,5.44293138 C6.3483596,5.29944167 6.22236863,5.14428613 6.18153822,5.02821112 C6.14129112,4.871889 6.17862177,4.7546474 6.29411349,4.67823622 C6.42477079,4.59949187 6.51576426,4.52016422 6.57584328,4.48225027 C6.63650559,4.4390867 6.65925396,4.42275454 6.67850258,4.40583909 L6.67966917,4.40583909 L6.67966917,4.40408921 C6.77824543,4.28626433 6.93398426,4.13052549 7.16905074,4.05353102 C7.25012826,4.03253253 7.34053844,4.01561707 7.44086458,4.01561707 Z M9.0734975,5.26561077 C9.28289915,6.09213483 9.77169743,7.29254874 10.0860915,7.87467366 C10.2529129,8.18615132 10.5848058,8.84235426 10.7288788,9.63854716 C10.8198722,9.6356307 10.9207817,9.64904641 11.0281073,9.67587782 C11.4049136,8.70119772 10.7096302,7.65360618 10.3929029,7.36254372 C10.2639955,7.24530213 10.2575793,7.16714107 10.321158,7.16714107 C10.6647167,7.47861873 11.1173509,8.08407531 11.2812558,8.77527573 C11.3565004,9.0873367 11.3739992,9.41922956 11.293505,9.74937254 C11.3325855,9.7657047 11.3722493,9.78495332 11.4130797,9.78845308 C12.0150365,10.0999307 12.2372706,10.3355805 12.1305283,10.6849721 L12.1305283,10.6598906 C12.0949475,10.6581407 12.0605333,10.6598906 12.0249525,10.6598906 L12.0162031,10.6598906 C12.1042802,10.3874934 11.9100441,10.1786751 11.3949977,9.94594178 C10.8612859,9.71262518 10.4348999,9.74995583 10.3619884,10.2171723 C10.3579054,10.2422539 10.3549889,10.2556696 10.3520725,10.2959167 C10.3124087,10.3093324 10.270995,10.3268311 10.2301645,10.3332473 C9.9793492,10.4895695 9.84402558,10.7234694 9.76761438,11.0256144 C9.69178649,11.3365087 9.66845483,11.6998993 9.64803963,12.1157862 L9.64803963,12.1175361 C9.63579051,12.3123554 9.54829678,12.6063343 9.46196964,12.9055629 C8.58703239,13.5308514 7.37378607,13.8026652 6.34194339,13.1003822 C6.27722691,12.9872631 6.19843842,12.8827998 6.1074602,12.7894879 C6.06403541,12.7168918 6.00996529,12.6512212 5.94705503,12.5946685 C6.05321409,12.5946685 6.14420756,12.577753 6.21828558,12.555588 C6.30216291,12.5166792 6.36777715,12.4468858 6.40143913,12.3607686 C6.46443461,12.2050298 6.40143913,11.9542144 6.20020355,11.6824006 C5.99896799,11.4100035 5.65715916,11.1020255 5.15727835,10.7952142 C4.7898047,10.5624809 4.58215292,10.2877506 4.48649311,9.98093927 C4.39025002,9.66946162 4.40308243,9.34806799 4.47774374,9.02142476 C4.62065016,8.39730285 4.98695723,7.79067969 5.22085711,7.40979033 C5.28326931,7.37187638 5.2424389,7.48853468 4.98287419,7.97791625 C4.75189076,8.41596817 4.31733858,9.43439514 4.91171263,10.2259217 C4.93415512,9.64840429 5.06205686,9.07986423 5.28910222,8.54837534 C5.61807863,7.80292879 6.30577932,6.50452191 6.36002543,5.4755957 C6.38802341,5.4965942 6.48659968,5.55434005 6.52859666,5.59342059 C6.65575422,5.67099836 6.75024743,5.78765666 6.87273866,5.86465113 C6.99581317,5.98189272 7.15096871,6.06005378 7.38370202,6.06005379 C7.40645039,6.06180367 7.42744888,6.06355354 7.44844736,6.06355354 C7.68818017,6.06355354 7.87366686,5.98539248 8.02940571,5.90723142 C8.19856025,5.82907036 8.33330058,5.71241206 8.46104141,5.67391481 L8.46395787,5.67391481 C8.736355,5.59517046 8.95158956,5.43943162 9.0734975,5.26561077 Z M10.3485727,10.4907361 C10.3701545,10.8412942 10.5486417,11.216934 10.8630358,11.2939285 C11.2060112,11.3720895 11.6994758,11.0996924 11.9077109,10.8477104 L12.0307854,10.8424608 C12.2145222,10.8377945 12.3673446,10.8482937 12.5248333,10.9981997 L12.5265832,10.9999495 C12.6479078,11.1160245 12.7044871,11.3096773 12.7546502,11.5109129 C12.80423,11.7448128 12.8444771,11.9658802 12.9932164,12.1327016 C13.2766961,12.4400963 13.3694394,12.6611637 13.3641898,12.7976539 L13.3659397,12.7941542 L13.3659397,12.8046534 L13.3641898,12.7976539 C13.3554404,12.9504763 13.2562809,13.0286374 13.0737106,13.1447124 C12.706237,13.3786123 12.0552837,13.5600159 11.6405634,14.06048 C11.2800892,14.4903659 10.8408707,14.7248491 10.4529819,14.7551802 C10.0656763,14.7860947 9.73145031,14.6385219 9.53488107,14.2313845 L9.53196462,14.2296346 C9.4094734,13.9957347 9.46196964,13.6317608 9.56462894,13.2438719 C9.66728824,12.8542332 9.81427771,12.4593449 9.83469291,12.1367847 C9.8562747,11.7203145 9.87902307,11.3580905 9.94843476,11.0786939 C10.0184297,10.8074633 10.1280885,10.6138106 10.3223246,10.504735 L10.3485727,10.4919026 L10.3485727,10.4907361 Z M4.04027512,10.5193173 L4.04610803,10.5193173 C4.07702248,10.5193173 4.10735365,10.5222338 4.13768479,10.5274834 C4.35700239,10.5595644 4.54948859,10.7217195 4.734392,10.9661186 L5.26518727,11.9367157 L5.26693715,11.9384656 C5.40867698,12.2493599 5.70673894,12.5590877 5.96047074,12.893897 C6.21361926,13.2427054 6.4096052,13.5535997 6.38569024,13.8096647 L6.38569024,13.8131645 C6.35244263,14.2471333 6.10629361,14.4827831 5.72948731,14.5679436 C5.35326429,14.646688 4.84288423,14.5691102 4.33250416,14.2972964 C3.76787799,13.9846522 3.09709276,14.0237327 2.66604034,13.9461549 C2.45080578,13.9076577 2.30964924,13.8289133 2.24432057,13.712255 C2.17957521,13.59618 2.17840863,13.3616968 2.31606543,12.9948065 L2.31606543,12.9930566 L2.31723202,12.9913067 C2.38547713,12.7964874 2.33473077,12.5520882 2.30148314,12.3386035 C2.2694021,12.1047036 2.25306995,11.9250499 2.32656468,11.7903095 C2.41989132,11.5954902 2.55754811,11.5575762 2.72845252,11.4794151 C2.90052352,11.4006708 3.10234237,11.3615903 3.26274754,11.2058514 L3.26391413,11.2058514 L3.26391413,11.2041016 C3.41323675,11.0477794 3.52347885,10.8535434 3.65355285,10.7153033 C3.76437823,10.5980617 3.87520361,10.5193173 4.04027512,10.5193173 Z M8.21605898,5.22653024 C7.96232718,5.34377183 7.66484851,5.5385912 7.34812123,5.53859118 C7.03197724,5.53859118 6.78232847,5.38285236 6.6020914,5.26677734 C6.51168122,5.18861629 6.43876977,5.11045523 6.38394038,5.0713747 C6.28828057,4.99321364 6.2999464,4.87655534 6.3407768,4.87655532 C6.40435557,4.88588799 6.4160214,4.95529967 6.45685181,4.99379693 C6.5128478,5.03229417 6.58225948,5.10987194 6.66742005,5.188033 C6.83715788,5.3046913 7.06405827,5.46043013 7.34753794,5.46043013 C7.63043433,5.46043013 7.9617439,5.3046913 8.16297946,5.18861629 C8.27672131,5.10987194 8.42254418,4.99379693 8.54095235,4.91621916 C8.63194582,4.83630822 8.62786278,4.75989704 8.70369069,4.75989703 C8.77893529,4.76922969 8.7235226,4.83805808 8.61794683,4.95413309 C8.48856607,5.05197695 8.35423103,5.14309116 8.21547569,5.22711353 L8.21547569,5.22653024 L8.21605898,5.22653024 Z M7.58493758,4.30259649 L7.58493758,4.28976408 C7.58143783,4.27868154 7.59252038,4.26526584 7.60185304,4.2605995 C7.6450166,4.23551797 7.70684551,4.24485063 7.75350883,4.26293267 C7.79025619,4.26293267 7.84683547,4.3020132 7.84100255,4.34167702 C7.83750281,4.37025831 7.79142277,4.38017426 7.76225819,4.38017426 C7.73017716,4.38017426 7.70859537,4.35509273 7.6800141,4.34051044 C7.64968294,4.33001119 7.59485353,4.3358441 7.58493758,4.30259649 Z M7.26354396,4.30259649 C7.25187813,4.33642739 7.19763202,4.33117778 7.16671757,4.34109373 C7.13930287,4.35567602 7.1165545,4.38075755 7.08564006,4.38075755 C7.05589219,4.38075755 7.00922886,4.36967501 7.00572912,4.34109373 C7.00047949,4.30259649 7.05705877,4.26351596 7.09322284,4.26351596 C7.14046945,4.24543392 7.20054848,4.23610126 7.24429534,4.2605995 C7.25537789,4.26584913 7.26529384,4.27809825 7.26179409,4.28976408 L7.26179409,4.3020132 L7.26354396,4.3020132 L7.26354396,4.30259649 Z" fill="#000000" fill-rule="nonzero"></path>
    </g>
</svg>