<?xml version="1.0" encoding="utf-8"?>
<!-- Generator: Adobe Illustrator 17.0.0, SVG Export Plug-In . SVG Version: 6.00 Build 0)  -->
<!DOCTYPE svg PUBLIC "-//W3C//DTD SVG 1.1//EN" "http://www.w3.org/Graphics/SVG/1.1/DTD/svg11.dtd">
<svg version="1.1" id="图层_1" xmlns="http://www.w3.org/2000/svg" xmlns:xlink="http://www.w3.org/1999/xlink" x="0px" y="0px"
	 width="24px" height="24px" viewBox="0.5 0.5 24 24" enable-background="new 0.5 0.5 24 24" xml:space="preserve">
<path id="time" d="M19.5,13.969c0.017,3.59-2.879,6.514-6.469,6.531S6.517,17.62,6.5,14.031c-0.016-3.408,2.602-6.25,6-6.512v-1.05
	h-2v-1h5v1h-2v1.05C16.879,7.77,19.494,10.581,19.5,13.969z M13,8.469c-3.038,0-5.5,2.462-5.5,5.5s2.462,5.5,5.5,5.5
	s5.5-2.462,5.5-5.5S16.038,8.469,13,8.469L13,8.469z M12.5,14.469v-4h1v3h2v1H12.5z"/>
</svg>
