<?xml version="1.0" encoding="utf-8"?>
<!-- Generator: Adobe Illustrator 21.0.0, SVG Export Plug-In . SVG Version: 6.00 Build 0)  -->
<svg version="1.1" id="图层_1" xmlns="http://www.w3.org/2000/svg" xmlns:xlink="http://www.w3.org/1999/xlink" x="0px" y="0px"
	 viewBox="0 0 16 16" enable-background="new 0 0 16 16" xml:space="preserve">
<title>h-icon-trashcan</title>
<g>
	<path fill="#040000" d="M13.5,3h-11C2.224,3,2,3.224,2,3.5S2.224,4,2.5,4H3v10c0,0.552,0.448,1,1,1h8c0.552,0,1-0.448,1-1V4h0.5
		C13.776,4,14,3.776,14,3.5S13.776,3,13.5,3z M12,14H4V4h8V14z"/>
	<path fill="#040000" d="M6.5,13C6.776,13,7,12.776,7,12.5v-7C7,5.224,6.776,5,6.5,5S6,5.224,6,5.5v7C6,12.776,6.224,13,6.5,13z"/>
	<path fill="#040000" d="M9.5,13c0.276,0,0.5-0.224,0.5-0.5v-7C10,5.224,9.776,5,9.5,5S9,5.224,9,5.5v7C9,12.776,9.224,13,9.5,13z"
		/>
	<path fill="#040000" d="M5.5,2h5C10.776,2,11,1.776,11,1.5S10.776,1,10.5,1h-5C5.224,1,5,1.224,5,1.5S5.224,2,5.5,2z"/>
</g>
</svg>
