<svg id="图层_1" data-name="图层 1" xmlns="http://www.w3.org/2000/svg" viewBox="0 0 16 16"><title>tree-view-change</title><path d="M1.5,7H13a.5.5,0,0,0,0-1H1.5a.5.5,0,0,0,0,1Z"/><path d="M6.5,11h-5a.5.5,0,0,0,0,1h5a.5.5,0,0,0,0-1Z"/><path d="M1.5,2H13a.5.5,0,0,0,0-1H1.5a.5.5,0,0,0,0,1Z"/><path d="M9.85,9.85h0l1-1a.5.5,0,0,0-.71-.71l-1,1h0l-1,1,0,.07,0,.06a.46.46,0,0,0,0,.42H8l0,0a.38.38,0,0,0,.21.21l0,0h0a.5.5,0,0,0,.19,0h6a.5.5,0,0,0,0-1H9.71Z"/><path d="M15,12.31h0l0,0a.39.39,0,0,0-.22-.22l0,0h0a.5.5,0,0,0-.19,0h-6a.5.5,0,0,0,0,1h4.79l-.15.15h0l-1,1a.5.5,0,0,0,.71.71l1-1h0l1-1a.47.47,0,0,0,0-.07.49.49,0,0,0,.06-.09.5.5,0,0,0,0-.19h0A.5.5,0,0,0,15,12.31Z"/></svg>