<?xml version="1.0" encoding="utf-8"?>
<!-- Generator: Adobe Illustrator 21.0.0, SVG Export Plug-In . SVG Version: 6.00 Build 0)  -->
<svg version="1.1" id="图层_1" xmlns="http://www.w3.org/2000/svg" xmlns:xlink="http://www.w3.org/1999/xlink" x="0px" y="0px"
	 viewBox="0 0 16 16" style="enable-background:new 0 0 16 16;" xml:space="preserve">
<path fill="#000000" d="M6,14.7c0,0.1-0.1,0.1-0.1,0.2c0,0,0,0,0,0c0,0,0,0,0,0c0,0-0.1,0.1-0.2,0.1C5.6,15,5.4,15,5.3,15c-0.1,0-0.1-0.1-0.2-0.1
	c0,0,0,0,0,0l-3.5-3.5c-0.2-0.2-0.2-0.5,0-0.7s0.5-0.2,0.7,0L5,13.3V1.5C5,1.2,5.2,1,5.5,1S6,1.2,6,1.5v13C6,14.6,6,14.6,6,14.7z
	 M13.4,4.7L9.9,1.1c0,0-0.1-0.1-0.2-0.1C9.6,1,9.4,1,9.3,1c-0.1,0-0.1,0.1-0.2,0.1c0,0,0,0,0,0c0,0,0,0,0,0c0,0-0.1,0.1-0.1,0.2
	c0,0.1,0,0.1,0,0.2v13C9,14.8,9.2,15,9.5,15s0.5-0.2,0.5-0.5V2.7l2.7,2.7c0.2,0.2,0.5,0.2,0.7,0S13.6,4.9,13.4,4.7z"/>
</svg>
