<?xml version="1.0" encoding="utf-8"?>
<!-- Generator: Adobe Illustrator 21.0.0, SVG Export Plug-In . SVG Version: 6.00 Build 0)  -->
<svg version="1.1" id="图层_1" xmlns="http://www.w3.org/2000/svg" xmlns:xlink="http://www.w3.org/1999/xlink" x="0px" y="0px"
	 viewBox="0 0 16 16" style="enable-background:new 0 0 16 16;" xml:space="preserve">
<path fill="#000000" id="update" d="M15,3.5L6,5.8v9l4-1.7v1L5.5,16L0,11.6V1.5L10.6,0L16,2.5v3h-1V3.5z M1,11.2l4,3.1V5.7L1,3.1V11.2z M10.5,1
	L1.6,2.3l3.9,2.3l8.7-1.9L10.5,1z M11.8,7.2L11.8,7.2l0.7-0.7L16,10l-0.7,0.7L13,8.4v6.2h-1V8.4l-2.3,2.3L9,10L11.8,7.2z"/>
</svg>
