<?xml version="1.0" encoding="utf-8"?>
<!-- Generator: Adobe Illustrator 21.0.0, SVG Export Plug-In . SVG Version: 6.00 Build 0)  -->
<svg version="1.1" id="图层_1" xmlns="http://www.w3.org/2000/svg" xmlns:xlink="http://www.w3.org/1999/xlink" x="0px" y="0px"
	 viewBox="0 0 16 16" style="enable-background:new 0 0 16 16;" xml:space="preserve">
<style type="text/css">
	.st0{fill:#040000;}
</style>
<g>
	<path class="st0" d="M14.5,9C14.2,9,14,9.2,14,9.5V14H1V9.5C1,9.2,0.8,9,0.5,9S0,9.2,0,9.5v5C0,14.8,0.2,15,0.5,15h14
		c0.3,0,0.5-0.2,0.5-0.5v-5C15,9.2,14.8,9,14.5,9z"/>
	<path class="st0" d="M4.3,5.4L7,2.7v8.8C7,11.8,7.2,12,7.5,12S8,11.8,8,11.5V2.7l2.7,2.7c0.2,0.2,0.5,0.2,0.7,0
		c0.2-0.2,0.2-0.5,0-0.7L7.9,1.2c0,0,0,0,0,0c0,0-0.1-0.1-0.1-0.1c0,0,0,0,0,0C7.6,1,7.6,1,7.5,1S7.4,1,7.3,1c0,0,0,0,0,0
		c0,0-0.1,0-0.1,0.1c0,0,0,0,0,0L3.6,4.7c-0.2,0.2-0.2,0.5,0,0.7C3.8,5.6,4.1,5.6,4.3,5.4z"/>
</g>
</svg>
