<?xml version="1.0" encoding="utf-8"?>
<!-- Generator: Adobe Illustrator 17.0.0, SVG Export Plug-In . SVG Version: 6.00 Build 0)  -->
<!DOCTYPE svg PUBLIC "-//W3C//DTD SVG 1.1//EN" "http://www.w3.org/Graphics/SVG/1.1/DTD/svg11.dtd">
<svg version="1.1" id="图层_1" xmlns="http://www.w3.org/2000/svg" xmlns:xlink="http://www.w3.org/1999/xlink" x="0px" y="0px"
	 width="16px" height="16px" viewBox="447.5 27.5 16 16" enable-background="new 447.5 27.5 16 16" xml:space="preserve">
<path fill="#040000" d="M455.5,27.5c-2.761,0-5,2.239-5,5s2.239,5,5,5c2.761,0,5-2.239,5-5S458.261,27.5,455.5,27.5z M455.5,36.5
	c-2.209,0-4-1.791-4-4s1.791-4,4-4s4,1.791,4,4S457.709,36.5,455.5,36.5z"/>
<g>
	<path fill="#040000" d="M462.948,43.5c-0.305,0-0.552-0.202-0.552-0.452c0-3.113-3.094-5.548-6.897-5.548s-6.897,2.436-6.897,5.548
		c0,0.25-0.247,0.452-0.552,0.452s-0.552-0.202-0.552-0.452c0-3.611,3.588-6.548,8-6.548s8,2.937,8,6.548
		C463.5,43.298,463.253,43.5,462.948,43.5z"/>
</g>
</svg>
