<?xml version="1.0" encoding="utf-8"?>
<!-- Generator: Adobe Illustrator 17.0.0, SVG Export Plug-In . SVG Version: 6.00 Build 0)  -->
<!DOCTYPE svg PUBLIC "-//W3C//DTD SVG 1.1//EN" "http://www.w3.org/Graphics/SVG/1.1/DTD/svg11.dtd">
<svg version="1.1" id="图层_1" xmlns="http://www.w3.org/2000/svg" xmlns:xlink="http://www.w3.org/1999/xlink" x="0px" y="0px"
	 width="16px" height="16px" viewBox="735.5 27.5 16 16" enable-background="new 735.5 27.5 16 16" xml:space="preserve">
<g>
	<path d="M741.5,29.5c1.657,0,3,1.343,3,3s-1.343,3-3,3s-3-1.343-3-3S739.843,29.5,741.5,29.5 M741.5,28.5c-2.206,0-4,1.794-4,4
		s1.794,4,4,4s4-1.794,4-4S743.706,28.5,741.5,28.5L741.5,28.5z"/>
</g>
<g>
	<path d="M747.038,42.5c-0.255,0-0.462-0.224-0.462-0.5c0-3.032-2.278-5.5-5.077-5.5s-5.077,2.468-5.077,5.5
		c0,0.276-0.206,0.5-0.462,0.5S735.5,42.276,735.5,42c0-3.584,2.692-6.5,6-6.5s6,2.916,6,6.5
		C747.5,42.276,747.294,42.5,747.038,42.5z"/>
</g>
<path d="M747.614,34.933c1.379-0.819,2.192-2.421,1.911-4.096c-0.366-2.175-2.432-3.647-4.608-3.281
	c-0.273,0.046-0.456,0.303-0.41,0.576c0.046,0.273,0.303,0.456,0.576,0.41c1.631-0.274,3.182,0.83,3.456,2.461
	s-0.83,3.182-2.461,3.456c-0.052,0.009-0.096,0.031-0.141,0.054c-0.245,0.032-0.437,0.234-0.437,0.487c0,0.276,0.224,0.5,0.5,0.5
	c0,0,4.5,1,4.577,5.5c0.005,0.276,0.206,0.5,0.461,0.5c0.255,0,0.462-0.224,0.462-0.5C751.5,37.5,749.5,35.5,747.614,34.933z"/>
</svg>
