<?xml version="1.0" encoding="utf-8"?>
<!-- Generator: Adobe Illustrator 17.0.0, SVG Export Plug-In . SVG Version: 6.00 Build 0)  -->
<!DOCTYPE svg PUBLIC "-//W3C//DTD SVG 1.1//EN" "http://www.w3.org/Graphics/SVG/1.1/DTD/svg11.dtd">
<svg version="1.1" id="图层_1" xmlns="http://www.w3.org/2000/svg" xmlns:xlink="http://www.w3.org/1999/xlink" x="0px" y="0px"
	 width="16px" height="16px" viewBox="223.5 -112.5 16 16" enable-background="new 223.5 -112.5 16 16" xml:space="preserve">
<g>
	<path d="M238.5-111.5h-14c-0.552,0-1,0.448-1,1v11c0,0.552,0.448,1,1,1h14c0.552,0,1-0.448,1-1v-11
		C239.5-111.052,239.052-111.5,238.5-111.5z M238.5-99.5h-14v-11h14V-99.5z"/>
	<path d="M227.5-100.5c1.105,0,2-0.895,2-2c0-0.37-0.108-0.713-0.283-1.01l2.273-2.273c0.297,0.175,0.64,0.283,1.01,0.283
		c1.105,0,2-0.895,2-2s-0.895-2-2-2s-2,0.895-2,2c0,0.37,0.108,0.713,0.283,1.01l-2.273,2.273c-0.297-0.175-0.64-0.283-1.01-0.283
		c-1.105,0-2,0.895-2,2S226.395-100.5,227.5-100.5z M232.5-108.5c0.551,0,1,0.449,1,1s-0.449,1-1,1s-1-0.449-1-1
		S231.949-108.5,232.5-108.5z M227.5-103.5c0.551,0,1,0.449,1,1s-0.449,1-1,1s-1-0.449-1-1S226.949-103.5,227.5-103.5z"/>
	<path d="M233-104c0,0.276,0.224,0.5,0.5,0.5h3.5c0.276,0,0.5-0.224,0.5-0.5s-0.224-0.5-0.5-0.5h-3.5
		C233.224-104.5,233-104.276,233-104z"/>
	<path d="M237-102.5h-3.5c-0.276,0-0.5,0.224-0.5,0.5s0.224,0.5,0.5,0.5h3.5c0.276,0,0.5-0.224,0.5-0.5S237.276-102.5,237-102.5z"/>
</g>
</svg>
