<?xml version="1.0" encoding="utf-8"?>
<!-- Generator: Adobe Illustrator 17.0.0, SVG Export Plug-In . SVG Version: 6.00 Build 0)  -->
<!DOCTYPE svg PUBLIC "-//W3C//DTD SVG 1.1//EN" "http://www.w3.org/Graphics/SVG/1.1/DTD/svg11.dtd">
<svg version="1.1" id="图层_1" xmlns="http://www.w3.org/2000/svg" xmlns:xlink="http://www.w3.org/1999/xlink" x="0px" y="0px"
	 width="16px" height="16px" viewBox="279.5 -112.5 16 16" enable-background="new 279.5 -112.5 16 16" xml:space="preserve">
<g>
	<path d="M290.623-107.916c0.395,0.262,0.868,0.416,1.377,0.416c1.381,0,2.5-1.119,2.5-2.5s-1.119-2.5-2.5-2.5s-2.5,1.119-2.5,2.5
		c0,0.509,0.154,0.982,0.416,1.377l-6.539,6.539c-0.395-0.262-0.868-0.416-1.377-0.416c-1.381,0-2.5,1.119-2.5,2.5
		s1.119,2.5,2.5,2.5s2.5-1.119,2.5-2.5c0-0.509-0.154-0.982-0.416-1.377L290.623-107.916z M292-111.5c0.827,0,1.5,0.673,1.5,1.5
		s-0.673,1.5-1.5,1.5s-1.5-0.673-1.5-1.5S291.173-111.5,292-111.5z M282-98.5c-0.827,0-1.5-0.673-1.5-1.5s0.673-1.5,1.5-1.5
		s1.5,0.673,1.5,1.5S282.827-98.5,282-98.5z"/>
	<path d="M295.033-101.5H292.5v-2.5c0-0.276-0.224-0.5-0.5-0.5s-0.5,0.224-0.5,0.5v2.5h-2.533c-0.258,0-0.467,0.224-0.467,0.5
		s0.209,0.5,0.467,0.5h2.533v2.5c0,0.276,0.224,0.5,0.5,0.5s0.5-0.224,0.5-0.5v-2.5h2.533c0.258,0,0.467-0.224,0.467-0.5
		S295.291-101.5,295.033-101.5z"/>
</g>
</svg>
